<svg width="53" height="40" viewBox="0 0 53 40" fill="none" xmlns="http://www.w3.org/2000/svg">
<path fill-rule="evenodd" clip-rule="evenodd" d="M45.699 18.3457L45.6042 18.4792L45.4978 18.6284L45.3738 18.8006C45.338 18.8718 45.2502 18.9973 45.1935 19.0567L45.014 19.2772L44.8895 19.4225C44.829 19.5342 44.5241 19.8561 44.4547 19.8999C44.4094 19.9657 44.1388 20.1981 44.0707 20.2312C43.9883 20.3464 43.4228 20.7121 43.2387 20.8738C43.085 21.0088 42.9912 21.0908 42.8372 21.2043C42.7082 21.2995 42.5542 21.4501 42.3997 21.527L42.2552 21.6422L42.1176 21.7327L42.0226 21.7882L41.8368 21.9115L41.508 22.1272L41.0955 22.3831L40.839 22.5357L40.7679 22.5775L40.5856 22.6851L40.2806 22.859L40.126 22.944L40.0447 22.9884C39.9861 23.0446 39.9662 23.0519 39.8769 23.0747C39.8126 23.1108 39.8688 23.0873 39.7919 23.1152L39.7171 23.1568L39.5907 23.2217L39.2829 23.376L39.1606 23.4356C39.1156 23.4789 39.1459 23.4572 39.0857 23.49C39.0655 23.5011 39.0386 23.5109 39.0071 23.5249C38.9299 23.5595 38.905 23.5813 38.8028 23.606L38.467 23.7613L38.3654 23.8051C38.1991 23.909 37.3227 24.261 37.0635 24.3416C36.8952 24.4563 34.6898 25.1839 34.4037 25.1999C34.2993 25.158 34.3528 25.1844 34.3478 25.2C34.2823 25.2673 34.24 25.2559 34.1172 25.2861C34.0135 25.3116 33.9856 25.3281 33.8592 25.3497L33.4278 25.4574C33.1849 25.54 32.3848 25.7077 32.0763 25.7363C31.9658 25.692 32.0265 25.7222 32.0251 25.7365C31.9812 25.774 32.0383 25.7467 31.9496 25.7817L30.6698 25.9882C30.3411 26.0239 29.5222 26.1441 29.2117 26.1441C28.9871 26.2076 28.6339 26.1854 28.3679 26.1905C28.0774 26.1961 27.8031 26.2367 27.5248 26.2405C26.9242 26.249 25.4768 26.2393 24.8735 26.1939C23.3989 26.0828 22.384 25.9192 20.966 25.6442C20.5159 25.5569 19.9712 25.4371 19.5456 25.3082C18.9841 25.138 17.211 24.682 16.8854 24.4685C16.7367 24.4239 16.2159 24.2334 16.1194 24.17L15.4726 23.913L15.3757 23.8736L15.1968 23.7836L15.05 23.7193C14.9318 23.6922 14.0482 23.269 13.9691 23.1993L13.7721 23.0942L13.6451 23.0279L13.4894 22.9424L13.415 22.9003C13.3317 22.8683 13.383 22.8941 13.3347 22.8569L13.2612 22.813L13.1839 22.7735L12.9511 22.6428L12.8798 22.5982L12.8012 22.5566L12.6951 22.4944C12.6225 22.4626 12.591 22.4515 12.5449 22.389L12.5368 22.3855C12.4131 22.3493 12.103 22.1503 12.0336 22.0842C11.8018 21.9803 10.8989 21.3298 10.7533 21.1815C10.6375 21.1241 10.5141 21.003 10.4243 20.9213C10.3234 20.8294 10.1657 20.7265 10.0904 20.6446L9.8606 20.4885C9.79127 20.4579 9.78103 20.4458 9.72841 20.4109C9.70921 20.3982 9.68703 20.3864 9.67211 20.3738C9.61213 20.3227 9.64247 20.3506 9.61263 20.2962C9.4689 20.2201 8.777 19.5622 8.75143 19.4496C8.69046 19.4183 8.73293 19.4485 8.69215 19.4154C8.69145 19.4147 8.64868 19.3684 8.64719 19.3665C8.59825 19.3095 8.60671 19.3288 8.57617 19.2564L8.56254 19.2405C8.49709 19.2077 8.54563 19.2525 8.50575 19.2072C8.47919 19.1771 8.48565 19.177 8.46874 19.1317L8.45154 19.106L8.13791 18.6697L8.06968 18.5813C8.06311 18.5772 8.05307 18.5646 8.05008 18.569L7.91421 18.4126C7.87432 18.3478 7.83394 18.2888 7.82906 18.2049C7.92445 18.2066 7.94156 18.2129 8.00353 18.2699L8.0095 18.3034L8.08022 18.3377L8.15323 18.38L8.33953 18.486L8.56582 18.6161L8.7203 18.7013L8.79709 18.7448L8.87457 18.7847L9 18.8507L9.10982 18.9139C9.22261 18.9459 9.69469 19.1986 9.84906 19.2815L10.0685 19.3981C10.0718 19.4008 10.0772 19.4071 10.0814 19.4117L10.2033 19.4709L12.0045 20.2828C12.1976 20.3662 12.4766 20.4512 12.6134 20.5438C12.7221 20.5688 12.8244 20.618 12.9184 20.6563C13.0218 20.6985 13.1062 20.7337 13.2105 20.7714C13.3192 20.8106 13.4224 20.8575 13.5078 20.8882C13.5634 20.9082 13.6175 20.9257 13.6644 20.9452C13.6718 20.9484 13.7185 20.9661 13.731 20.9711C13.7383 20.974 13.7616 20.9819 13.7684 20.9854C13.8086 21.0055 13.7914 20.996 13.8154 21.0185L13.9109 21.0588C14.0059 21.0678 15.3704 21.5543 15.6171 21.6314C15.9039 21.721 16.1932 21.8062 16.4885 21.9053C16.6955 21.9748 17.2503 22.0994 17.3704 22.1746L18.9612 22.576C18.9976 22.5903 18.9875 22.5883 19.0072 22.6038C19.0179 22.6053 20.679 22.9402 20.7719 22.99C20.8221 22.9959 20.8753 23.0007 20.9253 23.007C21.0275 23.0198 21.0319 23.0139 21.0788 23.0758L21.1045 23.0565C21.1977 23.0653 21.248 23.0777 21.3354 23.0892C21.3686 23.0936 21.4264 23.0983 21.448 23.1046C21.5743 23.1413 21.5022 23.1137 21.5373 23.1616L21.5648 23.1402L23.2518 23.3762C23.8168 23.4537 24.4147 23.4868 24.9832 23.5555C26.0006 23.6787 27.6774 23.6539 28.6999 23.5475C29.0696 23.5091 29.6394 23.4745 30.0028 23.4243C30.1394 23.4055 30.273 23.3752 30.4141 23.3643L32.072 23.1174C32.3317 23.0577 32.6055 23.0195 32.8699 22.9677L34.0256 22.7196C34.2666 22.6605 35.0798 22.4599 35.2221 22.4535C35.3264 22.4954 35.2731 22.4691 35.278 22.4535C35.3419 22.3867 35.2945 22.4221 35.4144 22.3945C35.4622 22.3835 35.5087 22.3687 35.547 22.3574C35.6276 22.3336 35.7468 22.3046 35.8378 22.2819L36.8928 21.9815L37.0421 21.9411L37.2713 21.8742L37.8565 21.6822C37.862 21.6792 37.8704 21.6693 37.8733 21.6737L38.0044 21.6272C38.56 21.4408 39.2545 21.2144 39.7724 21.0122C39.8968 20.9637 40.2876 20.7993 40.414 20.7799L42.2044 20.0288L43.037 19.6345C43.1667 19.5777 43.2962 19.5034 43.4426 19.438C43.561 19.385 43.7444 19.2653 43.8742 19.2349L43.9945 19.192L44.0011 19.192C44.0516 19.1317 44.0516 19.1414 44.1225 19.1105C44.1765 19.0609 44.3634 18.9597 44.4547 18.938C44.5096 18.9017 44.5495 18.8788 44.613 18.8513L44.6925 18.8089L44.77 18.7659L44.8447 18.7248L45.0019 18.6361L45.1506 18.5536L45.2288 18.5078L45.3777 18.4203L45.6164 18.2751C45.6466 18.2187 45.6318 18.1984 45.776 18.2112C45.77 18.3779 45.7277 18.3273 45.699 18.3457ZM45.2219 18.1617L44.8816 18.3549L44.6543 18.4814L44.5772 18.5244C44.4786 18.5904 44.3025 18.6888 44.1991 18.7174C44.1243 18.6828 44.1623 18.6948 44.17 18.7199C44.1657 18.7255 44.16 18.7276 44.1571 18.737C44.146 18.7744 44.0437 18.8103 44.0128 18.8231L43.8835 18.8879L43.8092 18.9282L43.6826 18.9983L43.5595 19.0609C43.4818 19.1285 43.0215 19.3423 42.946 19.3595L42.5366 19.5549C42.4534 19.6357 41.738 19.9218 41.6672 19.9388L41.4401 20.039L41.3452 20.1056C41.2567 20.1465 41.0842 20.2191 40.987 20.2115C40.987 20.169 40.9749 20.1797 41.0001 20.1359C41.0446 20.0587 41.0497 20.0855 41.0869 20.0792C41.1041 20.0208 41.3572 19.6711 41.4203 19.6365L41.5929 19.409L41.6434 19.3484C41.772 19.1585 42.1829 18.8234 42.415 18.7414L42.6689 18.6342C42.7705 18.5805 42.9472 18.5292 43.0993 18.5064L43.0995 18.5268C43.1496 18.4502 43.0751 18.4994 43.301 18.4345C43.4728 18.385 43.8345 18.2716 43.9945 18.2479L43.9947 18.2692C44.0586 18.2097 44.004 18.2383 44.1682 18.1972C44.2224 18.1837 44.2908 18.1667 44.3504 18.1549C44.4728 18.1305 44.5826 18.0986 44.7166 18.0764C44.9435 18.0387 45.2863 17.9272 45.5035 17.9471C45.4873 18.0317 45.3633 18.0889 45.2219 18.1617ZM9.15975 18.1406C9.2997 18.1682 9.41757 18.1786 9.51694 18.2264L10.0025 18.3552C10.3848 18.4184 10.7968 18.5831 11.1141 18.6952C11.209 18.7185 11.1885 18.7038 11.2577 18.7648L11.2767 18.787L11.3885 18.8479C11.4873 18.8737 11.4308 18.8478 11.5187 18.9091C11.5634 18.9402 11.5864 18.9547 11.6286 18.9883C11.6943 19.0405 11.7622 19.0963 11.8086 19.1746C11.895 19.2974 12.0454 19.4048 12.1496 19.5849L12.2236 19.6902C12.2708 19.7314 12.2322 19.6793 12.2765 19.7544L12.3832 19.9067L12.4287 19.971L12.4797 20.0302C12.5284 20.0635 12.5075 20.0381 12.5408 20.0938C12.5927 20.1197 12.6227 20.1106 12.6328 20.2173C12.4544 20.233 12.4822 20.1865 12.4703 20.172L12.3834 20.1371L12.0535 19.9988C11.9525 19.9699 11.2993 19.7034 11.2122 19.6077C11.1364 19.5953 11.2304 19.6479 11.1308 19.5781L10.801 19.4279C10.6787 19.395 9.85603 18.9854 9.64824 18.8703C9.55792 18.8201 9.61313 18.8556 9.57453 18.8058L9.47437 18.7603C9.42394 18.7406 9.39459 18.7267 9.34765 18.6961L9.18959 18.6082L9.11857 18.5672L9.03283 18.5236C8.91943 18.4963 8.55598 18.282 8.50246 18.2268L8.50336 18.2247L8.42518 18.1798L8.32064 18.1159L8.24802 18.0759C8.15472 18.0318 8.1225 18.0251 8.10748 17.9442C8.27369 17.9335 9.04387 18.0903 9.15975 18.1406ZM44.1264 15.3082C44.2778 15.3261 44.3996 15.212 44.5322 15.2222C44.5845 15.1686 44.4958 15.216 44.6151 15.1649L45.278 14.879C45.342 14.8344 45.4847 14.7508 45.5843 14.708C45.7217 14.6624 45.7539 14.7378 45.8357 14.815C45.9016 14.877 45.9564 14.9254 46.0187 14.9831C46.12 15.0771 46.3125 15.2342 46.3958 15.3319C46.4284 15.3526 46.4218 15.347 46.4461 15.3748C46.4784 15.3959 46.4737 15.3921 46.497 15.423L46.6158 15.5156C46.6999 15.5488 46.6547 15.5276 46.7186 15.5772C46.7795 15.6244 46.7713 15.5979 46.7961 15.6597C46.8666 15.6952 46.889 15.7157 46.9355 15.7788L46.9646 15.8017L47.0804 15.8954C47.1416 15.9176 47.5118 16.2004 47.5573 16.285L47.7535 16.4459C47.8315 16.4872 47.9718 16.5802 48.0188 16.6599C47.9935 16.767 47.8125 16.8923 47.7243 16.9175C47.6837 16.9748 47.7112 16.9528 47.6448 16.9972C47.4754 17.1105 47.129 17.309 46.9394 17.3522C46.8265 17.4098 46.6603 17.4639 46.5009 17.4458C46.3767 17.379 46.0538 17.0547 45.9019 16.9264C45.6921 16.7491 45.5044 16.5992 45.2848 16.4356C44.8588 16.1183 44.414 15.8169 43.9627 15.5247C43.875 15.496 43.8619 15.4946 43.8292 15.4154C43.8979 15.3485 44.022 15.3296 44.1264 15.3082ZM9.70205 15.4817C9.655 15.5165 9.70732 15.4865 9.64038 15.518L9.40613 15.6677L9.17974 15.8173C9.0943 15.9013 8.89586 16.021 8.79231 16.0931C8.67474 16.175 8.51092 16.2824 8.41901 16.3698C8.36898 16.4361 8.16069 16.5878 8.07256 16.6234L8.04113 16.6472C7.99965 16.7309 7.82061 16.8571 7.75019 16.9139C7.69389 16.9593 7.66375 16.9862 7.60984 17.0324C7.57602 17.0613 7.57005 17.0718 7.53832 17.0999C7.46392 17.1655 7.52201 17.1295 7.4302 17.157L7.34247 17.2333C7.28487 17.3125 7.18391 17.4088 7.08922 17.4582C6.89595 17.4676 6.44914 17.2851 6.32759 17.1922L6.21947 17.1322L5.88486 16.9175C5.84746 16.9118 5.86874 16.922 5.8394 16.8937L5.66643 16.7764C5.43198 16.6635 5.64305 16.5655 5.98453 16.3126L7.32973 15.2028L7.7108 14.8561C7.74869 14.787 7.86249 14.695 7.93321 14.6523C8.05774 14.6682 8.09196 14.7187 8.18844 14.7722C8.26961 14.8172 8.36619 14.8534 8.44418 14.9236C8.55478 15.0002 9.22848 15.2873 9.41329 15.297L9.72165 15.3747C9.8058 15.4152 9.75188 15.3662 9.77675 15.4368C9.72821 15.5093 9.7681 15.4553 9.70205 15.4817ZM14.1225 15.1777C14.1099 15.2199 14.0868 15.2418 14.0408 15.2837L13.9643 15.3856C13.9502 15.4142 13.9513 15.4243 13.932 15.4467C13.8833 15.5031 13.9156 15.4675 13.8667 15.4959C13.8399 15.4927 13.8234 15.456 13.86 15.5227C13.8372 15.5856 13.8243 15.6035 13.7898 15.647C13.7713 15.7319 13.6937 15.8511 13.6465 15.9365C13.5932 16.0326 13.5553 16.1394 13.5085 16.2297C13.2033 17.136 13.0861 17.5798 13.1766 18.5697C13.2191 19.0352 13.4234 19.7333 13.6843 20.1379L13.9609 20.5602C14.0106 20.5899 13.963 20.5456 14.0228 20.6069C14.0713 20.6565 14.1133 20.7133 14.1239 20.781C14.0227 20.7691 13.5077 20.5159 13.432 20.4093L13.2106 20.2738C13.1032 20.2309 13.0009 20.1639 12.9517 20.0769L12.8436 19.9395C12.7335 19.8775 12.5241 19.6 12.4858 19.4922L12.2657 19.2216C12.1402 19.0895 12.0669 19.0097 11.9594 18.9039C11.8561 18.8023 11.7379 18.7193 11.6093 18.6357L11.2332 18.4417C11.1851 18.4161 11.1434 18.4018 11.0805 18.3756C10.9882 18.3372 10.9687 18.3497 10.9058 18.2907C10.9108 18.2652 10.9465 18.2531 10.8744 18.2906C10.8598 18.2884 9.56817 17.9551 9.4678 17.9024L9.27096 17.8615L7.97498 17.6114C7.99776 17.5418 7.96981 17.5595 8.04441 17.5336C8.0655 17.5093 8.05297 17.5148 8.08161 17.4951L8.496 17.3038L8.64689 17.2194C8.7203 17.1838 8.77421 17.1527 8.82832 17.1534C8.86602 17.1117 8.83369 17.1291 8.90581 17.0906C8.93973 17.0726 8.95673 17.0688 8.98747 17.0532C9.07669 17.0084 9.08505 16.9898 9.18869 16.9819L9.51883 16.8364L9.52311 16.853C9.56299 16.8049 9.47755 16.8383 9.59572 16.795C9.65918 16.7358 10.2788 16.4791 10.3595 16.4431C10.6989 16.2923 12.5396 15.5489 12.799 15.5014L12.9718 15.4376L14.0623 15.0576C14.09 15.0359 14.0667 15.0336 14.1217 15.0191C14.1888 15.0013 14.175 15.0108 14.2456 15.0107C14.2268 15.1233 14.2415 15.1169 14.1225 15.1777ZM39.5613 15.0542C39.6232 15.0854 39.8517 15.153 39.9304 15.1789C40.0711 15.2253 40.1846 15.2703 40.3042 15.3105C40.4745 15.3677 40.9401 15.517 41.0531 15.5879C41.0903 15.6011 41.1303 15.6125 41.1614 15.6225C41.1902 15.6318 41.1938 15.6285 41.2178 15.6412C41.3006 15.685 41.2374 15.6453 41.278 15.6944C41.2725 15.7201 41.2371 15.7319 41.3091 15.6945C41.4397 15.7098 41.8134 15.8569 41.8971 15.909C42.0155 15.9424 42.3355 16.0626 42.4339 16.1236L42.6058 16.188C42.8025 16.2355 43.0449 16.3643 43.2414 16.4383C43.2708 16.4494 43.3088 16.4672 43.3383 16.4805L43.4317 16.5353C43.5303 16.5722 43.7489 16.6476 43.8117 16.7244L43.841 16.7247L43.9766 16.766L44.0711 16.8093L44.2981 16.9181L44.4294 16.9827C44.5596 17.0124 44.7039 17.0954 44.8039 17.1429C44.9006 17.1887 45.1015 17.267 45.1508 17.3351C45.2208 17.3412 45.1908 17.3309 45.2446 17.3737L45.368 17.435C45.4341 17.4602 45.5015 17.4927 45.5467 17.5183C45.6296 17.5567 45.6138 17.5433 45.6314 17.604C45.5144 17.6604 45.4542 17.6561 45.2974 17.6725C45.0986 17.6934 44.4951 17.8593 44.2453 17.8829C43.9588 17.9612 43.6645 18.0345 43.3719 18.1163C43.0928 18.1943 42.7862 18.2752 42.5109 18.3765C42.4167 18.4345 42.289 18.4738 42.1837 18.531C42.0733 18.5909 41.9897 18.6433 41.8742 18.7204C41.6647 18.8602 41.5579 19.0076 41.3689 19.1843C41.3342 19.2568 41.3359 19.2369 41.2953 19.2883C41.2724 19.3173 41.2833 19.3156 41.2569 19.3406C41.2177 19.3777 41.2404 19.359 41.1832 19.3875L41.0507 19.5783C41.0319 19.6275 41.036 19.6305 41.0069 19.672C40.9968 19.6863 41.0071 19.6747 40.9864 19.6966C40.9636 19.7207 40.9695 19.7113 40.9477 19.7282L40.8962 19.7883C40.7816 19.9961 40.3674 20.331 40.1277 20.4339L39.8319 20.618C39.7913 20.6787 39.8465 20.624 39.7934 20.6666C39.7614 20.6922 39.5197 20.8074 39.4536 20.8107C39.4549 20.7647 39.4639 20.7564 39.4778 20.7262C39.5181 20.6393 39.5045 20.6538 39.5711 20.6297L39.6249 20.589L39.6984 20.4886L39.8562 20.2688L40.0304 19.9696C40.0552 19.8758 40.132 19.7223 40.1769 19.6217C40.225 19.5146 40.2728 19.3595 40.3021 19.2461C40.3789 18.9492 40.4044 18.7179 40.4502 18.4071C40.5007 18.0639 40.4497 17.818 40.421 17.4967C40.4088 17.3603 40.3886 17.2017 40.3577 17.0704C40.3289 16.9482 40.2705 16.7677 40.2606 16.655C40.2215 16.5887 40.1564 16.3596 40.1177 16.2602C40.0737 16.147 39.9897 16.0106 39.9537 15.8872L39.9334 15.8859L39.8523 15.708L39.8028 15.6269C39.7673 15.5875 39.7268 15.5261 39.7016 15.4739L39.6467 15.3885L39.6027 15.3244L39.5467 15.2583L39.4993 15.2008L39.4538 15.1643L39.369 15.0884C39.3479 15.0545 39.3435 15.0461 39.3531 14.9986C39.4016 14.9964 39.401 14.9915 39.4518 15.0013L39.5613 15.0542ZM41.5178 13.7847L41.623 13.7245C41.6683 13.6871 41.6201 13.7151 41.6962 13.6788C41.8281 13.5605 42.1075 13.4286 42.2044 13.3076C42.2553 13.2352 42.5766 12.9575 42.6831 12.9228C42.8411 12.742 43.063 12.5988 43.2528 12.377C43.3404 12.3623 43.3119 12.3491 43.3881 12.39C43.4869 12.4291 43.4766 12.4492 43.5386 12.515C43.584 12.563 43.6288 12.5906 43.6741 12.639C43.7618 12.7325 43.8768 12.8233 43.9216 12.9192L44.1337 13.1347C44.2295 13.1724 44.529 13.4791 44.566 13.5584L44.7599 13.7659L44.9547 13.9483C45.0317 13.9725 44.9822 13.9381 45.0449 13.9993C45.12 14.0726 45.4335 14.3848 45.4277 14.4283C45.3828 14.501 45.3335 14.536 45.2336 14.5619L44.9571 14.7053L44.8379 14.7667L44.8091 14.7905C44.5502 14.9511 44.0126 15.1028 43.6883 15.162C43.4551 15.2046 43.4127 15.217 43.253 15.0918L43.0284 14.9606L42.9928 14.9431C42.9034 14.9195 42.9806 14.9582 42.9198 14.9239C42.8691 14.8955 42.8918 14.9143 42.8627 14.8664L42.4904 14.6619L42.2101 14.5141C42.1206 14.4917 42.0386 14.4393 41.9561 14.3974C41.8801 14.3588 41.7924 14.3117 41.7231 14.2744C41.6487 14.2344 41.2768 14.0687 41.2368 14.0275L41.1791 14.0054C41.2039 13.9122 41.2142 13.9289 41.3156 13.8769C41.3803 13.8437 41.4367 13.8071 41.5178 13.7847ZM11.1466 14.6428L11.0709 14.6807L10.9933 14.7235L10.9178 14.7658L10.6113 14.939L10.5918 14.9435C10.5574 14.9873 10.5878 14.9604 10.5503 14.9915C10.5396 15.0005 10.5078 15.0186 10.4911 15.0283C10.4372 15.0597 10.4114 15.0743 10.3374 15.094L10.3071 15.113C10.1878 15.207 10.1191 15.2141 9.95947 15.1578C9.92794 15.1541 9.8802 15.1514 9.85125 15.1466C9.83136 15.1433 9.79824 15.1385 9.78073 15.1312C9.72403 15.1075 9.76302 15.1296 9.7306 15.0935C9.71717 15.0747 9.74631 15.0752 9.68056 15.0655C9.63491 15.0586 9.65053 15.0561 9.59562 15.0717C9.43846 15.052 9.26111 14.9996 9.16582 14.9431L8.90511 14.8574C8.79719 14.8217 8.69354 14.775 8.63147 14.7035L8.42458 14.5749L8.35028 14.5338C8.08957 14.4217 8.28722 14.3172 8.55548 14.0496C8.65007 13.9551 8.83051 13.7531 8.93306 13.6803L9.19228 13.4241C9.23604 13.3621 9.29483 13.3093 9.36644 13.2508L9.64575 12.9666C9.6734 12.8933 9.64505 12.9329 9.70653 12.8689C9.71399 12.8612 9.73338 12.8416 9.74224 12.835C9.78252 12.8052 9.76034 12.8182 9.80669 12.8032C9.82549 12.7419 10.046 12.5291 10.1187 12.4645C10.3488 12.2604 10.2793 12.3186 10.5326 12.5272C10.594 12.5777 10.7116 12.689 10.763 12.7619L10.7845 12.7912C10.8852 12.8232 11.1898 13.1285 11.4106 13.2909L11.4961 13.3883L11.5015 13.3913C11.5781 13.4201 11.6307 13.4498 11.6926 13.5175C11.8424 13.625 12.0352 13.7602 12.2116 13.846L12.3064 13.8911C12.3889 13.9463 12.3854 13.9067 12.4096 13.9992L12.3568 14.0208C12.3093 14.0821 12.3337 14.0683 12.2171 14.1194C12.0059 14.212 11.2637 14.6193 11.1466 14.6428ZM33.5039 13.4629C33.6847 13.4653 34.7321 13.7035 34.9755 13.7581L36.2955 14.0811C36.394 14.1234 36.3425 14.0771 36.3728 14.1494C36.4031 14.1778 36.4227 14.1729 36.4816 14.1868C36.563 14.206 36.5508 14.2134 36.6288 14.1959L36.8756 14.2578L37.1816 14.3426C37.3435 14.3615 37.5325 14.4304 37.6791 14.471C37.85 14.5181 37.996 14.5561 38.1708 14.6151C38.3763 14.6844 38.4601 14.6887 38.6171 14.7974C38.6812 14.8418 38.8928 14.9973 38.9403 15.0672C39.0321 15.1035 38.9742 15.0633 39.0387 15.1324C39.0766 15.1729 39.0846 15.1835 39.1106 15.2396L39.1861 15.3321L39.3368 15.5283L39.4112 15.6369L39.4656 15.7159L39.6898 16.1043C40.1428 17.1177 40.1843 18.0896 39.9234 19.1587C39.8996 19.2561 39.8232 19.5587 39.7488 19.621C39.7225 19.7439 39.6735 19.8502 39.6205 19.9383C39.5514 20.0717 39.4845 20.2224 39.3891 20.3247C39.3589 20.3842 39.3591 20.3866 39.3094 20.4323C39.2552 20.5248 39.1682 20.5971 39.1222 20.6674C39.0668 20.7665 38.8893 20.9309 38.7455 20.9837L38.6168 21.0531C38.5218 21.1407 38.284 21.2332 38.1051 21.2946L37.9586 21.3375C37.9426 21.3497 37.9463 21.3523 37.9189 21.3671C37.8066 21.4273 35.9927 21.9552 35.8843 21.9598L35.58 22.0456L34.6561 22.2817L34.1735 22.3889C34.063 22.3446 34.1237 22.3748 34.1222 22.389C34.0554 22.4535 34.0465 22.4356 33.9388 22.4588L33.3502 22.5946C33.1476 22.6285 32.7194 22.7509 32.5091 22.7342C32.5232 22.6235 32.7336 22.4741 32.8597 22.3381C32.9698 22.2194 33.1114 22.0386 33.2303 21.9386L33.2811 21.8801L33.5087 21.5793C33.6242 21.3798 33.7653 21.213 33.8856 21.0114C33.9497 20.9038 34.0083 20.7998 34.0594 20.708C34.0998 20.6353 34.1742 20.4649 34.2248 20.3953C34.2723 20.2268 34.3752 20.0599 34.4346 19.8907C34.8811 18.6192 34.9964 17.4605 34.6138 16.1618C34.5693 16.0111 34.4436 15.7365 34.4294 15.5871C34.4429 15.5407 34.4561 15.5229 34.4037 15.477C34.3519 15.446 34.3833 15.486 34.3526 15.4347C34.3385 15.4111 34.3379 15.3973 34.3333 15.3725L34.3526 15.3724L34.3036 15.3734C34.2493 15.227 34.1722 15.1223 34.1078 15.0037C34.0405 14.88 33.946 14.756 33.8923 14.6428L33.6877 14.3604L33.5877 14.2311L33.5138 14.1456C33.4353 14.0814 33.3558 13.9787 33.286 13.9072C33.208 13.8273 33.1409 13.7565 33.0594 13.6855C32.9664 13.647 32.9688 13.627 32.8886 13.5537C32.8015 13.474 32.7845 13.4865 32.742 13.3994C32.7012 13.356 32.7264 13.3949 32.709 13.3282C32.8745 13.3225 33.3606 13.4205 33.5039 13.4629ZM20.3883 13.8275L20.2304 13.9932L20.0774 14.1663L19.9998 14.2542L19.9479 14.3137L19.9023 14.3796C19.8353 14.514 19.7053 14.6525 19.6104 14.803C19.5254 14.9378 19.4287 15.1533 19.3396 15.2647C19.2863 15.4183 19.2091 15.5497 19.1525 15.6866C19.1005 15.8124 19.0456 16.0559 18.9816 16.1449C18.9685 16.2995 18.8959 16.4697 18.8717 16.6326C18.8458 16.8071 18.7978 16.9744 18.7845 17.153C18.718 18.0438 18.7675 18.4826 18.9857 19.3376C19.056 19.6129 19.2923 20.162 19.3141 20.2657L19.5443 20.7155C19.619 20.8052 19.6904 20.9541 19.7556 21.0588L19.8037 21.1364L19.8512 21.236L20.0249 21.4963L20.1014 21.6022L20.1527 21.6633L20.2052 21.7293L20.2582 21.7932L20.3603 21.9233L20.4318 22.0069C20.4992 22.0603 20.8535 22.4386 20.8988 22.5004L20.9331 22.518C21.0143 22.5648 20.9874 22.5592 21.0431 22.6124C21.0952 22.6622 21.1159 22.663 21.1115 22.7563C20.8247 22.7641 20.8663 22.714 20.845 22.6913C20.7121 22.7041 18.7523 22.2598 18.6017 22.1953L18.1189 22.0671L17.5555 21.9169L16.9622 21.7453C16.7375 21.7063 15.8059 21.413 15.6375 21.3362C15.5318 21.3095 15.3417 21.2544 15.2758 21.2085C15.0992 21.1209 14.9041 21.0343 14.7945 20.9258C14.6977 20.8734 14.5197 20.7167 14.4589 20.6243L14.3817 20.536L14.3327 20.4746C14.2889 20.4348 14.3207 20.4788 14.2814 20.4095L14.1748 20.2647C14.0387 20.1426 13.8218 19.584 13.7704 19.4484C13.5057 18.7501 13.4523 17.5776 13.654 16.8503C13.6799 16.7571 13.7028 16.7064 13.7269 16.616C13.7398 16.568 13.7445 16.5365 13.7602 16.4894L13.8157 16.3811C13.9187 16.0337 14.0744 15.8493 14.2186 15.5767C14.2493 15.4998 14.2327 15.5163 14.3044 15.4598L14.3517 15.4113C14.3805 15.3341 14.3308 15.403 14.3751 15.3503C14.431 15.284 14.3759 15.3317 14.4462 15.3039C14.5029 15.1916 14.8166 14.9189 14.9154 14.8584C15.052 14.6659 15.9889 14.4475 16.233 14.3784C16.4711 14.3109 16.7238 14.2333 16.9419 14.1809C17.117 14.1388 17.5182 14.0091 17.6853 13.9993L18.0445 13.914L18.5726 13.7847C18.7259 13.7138 20.7327 13.301 20.9171 13.3206C20.9085 13.4268 20.7584 13.4987 20.6757 13.5754C20.5938 13.6512 20.4791 13.7872 20.3883 13.8275ZM26.4706 12.827L26.6107 12.8515C26.6443 13.0587 26.5518 13.4496 26.6449 13.5986C26.7129 13.6895 26.9245 13.6838 26.98 13.5898C27.0127 13.5343 26.9614 13.0169 26.9917 12.9106C26.9933 12.9048 26.9954 12.8991 26.9974 12.8938C27.0074 12.8673 27.0171 12.8594 27.0241 12.85C27.1523 12.7861 28.1289 12.7996 28.3214 12.8372C28.3229 12.927 28.1803 13.2589 28.1377 13.3118C28.1424 13.3596 28.149 13.3068 28.1388 13.3777L28.0965 13.5499C28.0932 13.6929 28.2315 13.7216 28.3359 13.6307L28.4026 13.58L28.4911 13.3339C28.5023 13.2261 28.6441 12.9421 28.7004 12.8648C28.8427 12.8247 30.018 12.9074 30.1423 12.9478C30.1534 13.0454 29.9467 13.3246 29.8735 13.3983C29.7928 13.5362 29.5835 13.7549 29.6322 13.9563C29.7022 14.0068 29.7316 14.0339 29.8559 13.9995C29.9743 13.8906 30.0476 13.6964 30.1587 13.5552C30.2588 13.3731 30.4135 13.1673 30.5418 13.0199C30.6489 12.9995 30.7673 13.0154 30.8603 13.0183C30.9684 13.0142 31.6536 13.1132 31.7572 13.1512C31.7618 13.245 31.5985 13.393 31.5011 13.4269C31.4046 13.5345 31.2519 13.6631 31.1362 13.7685C31.0735 13.8257 31.0153 13.8779 30.9547 13.9382C30.9036 13.9891 30.8355 14.0701 30.7677 14.124L30.6411 14.2729C30.5969 14.3732 30.6222 14.4628 30.7287 14.4824C30.8621 14.5069 30.9195 14.4133 30.9826 14.3713L31.1375 14.1984L31.5395 13.8139C31.6162 13.7177 31.9722 13.3734 32.1019 13.3316C32.2428 13.367 32.8246 13.8473 32.9202 13.9783C32.9949 14.0406 33.0735 14.0936 33.0767 14.1923C33.0068 14.2636 32.7433 14.354 32.6353 14.4079L32.3089 14.5719L31.9659 14.728L31.7348 14.852C31.6833 14.9033 31.631 14.9146 31.5994 14.9779C31.5943 15.2031 31.694 15.1651 31.8922 15.1142C31.9751 15.0684 31.985 15.0495 32.0838 15.0097L32.2043 14.9477C32.2555 14.8862 32.3729 14.8427 32.4599 14.8145C32.5014 14.7764 32.8475 14.6153 32.9221 14.582C32.9959 14.5491 33.0863 14.5143 33.1785 14.4746C33.3096 14.4182 33.3558 14.4186 33.4049 14.5356L33.4803 14.6216C33.5617 14.7061 33.8339 15.1262 33.8665 15.2438L33.9267 15.39L33.7386 15.4368C33.5524 15.514 32.7285 15.6993 32.3423 15.8378C32.1917 15.8918 31.9706 15.9409 32.0655 16.1097C32.0734 16.1164 32.0689 16.1341 32.1295 16.1511C32.2233 16.1777 32.3171 16.1389 32.4112 16.1236C32.4821 16.0803 32.5718 16.0622 32.6683 16.0378C32.7797 15.9825 33.2211 15.8685 33.3823 15.8447C33.5046 15.7932 33.9328 15.6577 34.0816 15.6854C34.129 15.7592 34.234 16.0823 34.2501 16.1878C34.1905 16.3145 34.2453 16.2543 34.2503 16.2576C34.3189 16.2801 34.3505 16.5032 34.3679 16.5824C34.3821 16.6466 34.4494 16.9011 34.3905 16.9497C34.3839 16.9522 34.3742 16.9497 34.3703 16.9566L33.892 16.9759C33.5393 16.9907 33.2479 17.0455 32.9676 17.0666C32.798 17.0793 32.6467 17.0875 32.4765 17.1089L32.3801 17.1507C32.0508 17.5798 33.3547 17.2842 33.7896 17.2608L34.4385 17.2743C34.5562 17.3169 34.4822 18.2607 34.4437 18.4471C34.4314 18.5067 34.4256 18.5528 34.3781 18.6067L32.9465 18.429C32.7398 18.408 32.4677 18.3204 32.2298 18.3527C32.1048 18.3696 32.0367 18.4846 32.1298 18.5681C32.182 18.6148 32.3516 18.6221 32.4345 18.6321C32.6653 18.6438 34.1508 18.8486 34.3564 18.9082C34.3825 19.1498 34.005 20.221 33.8667 20.344C33.7598 20.3362 33.4911 20.1805 33.4548 20.1259C33.4012 20.1195 33.4337 20.1381 33.3612 20.093C33.2464 20.0622 33.1163 19.9797 33.0074 19.933C32.9334 19.9012 32.9008 19.8872 32.8393 19.8595C32.7438 19.8163 32.7446 19.8387 32.6647 19.769L32.5698 19.7282C32.4487 19.6883 32.3403 19.6447 32.2555 19.5728C32.1555 19.5296 32.2183 19.5537 32.187 19.5138C32.1889 19.4892 32.2257 19.4759 32.1531 19.5137C32.0284 19.477 31.8766 19.3893 31.7616 19.3484C31.5788 19.2831 31.4718 19.3751 31.4954 19.5324C31.5988 19.6128 31.8077 19.6658 31.9467 19.7499C32.0419 19.7745 32.1373 19.835 32.2289 19.8824C32.424 19.9832 32.4466 19.9592 32.511 20.0503C32.5059 20.0767 32.4428 20.0716 32.5367 20.0716C32.5703 20.1054 32.5289 20.0837 32.5879 20.0786L32.7354 20.1361L33.0483 20.2695C33.1593 20.2981 33.203 20.3288 33.2988 20.3773C33.4177 20.4376 33.4541 20.4421 33.5117 20.5199C33.753 20.5707 33.7437 20.7506 33.5853 20.8414L33.5852 20.8656L33.4803 21.0531L33.302 21.3125C33.2588 21.388 33.2661 21.3863 33.2017 21.4298C33.0831 21.4152 32.9863 21.3304 32.9296 21.2669L32.5037 21.0182L32.2482 20.8935C32.2422 20.8893 32.2249 20.8775 32.2196 20.8725C32.179 20.8346 32.2189 20.879 32.1805 20.8228L32.0567 20.7536L31.8768 20.6464L31.8036 20.6057L31.4406 20.3892L31.3691 20.3454L31.2911 20.3072L31.1899 20.2647C31.0854 20.2252 30.9552 20.1968 30.8945 20.2807C30.8083 20.4 30.9193 20.4426 30.9986 20.5009L31.2817 20.6547L31.383 20.7155L31.6366 20.8672L31.7883 20.9516C31.8865 20.9851 31.9097 21.0156 31.9799 21.0551L32.1195 21.1311C32.1678 21.1664 32.143 21.1483 32.1745 21.1874L32.2736 21.237L32.3763 21.2968L32.6316 21.4507L32.758 21.5381L32.8068 21.5657C32.8949 21.5942 32.9578 21.639 32.9996 21.7025C32.9834 21.7721 32.9343 21.8367 32.8648 21.874L32.4695 22.2939C32.4295 22.3688 32.3705 22.429 32.2937 22.4748L32.2958 22.4719C32.2485 22.5466 32.082 22.739 31.9986 22.5438C31.8658 22.384 31.7087 22.2476 31.5605 22.1137C31.4345 21.9999 31.1663 21.7915 31.0836 21.6738L30.9509 21.5319C30.9431 21.5284 30.9315 21.5162 30.9277 21.5213C30.9239 21.5261 30.9109 21.5137 30.906 21.5107L30.7855 21.4121C30.7338 21.3671 30.6989 21.3369 30.6479 21.2916C30.5491 21.2043 30.4943 21.111 30.2784 21.1217L30.207 21.1856L30.2348 21.3378C30.429 21.4262 30.7676 21.8418 30.9664 21.9815C31.0429 22.0308 31.3771 22.3269 31.4238 22.3932L31.6926 22.6743C31.717 22.698 31.7068 22.679 31.7184 22.7159C31.7854 22.7514 31.8366 22.7706 31.8316 22.8729C31.7138 22.929 30.6358 23.0907 30.4789 23.0833C30.4165 23.0272 30.1936 22.7458 30.1619 22.6681L30.0329 22.5103C30.0008 22.4759 29.9765 22.4415 29.9537 22.4068L29.9065 22.3395L29.8568 22.2785L29.8035 22.2107L29.7563 22.1472L29.673 22.0415L29.625 21.9734L29.5767 21.9159C29.5256 21.8705 29.4936 21.8304 29.4692 21.7669L29.4296 21.7513L29.2899 21.7232L29.1935 21.7859L29.1958 21.926L29.233 22.0089L29.282 22.0731L29.363 22.1811L29.4123 22.239L29.7489 22.6732L29.9515 22.9302L30.0014 22.9941C30.0664 23.0591 30.047 23.0432 30.045 23.1293C29.9002 23.1651 29.6065 23.1954 29.4426 23.2063C29.2861 23.2167 28.945 23.3134 28.8312 23.2243C28.7392 23.1224 28.4278 22.3888 28.3941 22.2175L28.4191 22.2128C28.3723 22.1843 28.4002 22.2171 28.3682 22.1725C28.3587 22.1593 28.3517 22.1381 28.3478 22.1228C28.2764 21.9765 28.227 21.8464 28.1387 21.7024C28.0537 21.6449 28.0525 21.6299 27.9116 21.6446C27.8251 21.7184 27.8199 21.7815 27.8719 21.8823C27.9184 21.9724 27.9457 22.0324 27.9841 22.1372L28.1108 22.4595L28.2893 22.8839C28.3504 22.9547 28.4504 23.1503 28.4369 23.2689C28.2518 23.3586 26.2022 23.3372 25.9637 23.334C25.8396 23.3324 25.2598 23.3033 25.1817 23.2847C25.1203 23.1832 25.2471 23.0296 25.3103 22.8666C25.3621 22.7329 25.42 22.6093 25.4746 22.4669C25.5262 22.3321 25.5949 22.1876 25.6417 22.0767C25.7013 21.9351 25.8311 21.7755 25.7075 21.6596C25.4194 21.5434 25.3499 22.0062 25.2474 22.1527L25.1197 22.4711C25.0772 22.6438 24.8598 23.1138 24.7694 23.2511C24.5691 23.2672 23.7075 23.174 23.5495 23.127C23.5509 23.039 23.5232 23.0768 23.592 23.0126L23.638 22.9542L23.6936 22.8884L23.9979 22.5035L24.0511 22.4377L24.0984 22.3719L24.1793 22.2652L24.2289 22.203L24.276 22.1354C24.3163 22.0635 24.5763 21.7772 24.3489 21.7206C24.1482 21.6705 24.0599 21.9254 23.9688 22.0024L23.7898 22.2387C23.7498 22.3325 23.6516 22.458 23.5599 22.5134C23.5487 22.5759 23.4846 22.6426 23.4278 22.6882L23.3806 22.7486C23.3278 22.8436 23.1856 23.0276 23.125 23.0734C22.9543 23.0845 22.5195 23.0142 22.3833 22.9684C22.2677 22.9662 21.8515 22.9054 21.7816 22.8735C21.7787 22.7948 21.7642 22.8267 21.8246 22.7762L21.9042 22.6932L21.9815 22.6122L22.1408 22.4382C22.1877 22.3632 22.403 22.1539 22.5205 22.1009L23.2295 21.4469C23.3334 21.3583 23.4241 21.3304 23.4007 21.1679C23.188 20.9958 22.9895 21.2581 22.8717 21.3613C22.7211 21.4934 22.5881 21.6241 22.4463 21.7608C22.3921 21.8485 22.1639 22.0405 22.0779 22.1112C22.0002 22.1751 21.9482 22.2245 21.8922 22.2775C21.8312 22.3353 21.7651 22.4082 21.6988 22.4534L21.6361 22.5261C21.6026 22.597 21.5973 22.5903 21.5393 22.626C21.3921 22.6113 21.2749 22.4701 21.2185 22.3862C21.1451 22.2896 20.9891 22.1876 20.9452 22.079C20.878 22.0605 20.7531 21.9022 20.7445 21.8575C20.6612 21.8336 20.6308 21.775 20.6097 21.7025C20.6681 21.6303 20.7688 21.5598 20.8642 21.524L21.0831 21.3838L21.343 21.2325L21.4115 21.1929C21.462 21.1328 21.56 21.087 21.6415 21.0629L21.6745 21.0426L22.0095 20.8476L22.1589 20.7621L22.3665 20.6347L22.4395 20.5918L22.5258 20.5466C22.6547 20.4086 22.7397 20.5335 22.7103 20.269C22.5462 20.1525 22.4033 20.2851 22.249 20.3484L21.9907 20.4972L21.9228 20.5516C21.8645 20.6114 21.8657 20.6043 21.7756 20.6317L21.735 20.6492L21.6583 20.6898L21.5807 20.7314L21.511 20.7763L21.3281 20.8834L21.2513 20.9269L21.0995 21.0133L20.8434 21.1647C20.7876 21.2112 20.5097 21.401 20.4395 21.4286C20.3868 21.4151 20.4053 21.4257 20.3692 21.3958L20.2903 21.2946C20.2114 21.2452 20.2754 21.2969 20.2211 21.2206L20.056 20.9738C19.9941 20.8736 19.874 20.7226 19.8922 20.6082L20.158 20.4815L20.363 20.3609C20.4156 20.3091 20.4743 20.2913 20.5532 20.2538C20.6144 20.2248 20.6948 20.1821 20.7659 20.164L21.0101 20.0735L21.1046 20.0302C21.1238 20.0137 21.1095 20.0143 21.1408 19.9986C21.2056 19.9662 21.134 19.9879 21.2323 19.969L21.3675 19.9008C21.4122 19.8749 21.4801 19.8421 21.5462 19.8163L21.6185 19.7768C21.722 19.7 21.8591 19.6477 21.9796 19.604C22.1824 19.5303 22.1515 19.4382 22.0311 19.3408L21.8358 19.3465L21.8041 19.3684C21.8006 19.3703 21.7924 19.3753 21.7878 19.3776L21.2581 19.6189L20.9442 19.7695L20.7968 19.8353C20.7256 19.8809 20.5996 19.9349 20.5058 19.9753C20.3875 20.0262 20.3185 20.0726 20.2007 20.1144L20.0787 20.1753L20.0047 20.2273C19.9496 20.2782 19.8407 20.3421 19.749 20.3621C19.6619 20.3066 19.6524 20.2712 19.6212 20.1769L19.5701 19.9858C19.4747 19.8846 19.2363 19.0845 19.259 18.9083C19.5217 18.8329 19.882 18.806 20.1742 18.7595C20.4739 18.7118 20.8198 18.6635 21.1107 18.6296C21.2607 18.6121 21.4915 18.6342 21.5135 18.5025C21.5679 18.1758 20.6134 18.4834 20.1326 18.4837C20.0574 18.4593 20.0522 18.454 19.9568 18.465C19.9512 18.4657 19.9038 18.4762 19.8975 18.4783C19.8218 18.5036 19.8703 18.4777 19.8512 18.5052C19.7356 18.5737 19.2411 18.6163 19.1891 18.6089C19.1302 18.4423 19.0312 17.3632 19.1549 17.2773C19.2521 17.1746 20.1115 17.286 20.2701 17.3094C20.4595 17.3373 20.6843 17.3293 20.8513 17.3538C21.0974 17.3898 21.2881 17.4436 21.2642 17.1876C21.1064 17.0858 21.0085 17.1027 20.7612 17.0807C20.6341 17.0693 20.2543 17.0197 20.1742 17.0259C20.0279 17.0311 19.2456 16.992 19.1632 16.9607L19.2327 16.5093C19.2699 16.4096 19.2429 16.4753 19.2755 16.4404C19.2954 16.2901 19.4556 15.8022 19.5444 15.6882C19.6916 15.6727 20.2132 15.8257 20.3841 15.8709C20.5316 15.9099 21.0699 16.0829 21.1553 16.0807C21.3021 16.114 21.3618 16.1713 21.5218 16.1298C21.5829 15.981 21.5241 15.9884 21.4115 15.891C21.2279 15.8083 20.8101 15.6887 20.5915 15.6358C20.3086 15.5673 19.9798 15.4858 19.6965 15.3956C19.6926 15.2783 19.8199 15.0673 19.8775 15.0095L19.9295 14.9256L19.9793 14.8427L20.1597 14.5812C20.2082 14.5048 20.2119 14.4942 20.2861 14.4454C20.3754 14.4526 20.4915 14.4952 20.542 14.5343C20.6397 14.5582 20.7236 14.5776 20.7816 14.6481L20.8811 14.6835C20.9749 14.702 20.9211 14.6669 20.9713 14.7292L21.0535 14.7776C21.107 14.7898 21.1203 14.7928 21.1587 14.8113C21.1655 14.8145 21.1833 14.824 21.1891 14.8277C21.2233 14.8498 21.2092 14.8409 21.2323 14.8643L21.3524 14.9268L21.4795 14.989L21.5722 15.0275C21.6216 15.043 21.6077 15.0287 21.6408 15.0495C21.7235 15.1015 21.6598 15.0496 21.6964 15.1087L21.7876 15.1482C22.0063 15.1595 22.0295 15.1297 21.9806 14.9492L21.8778 14.8524L21.8034 14.8145L21.3349 14.5785L21.0314 14.4234C20.9521 14.3929 20.9563 14.4039 20.9043 14.3425C20.911 14.3172 20.9479 14.3052 20.8743 14.3411L20.5278 14.207C20.5407 14.0949 20.5905 14.061 20.7225 13.9363L21.2042 13.5248C21.5873 13.2331 21.4646 13.2597 22.1949 13.9213C22.3062 14.0221 22.4097 14.1111 22.5149 14.2315C22.6099 14.3403 22.6843 14.4932 22.8999 14.4726L22.9746 14.4134C22.9921 14.2634 22.9441 14.2749 22.8715 14.1646L22.8208 14.1064C22.7759 14.0763 22.5501 13.8516 22.5113 13.8016L21.9135 13.2531C21.8435 13.2226 21.8732 13.2694 21.8415 13.1839C21.8828 13.1169 21.8553 13.1265 21.9626 13.127C22.2598 13.1343 22.7123 12.9888 23.0521 13.0121C23.0787 13.0389 23.0964 13.0554 23.1248 13.0981C23.1849 13.1404 23.5047 13.5815 23.534 13.6988C23.5119 13.7659 23.5123 13.7077 23.5352 13.764C23.5727 13.8567 23.5633 13.8008 23.5853 13.8083C23.6618 13.8568 23.6479 13.8587 23.6844 13.9422C23.7939 14.0267 23.8422 14.0538 23.9765 13.9563C24.0259 13.7341 23.8835 13.7043 23.8507 13.555C23.776 13.5129 23.5582 13.1768 23.5241 13.0865C23.4732 13.0303 23.4781 13.0523 23.4779 12.9692C23.5958 12.907 24.6952 12.8327 24.8896 12.8633C24.9579 12.9495 25.053 13.1133 25.0561 13.2019C25.0956 13.2342 25.0618 13.184 25.1087 13.2567L25.1868 13.4607C25.2229 13.5688 25.2336 13.5986 25.3111 13.6832L25.4723 13.6753C25.6602 13.4569 25.2229 13.0458 25.286 12.8315C25.4943 12.7842 26.2865 12.7818 26.4706 12.827ZM24.6523 12.5401C24.6451 12.5443 24.6354 12.5434 24.6303 12.5524C24.6253 12.5613 24.6146 12.5612 24.6076 12.5631C24.5695 12.5735 24.5728 12.5725 24.5326 12.5777L23.5852 12.6473C23.4519 12.6847 22.9656 12.7265 22.7864 12.7479C21.9776 12.8446 21.2077 12.9569 20.4134 13.1155L18.1741 13.5865C17.9472 13.6377 17.6527 13.7348 17.4217 13.763C17.3492 13.7404 17.2624 13.7452 17.214 13.7847C17.1786 13.8255 17.2223 13.8029 17.1634 13.8283C17.1309 13.8422 17.123 13.8406 17.0892 13.8451C17.0188 13.8273 17.0053 13.8328 16.9545 13.8435C16.9133 13.8522 16.9247 13.8508 16.9013 13.8614C16.8346 13.8912 16.8755 13.8643 16.8574 13.892C16.7835 13.968 16.3724 14.0519 16.2428 14.0876L14.3781 14.6428L14.3746 14.6582C14.0736 14.7359 13.7483 14.8528 13.4671 14.9539L12.5622 15.2651C12.5299 15.2928 12.5601 15.2777 12.5038 15.3017L11.3603 15.7157C11.2877 15.678 11.3247 15.6915 11.3243 15.7158L11.1556 15.801L8.94172 16.7672L8.84662 16.8259C8.67345 16.9059 8.13373 17.1819 8.03596 17.1973L8.03655 17.1852C7.98543 17.2675 8.0087 17.2105 7.91371 17.2705C7.88278 17.3036 7.92754 17.3167 7.72492 17.3471C7.73895 17.2309 7.7284 17.261 7.81703 17.2292C7.92237 17.1495 8.06023 17.0224 8.17571 16.9277L8.95325 16.333C9.04646 16.261 9.23256 16.1232 9.36933 16.0592L9.7305 15.8258L10.0372 15.6335L10.2169 15.5256L10.3944 15.4201L10.4695 15.3754L10.8789 15.1366L10.9598 15.0969L11.0347 15.0551L11.1124 15.0125L11.1864 14.9698C11.2334 14.9342 11.2351 14.931 11.2839 14.9218C11.3258 14.8642 11.2675 14.9127 11.3412 14.8626C11.3437 14.8609 11.4055 14.8293 11.4193 14.8217C11.4904 14.7822 11.4926 14.7751 11.589 14.7489C11.6718 14.6946 12.0315 14.5062 12.1531 14.4731C12.2274 14.5086 12.1896 14.496 12.1835 14.4713C12.2338 14.409 12.2265 14.4235 12.3067 14.3882L12.9007 14.1066L12.9972 14.0637C13.1002 13.9978 13.4868 13.8174 13.5905 13.806C13.6653 13.7246 13.6276 13.7719 13.7417 13.7225C13.7857 13.7034 13.8441 13.6766 13.8955 13.655C14.0155 13.6045 14.0833 13.5562 14.2249 13.5273L14.7648 13.3127L15.4525 13.0552L15.8617 12.905C16.0463 12.7963 18.4039 12.0635 18.6534 12.0467C18.7445 12.0068 19.1047 11.9169 19.203 11.893C19.398 11.8456 19.6 11.7902 19.7796 11.7532C20.1648 11.6741 20.5852 11.5543 20.9768 11.5102C21.4356 11.3444 23.8762 11.055 24.4798 11.0151C26.0106 10.9139 28.3069 10.9276 29.8233 11.0709L30.9998 11.2316L31.5812 11.3171L32.0497 11.4244L32.0763 11.403C32.4872 11.433 33.0685 11.5964 33.4776 11.6706C33.6653 11.7047 33.9365 11.7809 34.1288 11.8255C34.2347 11.8501 34.3699 11.8792 34.4713 11.9083L34.7872 12.0044C34.8005 12.0074 34.8491 12.0147 34.8623 12.02C34.9361 12.0497 34.8955 12.0299 34.9339 12.068C34.949 12.083 34.9201 12.0826 34.9874 12.0949C35.0881 12.1133 34.9977 12.1168 35.0943 12.0896C35.2981 12.1148 36.1935 12.3695 36.3178 12.4356C36.352 12.4441 36.3834 12.449 36.4115 12.4603C36.4191 12.4633 36.4419 12.4729 36.4488 12.4769C36.4986 12.5062 36.4629 12.4842 36.4978 12.5187L36.5009 12.4973C36.626 12.5097 36.7767 12.562 36.8904 12.6038L37.2424 12.7335L37.797 12.9268L38.6713 13.2509C38.7481 13.2742 38.717 13.2576 38.7718 13.2945C38.7762 13.2957 38.8264 13.3116 38.8273 13.3121C38.8781 13.3443 38.8376 13.3129 38.8757 13.3555C38.8747 13.3988 38.8429 13.3638 38.9067 13.3779C38.9653 13.3909 38.9114 13.3918 38.9817 13.3771C39.1404 13.4015 40.2331 13.8647 40.3371 13.9381L40.4105 13.9639C40.5416 14.0034 40.722 14.0956 40.8436 14.1532L41.2578 14.3661L41.6861 14.582L41.8921 14.6872L42.145 14.8205L42.2191 14.8619L42.3789 14.9452C42.4498 14.9733 42.5185 15.0094 42.5806 15.0551L42.6562 15.0968L42.8418 15.2036C42.9136 15.2376 42.8687 15.2119 42.9137 15.2473C42.9902 15.2784 42.9448 15.2549 42.9903 15.2892L43.1721 15.3985L43.2446 15.4385L43.4265 15.5442L43.8119 15.7828C44.0923 15.9261 45.2298 16.7274 45.3779 16.8963C45.4949 16.936 45.5887 17.0372 45.6796 17.1132L45.7526 17.2015C45.8048 17.2146 45.7667 17.1606 45.8427 17.2565C45.8672 17.2872 45.8692 17.2945 45.8741 17.337C45.7664 17.3391 45.6938 17.3081 45.6389 17.2384L45.2522 17.0452L45.1197 16.9771C45.0454 16.9586 44.9911 16.9311 44.9408 16.8958C44.8034 16.8633 44.6433 16.7632 44.5031 16.7015L44.1724 16.5517C44.1136 16.5263 44.1029 16.5154 44.0713 16.4882C43.972 16.4564 43.8382 16.3992 43.771 16.3564L43.6704 16.3165L42.8693 15.9732L41.0045 15.2623C40.6849 15.1381 40.3845 15.0429 40.0441 14.9276L39.0842 14.5785C39.093 14.5316 39.1195 14.5722 39.0561 14.5561C39.0019 14.5422 39.0481 14.5438 38.9817 14.5544C38.869 14.5374 38.7857 14.5169 38.7041 14.4712C38.5886 14.4549 38.3876 14.3842 38.2556 14.347C38.1252 14.3104 37.9234 14.2691 37.831 14.2137C37.4817 14.1375 37.1663 14.0212 36.8124 13.9353C36.6399 13.8934 36.4584 13.8332 36.2911 13.7966C36.1188 13.7588 35.8997 13.7176 35.7613 13.6535L35.0485 13.4841C34.9158 13.4774 34.271 13.319 34.0242 13.2743C33.3824 13.1584 32.5309 12.9579 31.8983 12.8962L31.1209 12.7761C30.9822 12.7591 30.9138 12.77 30.8233 12.7118L30.8231 12.7332C30.7731 12.7304 30.7181 12.7284 30.6686 12.7236C30.5586 12.713 30.5688 12.7288 30.5206 12.6689C30.4717 12.6313 29.2518 12.545 29.16 12.5408C28.346 12.5028 25.8451 12.4603 25.0162 12.5175C24.9513 12.522 24.8761 12.5178 24.8105 12.5175C24.7887 12.5173 24.7318 12.5172 24.7127 12.5197C24.6373 12.5298 24.6722 12.5124 24.6523 12.5401ZM42.5946 12.5867L42.4985 12.6845C42.4576 12.7589 42.4252 12.7748 42.3678 12.8275C42.2787 12.9093 42.29 12.9204 42.1878 12.9531L41.791 13.2649L41.4327 13.5052L41.2512 13.6101C41.1874 13.6572 41.1076 13.6958 41.0278 13.7161C40.9302 13.7035 40.9851 13.72 40.8934 13.7337C40.7897 13.7494 40.797 13.7302 40.6952 13.763C40.538 13.73 40.3941 13.6433 40.247 13.5824C40.108 13.5249 39.9211 13.4578 39.8263 13.3968L39.6264 13.3106L38.8817 13.012L38.4195 12.8538L38.2929 12.8018C38.3124 12.6955 38.508 12.6088 38.6152 12.5794L38.7316 12.5217C38.778 12.486 38.7304 12.5113 38.8085 12.478C38.8593 12.434 39.3212 12.1391 39.3702 12.1154L39.5445 11.9845L40.0833 11.534C40.1801 11.4517 40.2471 11.377 40.3354 11.2932C40.4136 11.2187 40.4931 11.1218 40.5963 11.0382L40.6727 10.9574L40.7494 10.87L40.8011 10.8069L40.8228 10.7801C40.8558 10.6838 40.9705 10.5234 41.0789 10.487C41.1896 10.5071 41.1035 10.4821 41.136 10.5388L41.15 10.5475L41.4561 10.7649L41.9371 11.1159C42.0416 11.1494 41.9414 11.1042 42.0015 11.1414L42.5766 11.6432L43.0036 12.029C43.1827 12.128 42.9365 12.3006 42.7549 12.4658C42.6714 12.5417 42.703 12.5475 42.5946 12.5867ZM10.7906 11.8718L10.8882 11.7746C10.9489 11.6599 11.6183 11.1016 11.7594 11.0382L12.0253 10.8387C12.0705 10.761 12.0705 10.7773 12.1453 10.7307C12.2053 10.6935 12.2189 10.6784 12.2955 10.6437L12.3611 10.6125C12.4068 10.5664 12.4521 10.5293 12.5368 10.5045C12.6392 10.5509 12.654 10.6171 12.7398 10.7193C12.8062 10.7983 12.8646 10.8515 12.9192 10.9352C13.0166 11.0232 13.0944 11.1208 13.1795 11.2076C13.2548 11.2845 13.399 11.4082 13.4574 11.4908L13.6477 11.6422C13.7264 11.6811 14.0353 11.919 14.0764 11.9975C14.2467 12.1145 14.4083 12.198 14.5548 12.3293L14.6251 12.3715L14.7316 12.433L15.1465 12.6665C15.2397 12.7195 15.2411 12.7036 15.2834 12.7761C15.2202 12.8644 14.8255 12.9791 14.7055 13.0287L13.5297 13.5068C13.4446 13.5436 13.0335 13.7541 12.9535 13.7418C12.9493 13.7483 12.9625 13.8272 12.767 13.8074C12.6277 13.7932 12.3653 13.6645 12.3019 13.5702C12.2079 13.5683 11.958 13.3592 11.8595 13.3125C11.7572 13.2656 11.3458 12.9273 11.2837 12.85L11.2246 12.7975C11.1357 12.7562 11.0338 12.6567 10.9904 12.5767L10.8011 12.3862L10.6482 12.2341L10.6332 12.2369C10.525 12.1749 10.4872 12.1221 10.5764 12.0336C10.6272 11.9832 10.6986 11.902 10.7906 11.8718ZM40.5731 10.5253L40.5118 10.6032L40.3853 10.7552C40.324 10.8526 40.0369 11.1626 39.9489 11.2266C39.8362 11.391 39.0499 12.0286 38.7985 12.1498L38.6189 12.2597L38.2068 12.4963L38.1371 12.5351L38.1105 12.5584C37.8909 12.7097 37.8915 12.6468 37.5566 12.5365C37.3608 12.4719 37.1035 12.3944 36.9391 12.3254L36.327 12.1323C36.0985 12.0812 35.8926 11.9959 35.6701 11.9449C35.5062 11.9074 35.1658 11.7789 35.02 11.7793L34.8056 11.713C34.8156 11.6002 34.9671 11.5056 35.0387 11.4422C35.0903 11.3966 35.1224 11.3652 35.1713 11.3175L35.2704 11.2274C35.3262 11.1925 35.2459 11.2324 35.3318 11.1991C35.3734 11.1766 35.352 11.1836 35.404 11.1456L35.5561 10.9982L35.8405 10.6975L35.9185 10.614L35.9675 10.5518L36.1685 10.2907L36.2965 10.1174L36.9885 8.93998C37.045 8.85502 36.9861 8.9177 37.0636 8.87096C37.0805 8.8698 37.1166 8.9207 37.0637 8.82798L37.2104 8.41106L37.2376 8.33311C37.2844 8.33428 37.265 8.32527 37.3138 8.33954C37.385 8.36023 37.3274 8.34137 37.3667 8.37768L37.4441 8.42149L37.6201 8.50619L38.0578 8.7225L38.1826 8.78617L38.9266 9.17365L39.0511 9.24099L39.2044 9.32611L39.2807 9.36567L39.4375 9.45305L39.6266 9.55603C39.6792 9.56896 39.6817 9.56354 39.7166 9.58657C39.7704 9.62195 39.7163 9.57447 39.7531 9.63731C39.7902 9.6545 39.7566 9.63264 39.7964 9.66493L40.0156 9.78928C40.0984 9.81206 40.0769 9.80421 40.1448 9.84786C40.1468 9.84919 40.2007 9.88583 40.2017 9.88675C40.2461 9.92781 40.201 9.87481 40.2385 9.93757L40.5525 10.1323C40.9386 10.2496 40.6394 10.4924 40.5731 10.5253ZM13.0983 10.1109C13.1492 10.0247 13.303 9.95001 13.3944 9.89042C13.4939 9.82558 13.6102 9.73311 13.7277 9.70365L13.7696 9.69005L13.9501 9.58231C14.0255 9.51839 14.6057 9.18666 14.7695 9.12875L14.8642 9.09103C14.943 9.12157 14.9004 9.10889 14.8929 9.08544C14.9222 9.04571 14.8844 9.06374 14.9632 9.01684C14.9877 9.00232 15.0134 8.99523 15.051 8.98171C15.1106 8.93723 15.0526 8.9641 15.1454 8.93973C15.2236 8.97202 15.1814 8.95817 15.1769 8.93522C15.211 8.88924 15.1649 8.92179 15.2338 8.87772C15.2606 8.86053 15.2689 8.86345 15.3054 8.8506L15.3836 8.81163L15.5069 8.74787L15.945 8.52764L16.0747 8.46689L16.2453 8.38093L16.3716 8.36015L16.6032 8.93539C16.6853 9.0266 16.8524 9.40014 16.9367 9.53583C16.9939 9.62796 17.0486 9.71742 17.1158 9.81565C17.1671 9.89067 17.2588 10.0027 17.2862 10.0817C17.3544 10.1269 17.5327 10.3623 17.5616 10.4445L17.5694 10.4657L17.62 10.5281L17.9048 10.8493L18.221 11.1455L18.7664 11.6099C18.8549 11.7395 18.7528 11.7172 18.7471 11.7223L17.9843 11.9177C17.8899 11.8912 17.977 11.8925 17.8758 11.913C17.827 11.9228 17.8458 11.9218 17.8278 11.9324C17.7708 11.9661 17.8207 11.9261 17.7983 11.9608C17.7093 12.03 17.2291 12.1552 17.1147 12.1738C17.04 12.1376 17.0788 12.1516 17.0815 12.1754C17.0491 12.2016 17.0845 12.1867 17.0297 12.2131C17.0086 12.2232 16.9995 12.2249 16.9734 12.2327C16.94 12.2426 16.8943 12.2512 16.8589 12.2611L15.8475 12.6126C15.6978 12.6714 15.6041 12.6567 15.5036 12.557L15.4349 12.5151C15.3781 12.4913 15.3836 12.4921 15.3389 12.4662C15.301 12.4442 15.3229 12.4638 15.2915 12.4373C15.249 12.4015 15.2886 12.4406 15.2513 12.3899L15.2477 12.3898C15.1147 12.3599 15.0659 12.2994 14.9791 12.267L14.6901 12.106C14.6459 12.0633 14.6904 12.1169 14.6539 12.0552C14.5743 11.9956 14.4697 11.9265 14.3759 11.8554C14.2933 11.7929 14.1871 11.6942 14.0896 11.6388C14.0032 11.5929 13.9858 11.5791 13.9435 11.516L13.7441 11.3126L13.5104 11.0772C13.4664 11.0406 13.4439 11.0179 13.4105 10.9696L13.2033 10.732C13.1649 10.6957 13.1899 10.7264 13.153 10.6716L13.078 10.5824C13.0356 10.5414 13.0041 10.4914 12.9653 10.4417C12.8974 10.3545 12.8874 10.3652 12.8828 10.2529L13.0983 10.1109ZM36.7796 8.52747L36.7309 8.63079C36.6892 8.8466 36.303 9.58632 36.167 9.72911L36.1154 9.80764L35.9888 10.0024L35.8149 10.2445C35.7778 10.3477 35.59 10.5899 35.5036 10.6102C35.4887 10.6807 35.2221 10.9377 35.1427 10.9916C35.0528 11.1106 34.5917 11.5033 34.5 11.55C34.4442 11.6463 33.928 11.4916 33.8458 11.4671C33.6764 11.4521 33.4131 11.3716 33.2325 11.339L31.9748 11.1016C31.8122 11.0711 31.4643 11.0401 31.351 10.9737C31.3551 10.8694 31.4626 10.7771 31.5421 10.7164L31.5627 10.6916L31.7864 10.3855C31.827 10.3506 31.7868 10.3814 31.8461 10.3493L32.4429 9.39505C32.4984 9.29782 32.544 9.12675 32.6389 9.06491C32.6339 9.01901 32.9628 8.27904 33.0138 8.13909C33.0764 7.96776 33.31 7.29613 33.2909 7.13582C33.2907 7.05136 33.3438 6.78148 33.3934 6.71622C33.5227 6.69552 34.0117 6.85658 34.0885 6.91926L35.1364 7.35288C35.2342 7.39352 36.0829 7.74661 36.1682 7.81955C36.2714 7.85618 36.8196 8.09344 36.8831 8.16278C36.9072 8.2868 36.8367 8.43517 36.7796 8.52747ZM16.9407 8.05196C16.9736 8.02075 16.9341 8.04253 17.0022 8.00448L17.1506 7.93721C17.3248 7.85918 17.6314 7.69528 17.7772 7.66507L17.9125 7.60708C17.9751 7.56443 18.0664 7.52638 18.1701 7.49775L18.2658 7.45636C18.3151 7.39727 18.4319 7.36631 18.5082 7.33627L18.9831 7.13381C19.0821 7.10118 19.148 7.06246 19.2498 7.03943C19.326 6.99654 19.7604 6.81286 19.8841 6.81085C19.9334 6.76112 19.9289 6.76654 20.0216 6.74209C20.1238 6.71522 20.107 6.71221 20.2201 6.72849L20.4253 7.59105C20.5176 7.89499 20.6 8.16445 20.7219 8.43726C20.7848 8.57771 20.8332 8.71257 20.8972 8.85002C20.9461 8.95525 21.0615 9.1648 21.0788 9.27855L21.0534 9.27871C21.173 9.3312 21.1167 9.32177 21.2059 9.47249C21.2479 9.54334 21.2793 9.59116 21.3238 9.67344C21.3829 9.7826 21.5038 9.97671 21.5709 10.0512L21.667 10.1791C21.686 10.2765 21.859 10.4398 21.9228 10.5485L22.0465 10.6949C22.1099 10.7378 22.1239 10.7688 22.1772 10.8258C22.2231 10.875 22.2635 10.8957 22.274 10.9737C22.1935 11.0174 21.2068 11.1844 21.0534 11.1882L21.0533 11.1668C21.0182 11.2217 21.0908 11.1971 20.8673 11.2458L20.2304 11.3599L19.6211 11.4886C19.5258 11.4543 19.6103 11.4684 19.5362 11.4821C19.471 11.494 19.5006 11.4952 19.4865 11.5102C19.438 11.5496 19.4881 11.5358 19.3521 11.5669C19.3033 11.578 19.2553 11.596 19.2115 11.5946C19.1327 11.5922 19.0455 11.5137 18.9979 11.4753C18.9028 11.3985 18.7024 11.2494 18.652 11.1454L18.6493 11.1417C18.5247 11.0926 18.4565 10.9963 18.3804 10.9204C18.3174 10.8577 18.228 10.7789 18.1672 10.6911L17.9093 10.389L17.8099 10.2607L17.7031 10.1102L17.659 10.0496C17.5728 9.97504 17.4394 9.76858 17.3962 9.66268L17.2427 9.40606C17.1682 9.31393 16.9624 8.9202 16.9359 8.76356C16.9852 8.67694 16.9547 8.72075 16.9357 8.71616C16.8893 8.6852 16.9203 8.72042 16.8868 8.67435C16.8854 8.67235 16.8666 8.6282 16.8645 8.62244C16.8546 8.59649 16.8455 8.56261 16.8342 8.52472C16.776 8.44786 16.7177 8.26059 16.7254 8.15653L16.9407 8.05196ZM32.9458 7.02299C32.9148 7.24814 32.8725 7.44576 32.7923 7.62543L32.689 7.96358L32.5621 8.30749C32.5419 8.52555 32.2771 9.03186 32.187 9.2213C32.1157 9.37151 32.046 9.48676 31.9532 9.6429C31.8818 9.76291 31.7471 9.94441 31.7157 10.0348C31.6241 10.1855 31.4909 10.3473 31.3797 10.4759L31.0621 10.8299C31.0158 10.8653 31.0411 10.8468 30.9809 10.8705C30.9136 10.9554 30.3579 10.8733 30.23 10.8504C30.0425 10.8168 29.6967 10.7919 29.4929 10.7789L27.9732 10.6811C27.9634 10.6121 27.9804 10.5924 28.0143 10.5496L28.2424 10.2228L28.2943 10.1434L28.3425 10.0555L29.0755 8.22312C29.0769 8.21402 29.0813 8.21152 29.0845 8.20585L29.2376 7.52546L29.3089 7.04702C29.3256 6.87328 29.34 6.92852 29.3653 6.8994L29.34 6.89681C29.3415 6.76329 29.4058 5.85624 29.4388 5.80233C29.484 5.75793 29.5719 5.77888 29.6319 5.79248L30.7673 6.0612C30.8942 6.08473 31.0328 6.09558 31.1284 6.1459L32.3018 6.40377C32.4447 6.43148 32.5345 6.45 32.6643 6.48163C32.7726 6.508 32.9186 6.52302 33.0061 6.57493C33.0386 6.72097 32.9912 6.90699 32.9458 7.02299ZM22.0834 6.23169L22.5368 6.12596C22.6222 6.07914 22.675 6.08423 22.7625 6.06679L24.0994 5.76569C24.2587 5.77496 24.2048 5.86684 24.2136 6.12437C24.2175 6.24371 24.2306 6.33968 24.2433 6.4475C24.2692 6.66832 24.303 6.88846 24.3064 7.11128C24.3558 7.39243 24.4214 7.86277 24.5184 8.13032C24.5469 8.20868 24.555 8.30207 24.5822 8.38001L24.8128 9.09086L24.9151 9.34714L25.0678 9.66969L25.1708 9.88692L25.2158 9.96945C25.2773 10.0356 25.3718 10.1941 25.401 10.3085C25.3565 10.3689 25.3705 10.3392 25.4012 10.3346C25.4499 10.3635 25.4197 10.3306 25.4672 10.3857C25.4857 10.4072 25.4816 10.411 25.4965 10.4419L25.5766 10.549C25.6324 10.6083 25.6181 10.5834 25.618 10.6811C25.311 10.7271 24.3946 10.7272 23.9265 10.7914C23.785 10.8108 23.6644 10.8135 23.5088 10.8271C23.3893 10.8375 23.2744 10.8665 23.1485 10.8798C22.7774 10.9191 22.6525 10.9788 22.4858 10.7325L22.3111 10.5375L22.2613 10.4772L22.0026 10.1514L21.8999 10.0079C21.8708 9.97938 21.8652 9.97337 21.8363 9.92831C21.7394 9.77751 21.5256 9.46014 21.4882 9.31936L21.2836 8.89074C21.1959 8.77499 21.1408 8.57362 21.0804 8.41506L20.9768 8.13917L20.8489 7.73042C20.7596 7.57453 20.5588 6.7864 20.6061 6.57493L22.0834 6.23169ZM27.8308 10.2655C27.7993 10.2613 27.8053 10.2083 27.8053 10.2871C27.7642 10.3159 27.7899 10.2801 27.8001 10.33C27.7696 10.4052 27.738 10.4585 27.6708 10.5171L27.6259 10.5814C27.5858 10.6419 27.589 10.624 27.5499 10.6712L26.1664 10.6816C26.0168 10.673 25.9689 10.6009 25.9154 10.4945L25.8397 10.3919C25.7636 10.3212 25.6874 10.1797 25.6315 10.0714C25.496 9.92789 25.271 9.36717 25.1697 9.12875C25.0402 8.8244 24.9238 8.42616 24.8484 8.08709C24.8014 7.87554 24.7682 7.74427 24.7346 7.52062C24.669 7.08291 24.5185 6.06729 24.5827 5.69309C24.7412 5.627 25.2585 5.5468 25.4779 5.54513L25.4782 5.56641C25.5614 5.45867 25.9051 5.47453 26.0361 5.45091C26.2571 5.4111 27.5476 5.39975 27.7929 5.48705C27.8574 5.50999 27.8183 5.49881 27.8543 5.52351L27.8564 5.50215C28.0909 5.50232 28.9025 5.61865 29.0436 5.70536C29.0867 5.99369 28.9894 6.68601 28.9526 6.9987C28.8332 8.01315 28.6161 8.86671 28.1329 9.81415L27.9377 10.1571C27.8959 10.2251 27.9147 10.2208 27.8308 10.2655ZM27.9998 1.25124C28.0292 1.2696 28.0206 1.26284 28.048 1.28471C28.1428 1.36073 28.1642 1.39929 28.2145 1.49025C28.5174 2.0392 28.8782 3.15755 28.8793 3.72119L28.8955 3.76308C28.8975 3.77068 28.8992 3.77618 28.901 3.78453C28.9059 3.80823 28.9041 3.8235 28.9064 3.84662C28.9112 3.89594 28.9101 3.88876 28.9191 3.93491C28.9756 4.22458 29.0803 5.15757 29.0416 5.3607C28.9458 5.38507 28.8822 5.38457 28.8028 5.33032C28.4641 5.28476 28.1302 5.1751 27.8008 5.1509C27.0765 5.09774 26.2856 5.05393 25.5673 5.1872C25.3837 5.22125 24.7164 5.37555 24.5914 5.36587C24.4599 4.9073 24.9164 2.28422 25.2248 1.85703L25.299 1.70748C25.319 1.61234 25.3701 1.53181 25.4137 1.45745C25.4603 1.37817 25.5575 1.30958 25.566 1.258C25.5956 1.10144 25.5982 1.01766 25.3961 1.02058C25.3313 1.04328 25.3156 1.13791 25.2247 1.2091C24.9402 1.54174 24.725 2.35741 24.5844 2.75055C24.5651 2.80446 24.5676 2.82165 24.553 2.86697C24.5333 2.92847 24.5528 2.88499 24.5312 2.91929L24.4804 2.96995L24.5059 2.99156C24.4928 3.16156 24.3336 3.84161 24.2932 4.1851C24.2703 4.37996 24.2608 4.63149 24.2228 4.81792C24.19 4.97882 24.2341 5.30862 24.1776 5.43555C24.1302 5.53211 24.0233 5.51533 23.8518 5.55456C23.7202 5.5846 23.6248 5.61147 23.4829 5.63067L21.9966 5.97616C20.4785 6.27709 20.5295 6.47203 20.4913 5.99661C20.4065 4.94043 20.4532 3.74798 20.823 2.73678C20.9336 2.43435 20.9873 2.56712 20.9648 2.3781L20.9214 2.35732C20.9143 2.35407 20.8913 2.34163 20.8833 2.3388C20.797 2.30842 20.7705 2.33003 20.6855 2.35632C20.6705 2.3771 20.6561 2.40614 20.6349 2.44286C20.613 2.48092 20.6238 2.46965 20.594 2.50053C20.4739 2.62562 20.6912 2.43986 20.5418 2.54084C20.5249 2.542 20.4889 2.4911 20.5417 2.5839C20.5237 2.70599 20.4498 2.91979 20.4094 3.05123C20.3744 3.16498 20.352 3.41775 20.2605 3.50221L20.2332 3.5688C20.1951 3.73629 20.1585 3.76116 20.2093 3.87132C20.1596 4.5598 20.0571 5.02664 20.1005 5.75802C20.109 5.90214 20.1572 6.23778 20.135 6.36246L20.0302 6.4031C19.9568 6.44992 19.814 6.48981 19.7161 6.53137L17.6703 7.41171L17.575 7.45461C17.4966 7.52571 17.3052 7.59022 17.1727 7.65573C17.0867 7.6982 16.8444 7.8248 16.7541 7.83782C16.7323 7.88873 16.7348 7.90617 16.6288 7.89974C16.5485 7.83932 16.5769 7.85601 16.55 7.76071C16.5311 7.69403 16.5063 7.66841 16.5074 7.60173C16.5052 7.46303 16.4546 7.30264 16.4291 7.17045C16.2838 6.41704 16.1437 5.2563 16.3529 4.53827C16.4029 4.36653 16.5116 4.31462 16.4147 4.18043C16.1054 4.09622 16.0645 4.46275 16.0157 4.70267C15.9542 5.00486 15.9311 5.26331 15.9294 5.58785C15.9275 5.91849 15.9515 6.20023 15.9769 6.50992C15.9981 6.76954 16.0909 7.12747 16.0916 7.37316C16.1252 7.44826 16.2549 7.99137 16.2449 8.07866L15.4512 8.46305L14.9386 8.72058C14.8803 8.76164 14.8168 8.79661 14.7292 8.8279L14.6555 8.86587C14.5756 8.92996 14.0868 9.19134 13.9888 9.2324L13.7321 9.38303L13.1745 9.72744C13.1326 9.76407 13.1582 9.75548 13.0957 9.77225L13.0022 9.86155C12.9573 9.89009 12.9407 9.89993 12.9006 9.92647C12.8287 9.97421 12.7868 10.027 12.6646 10.0204C12.585 9.9253 12.4433 9.72827 12.4345 9.61561L12.3104 9.37844L12.23 9.20936L12.1832 9.12316L11.9231 8.52747C11.92 8.52196 11.9162 8.51479 11.9141 8.51078C11.7359 8.15669 11.5806 7.41805 11.5303 7.04753C11.516 6.94204 11.5224 6.5433 11.4836 6.49499C11.4307 6.4198 11.1772 6.31681 11.1851 6.72481C11.1888 6.916 11.2133 7.11879 11.2355 7.30539C11.3143 7.96984 11.5329 8.65123 11.8262 9.24775L12.2809 10.0971C12.334 10.1514 12.352 10.1655 12.3496 10.2724L12.174 10.3896L11.9904 10.5187L11.974 10.5479C11.9211 10.6251 11.9471 10.5861 11.8761 10.635C11.8178 10.675 11.8451 10.6714 11.7692 10.6945C11.74 10.7616 11.6897 10.7801 11.6077 10.8381C11.5568 10.8739 11.5077 10.9353 11.4283 10.965C11.3812 11.0328 11.1889 11.1704 11.1116 11.2371C11.0328 11.3049 10.8802 11.4661 10.7876 11.5012C10.7451 11.5637 10.6407 11.641 10.5841 11.6958C10.5251 11.753 10.4453 11.857 10.3373 11.8757C10.2564 11.839 10.0868 11.6088 10.0383 11.5121C9.95191 11.3188 9.6937 11.0374 9.64685 10.8191L9.59641 10.7319L9.54718 10.6228L9.4691 10.4527L9.39211 10.2611C9.30517 10.122 9.08754 9.3882 9.09599 9.20444C9.00866 9.12658 9.07391 9.10112 9.02129 8.93864L8.84991 8.93522C8.71095 9.12658 8.89745 9.79328 8.98459 10.0484C9.01214 10.1291 9.09858 10.3498 9.09917 10.4131L9.263 10.845C9.23873 10.8924 9.24261 10.8577 9.25375 10.8987C9.26986 10.9582 9.25852 10.9226 9.28866 10.9309C9.34506 10.9615 9.3189 10.9183 9.37838 11.0333C9.40156 11.0781 9.40991 11.0854 9.43607 11.1316C9.48034 11.2098 9.50938 11.2611 9.56299 11.3434C9.65192 11.4799 9.74502 11.6111 9.82549 11.7498L9.95172 11.9238C10.0209 11.9967 10.063 12.035 10.07 12.1325C10.0219 12.2248 9.91093 12.3174 9.82042 12.3855C9.78113 12.4375 9.82042 12.3958 9.77496 12.4331C9.74731 12.5055 9.78063 12.4661 9.71319 12.5314C9.71309 12.5315 9.67848 12.5613 9.67569 12.5633C9.61153 12.6073 9.66564 12.5754 9.59572 12.605L8.97782 13.2234L8.67434 13.5247L8.28811 13.9109L8.1599 14.0378L8.1394 14.0676C8.1032 14.1473 8.04421 14.2061 7.95877 14.2542C7.81325 14.2365 7.61163 14.0468 7.54966 13.9435L7.47466 13.8452C7.41955 13.7993 7.36912 13.7447 7.32357 13.672C7.2797 13.6333 7.31282 13.6762 7.27085 13.6087L7.16899 13.4792L7.11787 13.4198L7.00238 13.2814C6.93077 13.1784 6.75182 12.8777 6.73123 12.776L6.63326 12.6227C6.50286 12.3241 6.3822 11.9982 6.3268 11.6794C6.31774 11.6273 6.31446 11.5205 6.27627 11.4844C6.18744 11.4003 6.06858 11.4835 6.01516 11.5104C6.03655 11.6056 6.03754 11.78 6.06161 11.9066C6.08568 12.0333 6.12219 12.1633 6.1575 12.2938C6.22962 12.5595 6.35843 12.784 6.42408 13.0184L6.52484 13.2054L6.70816 13.4656C6.7743 13.5124 6.94231 13.7488 6.9628 13.8035L7.0365 13.8986L7.10971 13.9814C7.206 14.0519 7.28129 14.1687 7.37499 14.2139C7.46262 14.2539 7.65062 14.4012 7.69687 14.4927C7.66315 14.5837 7.59681 14.6199 7.54001 14.6777C7.47854 14.7401 7.44442 14.791 7.34923 14.836L7.35182 14.8235C7.3173 14.901 7.25653 14.9396 7.16273 15.0263C7.09131 15.0924 7.04635 15.1541 6.94131 15.2008C6.90073 15.2188 6.93116 15.1928 6.91008 15.2276C6.8496 15.315 6.24871 15.808 6.18515 15.8373L6.10707 15.9003C6.06142 15.987 5.86507 16.1198 5.77634 16.1552L5.73357 16.1921C5.69497 16.2562 5.69846 16.2438 5.62932 16.2939C5.58606 16.3252 5.56218 16.3405 5.51762 16.3715C5.46321 16.4095 5.33649 16.5428 5.26567 16.4132L5.19952 16.3356C5.10563 16.2664 4.98 16.1091 4.89356 15.9946C4.81747 15.9386 4.74814 15.8254 4.69413 15.7523C4.64131 15.6809 4.55885 15.5784 4.51707 15.4767L4.40388 15.2629C4.28501 15.1143 4.06439 14.521 4.02699 14.2949C3.94523 14.233 3.97527 14.177 3.95299 14.0949C3.92703 13.9998 3.86188 14.0098 3.75992 14.0186C3.6695 14.1744 3.74261 14.1755 3.72511 14.3244L3.73863 14.4721C3.81751 14.6748 3.86128 14.9133 3.9502 15.1317C4.04251 15.3585 4.14337 15.5096 4.2502 15.7177C4.32341 15.7962 4.37026 15.889 4.44436 15.9856C4.49758 16.0551 4.60381 16.1708 4.65712 16.2558L4.83368 16.4505L4.9975 16.5957C5.02356 16.6221 5.06335 16.5412 5.04047 16.6837C5.02754 16.764 5.05917 16.6921 4.98756 16.7401C4.97085 16.7514 4.89545 16.7919 4.86442 16.81C4.78494 16.8561 4.67403 16.9334 4.57685 16.9506L4.52374 16.9578L4.42924 17.0015C4.3242 17.1283 3.84218 17.2208 3.58665 17.2645C3.25373 17.3215 2.83317 17.2723 2.53825 17.209C2.13869 17.1234 1.2947 16.7239 1.08074 16.5218C0.939202 16.4468 1.00813 16.3574 0.808898 16.4119C0.770205 16.5054 0.81417 16.5452 0.836749 16.6431C0.854056 16.7154 0.950243 16.7665 0.9957 16.8135L1.06752 16.8459C1.17076 16.8739 1.27501 16.9501 1.36841 16.9967C1.46012 17.0425 1.5752 17.069 1.66691 17.1546C2.76494 17.7399 3.98352 17.6151 5.01809 17.0033C5.2965 16.8386 5.26517 16.8517 5.43884 16.9759C5.54647 17.0191 5.63102 17.0881 5.71636 17.146L5.81085 17.2368L5.85721 17.2656L5.93002 17.3081L6.0074 17.3502C6.09872 17.3859 6.38568 17.5136 6.44447 17.5826C6.4391 17.6068 6.4003 17.62 6.4754 17.5848L6.67165 17.6479L6.74844 17.6587L6.83697 17.6845C6.83826 17.7819 6.78485 17.841 6.68518 17.8849L6.4948 18.094L6.4187 18.177L6.36798 18.2407L6.31605 18.305L6.26741 18.369L6.21788 18.437C6.19639 18.4719 6.17113 18.507 6.14278 18.5412C6.1008 18.6365 5.99189 18.7699 5.93221 18.8592C5.58377 19.3798 5.45277 19.8628 5.40115 19.9428C5.23911 20.6193 5.23503 21.0332 5.50191 21.6455L5.57691 21.7915L5.68294 21.9484L5.71387 21.9736C5.71666 21.9766 5.72352 21.9831 5.7269 21.9868C5.73009 21.9903 5.73466 21.9964 5.73795 22.0003C5.75535 22.0208 5.75893 22.0289 5.77713 22.0511C5.82667 22.1118 5.82707 22.1098 5.8577 22.1744L5.88227 22.2018L5.98363 22.3072C6.08439 22.3736 6.11045 22.4601 6.30342 22.4138C6.36002 22.3632 6.38668 22.3094 6.34858 22.2145C6.22842 22.113 6.0448 21.9308 5.96493 21.7843C5.92286 21.7354 5.915 21.7183 5.89282 21.6596L5.91271 21.6594C5.83154 21.6231 5.88784 21.6727 5.83453 21.5909C5.83393 21.59 5.80051 21.5211 5.79792 21.5157C5.5963 21.1011 5.57024 20.5774 5.68433 20.1395C5.77793 19.78 6.06579 19.1285 6.29924 18.8733L6.35246 18.8056C6.37981 18.725 6.43293 18.6531 6.50445 18.5912L6.6058 18.4679L6.80623 18.2201C6.82424 18.1783 6.81896 18.1757 6.84144 18.1481C6.90938 18.0645 6.86223 18.1206 6.9252 18.0926L6.95345 18.0674C6.98717 17.9759 7.1488 17.9594 7.26816 17.9749C7.35052 18.0405 7.4106 18.1481 7.44671 18.2477L7.70065 18.6193L7.80181 18.7685L7.87661 18.8757L8.03069 19.0913L8.21072 19.3265L8.26255 19.3892L8.90919 20.0891C9.2817 20.4469 9.35123 20.4547 9.66336 20.7181C9.92416 20.8685 10.1989 21.1216 10.4019 21.3064C10.5215 21.4153 10.6509 21.5062 10.7766 21.5915C10.8671 21.6528 11.0939 21.8045 11.1556 21.8758L11.5059 22.1151C11.6195 22.1679 11.7698 22.2823 11.8859 22.3556C11.9971 22.4261 12.1803 22.5258 12.276 22.6058L12.5301 22.7586L12.7098 22.8644C12.7912 22.8998 12.7389 22.8712 12.7858 22.9097L12.8612 22.9494L13.0926 23.079L13.4033 23.2487L13.5276 23.3169L13.6023 23.3582L13.7312 23.4208L13.8608 23.4865L13.9887 23.5479L15.2732 24.1495L16.1382 24.5135C16.3865 24.5874 16.642 24.7083 16.8835 24.7909C17.1419 24.8793 17.3914 24.9691 17.6616 25.0608C18.1949 25.2419 18.6853 25.3599 19.2401 25.5354L20.2093 25.8008C20.2191 25.8262 20.178 25.8174 20.2526 25.8289C20.2985 25.8359 20.2819 25.8383 20.3373 25.8224C20.4922 25.8312 21.3946 26.0196 21.488 26.0584C21.6888 26.0614 22.0545 26.145 22.2657 26.1786L23.8675 26.3797C24.1522 26.4157 24.4768 26.4053 24.7434 26.4459C25.2159 26.5179 25.9746 26.5169 26.5009 26.519C27.1027 26.5214 27.7637 26.5302 28.3608 26.4897C28.6457 26.4704 28.9241 26.4429 29.2123 26.4294C29.4982 26.4159 29.74 26.3737 30.0305 26.3504C30.5797 26.3065 31.1181 26.1986 31.6397 26.1305C31.9985 26.0836 32.7727 25.9041 33.1479 25.8326C33.5365 25.7587 34.3988 25.5042 34.5828 25.479L35.7592 25.1357L35.7593 25.1571C35.7794 25.0895 35.8116 25.1019 35.8975 25.0761C35.9504 25.0603 35.9875 25.0467 36.0445 25.028C36.1556 24.9913 36.2465 24.9568 36.3508 24.9227C36.5442 24.8595 36.7617 24.7736 36.9615 24.7034C37.3729 24.5589 37.7192 24.3866 38.1441 24.2345L38.2457 24.1942L38.4448 24.1058L38.732 23.977L39.0074 23.8483C39.0198 23.8378 39.0394 23.8177 39.0738 23.8017C39.1189 23.7807 39.134 23.7796 39.1862 23.7652L39.4487 23.6357L39.574 23.5739C39.6475 23.5176 40.0667 23.3023 40.1642 23.269L40.3202 23.1874L40.4652 23.1019C40.5404 23.0374 41.0091 22.7793 41.0788 22.7586L41.4417 22.5394C41.4861 22.5047 41.4893 22.5017 41.5421 22.4783L41.6717 22.3925L42.2622 22.0063C42.4123 21.8555 43.1562 21.4222 43.2307 21.2763C43.3165 21.1759 43.5687 20.9455 43.6898 20.8951L43.9801 20.6999L44.1706 20.5629C44.2149 20.476 44.4917 20.2509 44.575 20.2005L44.7673 20.0358L44.9168 19.8805L44.9693 19.8202C45.0039 19.7665 45.3712 19.3315 45.4302 19.2823L45.4847 19.218L45.5339 19.1566L45.6059 19.047L45.6877 18.9343C45.7101 18.8704 45.7402 18.8296 45.788 18.7843L45.8628 18.6801L46.0398 18.4153C46.0594 18.3372 46.0196 18.3822 46.0898 18.3374C46.1829 18.2404 46.2332 18.0861 46.3474 17.9878C46.4551 17.9771 46.4762 17.9771 46.5489 18.012C46.6827 18.0492 46.7139 18.1248 46.7842 18.2035C46.8525 18.2799 46.93 18.358 46.9825 18.4484L47.0312 18.5109L47.0855 18.5733L47.2654 18.8123L47.4199 19.0438C47.6388 19.3007 47.8854 19.9355 47.9538 20.3107C48.0089 20.6132 48.0062 20.8079 47.9457 21.1109C47.9074 21.3026 47.7921 21.6125 47.6724 21.7411L47.5936 21.8463L47.5464 21.9099L47.4924 21.9747L47.2965 22.1808L47.2487 22.2603C47.2319 22.3322 47.2493 22.3479 47.2938 22.3996C47.5334 22.4591 47.551 22.3323 47.6852 22.239L47.781 22.1375L47.9332 21.9399C47.9933 21.8306 48.0732 21.7164 48.1235 21.6089C48.1802 21.4878 48.2063 21.3434 48.2657 21.233C48.326 20.7696 48.3058 20.5905 48.2657 20.1361C48.3014 20.0585 48.297 20.1076 48.28 20.0169C48.2566 19.8922 48.2609 19.9525 48.24 19.9396C48.2146 19.9186 48.2055 19.9218 48.1825 19.8835C48.1664 19.8567 48.1689 19.8466 48.1592 19.8158C48.1412 19.7579 48.1297 19.7209 48.1128 19.6582C48.0542 19.5783 48.0161 19.4539 47.9659 19.3519C47.9178 19.2541 47.8609 19.1605 47.8092 19.0555L47.7051 18.8846L47.6263 18.7619L47.5023 18.5832L47.453 18.5266C47.3914 18.4744 47.2194 18.2587 47.1915 18.1973L47.146 18.1317L47.0927 18.0744C47.011 18.0032 46.8128 17.8056 46.7992 17.7113C46.8577 17.657 47.073 17.5863 47.1659 17.5612C47.1854 17.5459 47.1702 17.555 47.2057 17.5312C47.2105 17.528 47.2648 17.496 47.265 17.4958C47.3178 17.471 47.3309 17.4839 47.3737 17.4476L47.8171 17.211L47.8628 17.1984L47.9844 17.1167C48.0516 17.0427 48.139 17.0026 48.2002 16.9427L48.2884 16.857C48.3772 16.8536 48.4298 16.8436 48.5 16.9531C48.8489 17.1385 49.2484 17.3693 49.7072 17.4611C49.9677 17.5131 50.2845 17.5404 50.5684 17.5217C50.878 17.5013 51.0961 17.4322 51.3621 17.3896C51.5035 17.3279 51.7018 17.26 51.8482 17.1969C51.9972 17.1329 52.1708 17.0386 52.312 16.9819C52.4089 16.9214 52.5206 16.8742 52.5786 16.8199C52.6179 16.7299 52.5919 16.7819 52.6773 16.7137C52.7681 16.641 52.9484 16.366 52.652 16.4125L52.6031 16.4198C52.5127 16.5937 52.0904 16.8102 51.8013 16.9412C51.0595 17.2768 50.2817 17.4279 49.4628 17.1354C49.2162 17.0474 48.6418 16.7903 48.5751 16.6599L49.1518 15.9902C49.22 15.9047 49.2445 15.814 49.3429 15.7374C49.4513 15.5509 49.5438 15.3653 49.6468 15.1834C49.6828 15.0443 49.7918 14.8426 49.7878 14.7124C49.7795 14.3702 50.1039 13.9814 49.6911 14.0169C49.6243 14.1199 49.6724 14.1266 49.5989 14.2137C49.5851 14.408 49.4282 14.8346 49.337 14.9821L49.2354 15.1958C49.2102 15.2607 49.2258 15.2376 49.1861 15.2836C49.1474 15.3886 49.0401 15.515 49.0327 15.5858L48.9322 15.7157L48.8727 15.7747L48.8243 15.8375L48.7251 15.9694L48.45 16.3042C48.2938 16.6432 48.0962 16.3658 47.8349 16.1847C47.7397 16.1186 47.7321 16.12 47.6956 16.0474L47.6633 16.0242C47.5559 15.9837 46.4894 15.104 46.4594 15.0219C46.3792 14.9862 46.3212 14.928 46.2827 14.852L46.0694 14.6416C45.9968 14.5956 45.971 14.5761 45.9454 14.4927C45.9799 14.4117 46.0169 14.3941 46.0941 14.3465C46.1344 14.2997 46.1167 14.3145 46.1735 14.2805L46.4549 14.0228L46.5293 13.9425L46.6068 13.8533L46.7858 13.6384C46.8361 13.5506 46.9438 13.4375 46.9714 13.356C46.9957 13.2919 47.0169 13.2657 47.0468 13.2133C47.0611 13.1882 47.071 13.1645 47.0889 13.1393L47.1553 13.0763L47.1915 12.9928C47.2134 12.9404 47.2451 12.8737 47.2678 12.822C47.313 12.719 47.2901 12.7048 47.3705 12.6324C47.386 12.6275 47.4221 12.6757 47.3717 12.583L47.4472 12.3309C47.4703 12.1325 47.6481 11.6589 47.5625 11.4982C47.4823 11.4738 47.4659 11.4609 47.3648 11.4653C47.2893 11.5677 47.3283 11.6169 47.2951 11.7446C47.2701 11.8403 47.2583 11.8196 47.2285 11.8399C47.2099 12.0227 47.0782 12.3981 46.986 12.539C46.9453 12.6425 46.9178 12.7325 46.8588 12.7961C46.8447 12.9101 46.5739 13.3599 46.5048 13.3985C46.4842 13.478 46.4615 13.4951 46.3983 13.5413C46.3584 13.631 45.8161 14.2471 45.6569 14.2259C45.5751 14.1919 45.5785 14.1897 45.5318 14.1236L45.2755 13.8687L44.3045 12.9006L44.0476 12.6437L43.7181 12.3206C43.6438 12.2656 43.5662 12.2031 43.5274 12.1109C43.5502 12.0498 43.5249 12.0908 43.5598 12.049C43.6027 11.9767 43.7848 11.7237 43.8453 11.6655L43.9435 11.5162C43.9949 11.3874 44.2659 10.9895 44.4122 10.6611C44.5181 10.4233 44.6444 10.1007 44.706 9.83801C44.7287 9.74146 44.7282 9.73862 44.7873 9.70783L44.7619 9.6863L44.7732 9.49302C44.7584 9.30233 44.9051 9.08661 44.7361 8.9338C44.5501 8.91528 44.5639 8.96685 44.5581 9.10622C44.554 9.20494 44.5581 9.30408 44.4873 9.35974C44.4796 9.45087 44.3678 9.99507 44.2502 10.1108C44.2337 10.121 44.229 10.0974 44.2139 10.1509C44.1911 10.2321 44.1916 10.1741 44.2245 10.2442C44.1542 10.5742 43.7399 11.2487 43.5656 11.495C43.5352 11.5936 43.3664 11.8408 43.2528 11.8749C43.1632 11.8406 42.9019 11.6019 42.859 11.5215H42.8508C42.7639 11.4822 42.7564 11.4566 42.687 11.4049C42.6465 11.3747 42.6459 11.3756 42.6094 11.342C42.5456 11.2832 42.5749 11.326 42.5473 11.2662C42.4634 11.2271 42.3516 11.1303 42.3116 11.0645C42.2589 11.0006 42.0206 10.8209 41.9153 10.7447C41.7891 10.6533 41.6159 10.5417 41.4954 10.4369L41.2544 10.2656C41.2457 10.1606 41.3502 10.0305 41.409 9.94216C41.4808 9.83451 41.5251 9.72168 41.5906 9.64532C41.6538 9.51188 41.7062 9.42551 41.7739 9.28606C41.8226 9.18575 41.8905 8.99664 41.9503 8.91653L42.0765 8.6171C42.0906 8.5495 42.1035 8.49376 42.1227 8.44026C42.1308 8.41765 42.1441 8.37601 42.1512 8.36265C42.1909 8.28746 42.1761 8.32493 42.2042 8.29681C42.2343 8.27611 42.2131 8.34571 42.2395 8.23439C42.2499 8.19007 42.2559 8.17839 42.2299 8.11989C42.255 7.85576 42.5678 6.64612 42.3795 6.48497C41.9388 6.34836 42.2422 6.73816 42.063 7.08766C42.0544 7.56159 41.7137 8.57287 41.4825 9.04037L41.1804 9.60034L41.0415 9.87515C40.962 10.1233 40.8454 10.0306 40.6907 9.92647C40.5523 9.83334 40.5447 9.85595 40.5214 9.78953C40.4272 9.76599 40.0895 9.55911 40.0318 9.47182L39.7281 9.29657L39.6249 9.23507L39.3169 9.06207L39.1165 8.95475C38.9824 8.9061 38.805 8.81347 38.7061 8.73969C38.5695 8.68895 38.2759 8.5369 38.1963 8.4794L38.1207 8.44127C37.9979 8.40121 37.5871 8.19633 37.5033 8.14L37.3681 8.08008C37.3581 7.98712 37.4805 7.43316 37.524 7.37049C37.5252 7.08224 37.6161 6.8187 37.638 6.53221C37.6739 6.06045 37.734 5.17936 37.5989 4.73422C37.5622 4.61321 37.5433 4.45782 37.4961 4.3495C37.4705 4.29075 37.4458 4.23184 37.392 4.1957C37.3538 4.17016 37.3468 4.16382 37.2932 4.16424C37.1435 4.16549 37.2431 4.15506 37.1988 4.19904C37.1987 4.19912 37.0899 4.19053 37.1811 4.36895C37.5055 5.00386 37.3066 6.38992 37.1843 7.09901C37.1707 7.17829 37.1766 7.21026 37.1401 7.2615L37.0635 7.61851L36.9981 7.8722C36.8219 7.8707 36.3663 7.62368 36.3621 7.61166C36.3595 7.60399 36.3525 7.60315 36.3476 7.5989L36.2756 7.56184L36.1259 7.4975C36.041 7.48023 35.9831 7.44568 35.9072 7.41321C35.8824 7.40253 35.8155 7.37975 35.8055 7.37424C35.7086 7.32083 35.7703 7.35338 35.7285 7.30464C35.6426 7.32133 34.1279 6.62384 33.841 6.51092C33.7842 6.48856 33.7611 6.47921 33.7039 6.4561L33.5855 6.38182L33.5597 6.38174C33.3711 6.32975 33.4949 6.14398 33.5059 5.65228C33.5112 5.41736 33.5104 5.17894 33.4987 4.94419C33.4654 4.27306 33.4204 4.23509 33.3553 3.65676L33.3806 3.65568C33.3485 3.63473 33.3458 3.65668 33.3195 3.57097C33.2403 3.31302 33.1779 2.80755 33.0219 2.5158C33.0152 2.51113 33.0065 2.50595 33.002 2.50195C32.9977 2.49811 32.9887 2.4931 32.9841 2.48834L32.9466 2.42951C32.8746 2.28956 32.7504 2.3085 32.6945 2.35348C32.5821 2.44395 32.7555 2.57038 32.7782 2.69439C32.7871 2.81431 32.8644 2.97562 32.8937 3.0988L33.0701 3.93266C33.0931 4.0686 33.0928 4.24669 33.1127 4.40083C33.1658 4.81099 33.1842 5.89888 33.0671 6.26883C32.9241 6.28669 30.2022 5.66989 29.9397 5.59653C29.8387 5.58068 29.4635 5.51483 29.428 5.45917C29.3752 5.12653 29.4134 4.74657 29.3461 4.42035L29.212 3.45923C29.1158 3.23207 29.0787 2.85437 28.9838 2.60334C28.9313 2.46489 28.9001 2.31526 28.8507 2.17006C28.8097 2.04988 28.7481 1.91386 28.7008 1.78985C28.6497 1.74069 28.6609 1.71916 28.6288 1.65841L28.4148 1.23939C28.3219 1.12256 28.3244 0.955653 28.061 1.0109C27.9733 1.12189 28.0203 1.12147 27.9998 1.25124Z" fill="black" stroke="black" stroke-width="0.2"/>
<path fill-rule="evenodd" clip-rule="evenodd" d="M26.7321 27.789C26.7056 27.9251 26.6233 28.0976 26.5848 28.2463C26.5551 28.3615 26.5156 28.5983 26.4252 28.6757C26.4051 28.7572 26.3866 28.8032 26.357 28.8737C26.3465 28.8984 26.3295 28.9497 26.3192 28.969C26.2749 29.0516 26.3141 29.0052 26.2464 29.0404L26.2694 29.0406C26.243 29.1471 26.1305 29.3937 26.0671 29.4681C26.0373 29.5544 26.0047 29.6212 25.9635 29.6778L25.8369 29.9179C25.7793 30.1066 25.3341 30.827 25.1851 31.1083L24.9674 31.5081C24.8033 31.8714 24.6532 32.1864 24.5085 32.5589C24.3659 32.9261 24.2598 33.3036 24.1542 33.6965C23.9214 34.5628 23.9227 35.4553 23.9444 36.4005L23.9189 36.4232C23.9247 36.4293 23.9337 36.4298 23.9363 36.4413C23.9481 36.4943 23.9709 36.391 23.998 36.7007C24.0309 37.0778 24.1274 37.295 24.1746 37.6021C24.1417 37.653 24.1473 37.5884 24.1535 37.6632C24.1591 37.7281 24.1408 37.6768 24.1747 37.6939C24.2124 37.7216 24.1988 37.6899 24.2313 37.7539C24.2365 37.7641 24.2462 37.8095 24.2501 37.8238L24.351 38.0825L24.4294 38.2484L24.5422 38.465C24.5475 38.4685 24.5563 38.4678 24.5585 38.4755C24.5598 38.4801 24.7333 38.6975 24.7614 38.7822L24.8123 38.8538L24.8602 38.912L24.8856 38.9344C25.0923 39.142 25.0632 39.1528 25.3579 39.3776C25.4236 39.4277 25.5531 39.5396 25.6578 39.5514C25.7764 39.5647 26.0654 39.5545 26.193 39.5478C26.1128 39.4741 25.745 39.3284 25.4235 39.0434C25.2788 38.9153 24.9323 38.535 24.8653 38.3306L24.7403 38.117C24.5639 37.9066 24.3979 37.1345 24.3455 36.8079C24.1693 35.7096 24.2654 34.826 24.4906 33.7488C24.5391 33.517 24.817 32.5655 24.9165 32.4524L25.1466 31.9003L25.4548 31.2937L25.5334 31.1488L25.5815 31.0611C25.6108 30.9609 25.8279 30.5826 25.8884 30.5022C25.9683 30.3016 26.1124 30.0823 26.23 29.8658C26.3443 29.6556 26.4339 29.4251 26.5533 29.2338C26.5809 29.142 26.6257 29.0432 26.665 28.9592C26.7393 28.8004 26.7028 28.753 26.8089 28.7168C26.8724 28.7569 26.906 28.8646 26.937 28.939C26.9757 29.0322 26.9995 29.0813 27.0369 29.1664C27.1066 29.3249 27.1649 29.454 27.2525 29.6188L27.704 30.4825L27.7511 30.5855C27.7109 30.6501 27.7283 30.6155 27.7553 30.6146C27.8035 30.6444 27.7712 30.598 27.8246 30.6805C27.8375 30.7005 27.8513 30.7338 27.8628 30.7545C27.8891 30.8016 27.9089 30.8318 27.9315 30.8881L28.1386 31.2508C28.2182 31.3331 28.3925 31.702 28.4278 31.83C28.5417 32.0014 28.9186 32.9527 28.9572 33.2054C29.0267 33.3097 29.2254 34.2002 29.2505 34.3873C29.3128 34.8515 29.3405 35.3028 29.3408 35.7782C29.3412 36.3741 29.1749 37.8004 28.8016 38.2421L28.7525 38.3258L28.6752 38.4571L28.597 38.5678C28.5607 38.6673 28.4496 38.8147 28.3436 38.8679L28.3286 38.9029C28.2819 38.9859 28.2088 39.0682 28.094 39.1085C28.0363 39.1841 27.7469 39.372 27.622 39.4232L27.4994 39.4902L27.4076 39.5439C27.5525 39.5558 27.7111 39.552 27.8583 39.5514C28.0901 39.5504 28.2697 39.3716 28.4124 39.2478L28.6313 39.0409L28.7058 38.9606L28.9378 38.6587L29.0086 38.5527L29.1118 38.377C29.244 38.0418 29.2812 38.1013 29.3982 37.6716C29.4271 37.5655 29.4501 37.5795 29.4688 37.5619C29.4965 37.5477 29.4769 37.5804 29.5037 37.5232C29.5256 37.4769 29.5121 37.5068 29.5229 37.4543C29.5373 37.3848 29.5498 37.3686 29.5201 37.3017C29.5932 36.4521 29.7144 36.4496 29.6851 35.3705C29.6761 35.0438 29.6382 34.7346 29.5921 34.4256C29.5425 34.0948 29.4723 33.8361 29.4178 33.5195L29.3696 33.3106C29.4239 33.2031 29.3796 33.2649 29.3665 33.2601C29.3426 33.2328 29.349 33.256 29.3201 33.1907C29.3184 33.1869 29.3064 33.1422 29.3061 33.1412L29.2153 32.8171C29.2525 32.7377 29.2378 32.8072 29.2211 32.7457C29.2074 32.6956 29.2028 32.7131 29.1875 32.7014C29.1241 32.6466 29.0845 32.5083 29.0613 32.4277L28.9848 32.2555L28.7784 31.7871C28.6369 31.5665 28.5329 31.3025 28.3973 31.0504C28.3365 30.9374 28.2769 30.8294 28.2033 30.7035C28.144 30.602 28.0585 30.4745 28.0111 30.3486C27.917 30.2319 27.7558 29.9104 27.6911 29.7773C27.5939 29.5771 27.4851 29.3964 27.3977 29.1888C27.3097 29.0762 27.1633 28.6702 27.1064 28.5146C27.0653 28.402 27.0345 28.2579 27.0008 28.1488C26.9584 28.0118 26.9161 27.9352 26.8858 27.7906L26.8089 27.7544C26.73 27.7729 26.7884 27.7418 26.7321 27.789Z" fill="black" stroke="black" stroke-width="0.2"/>
<path fill-rule="evenodd" clip-rule="evenodd" d="M17.6762 27.9162L17.5499 28.3284C17.525 28.4826 17.4927 28.5776 17.4578 28.7277C17.4566 28.733 17.3881 29.1275 17.3613 29.0856C17.3589 29.0817 17.3508 29.0981 17.3454 29.1043L17.3709 29.1053C17.3507 29.3654 17.2934 29.6311 17.2799 29.877C17.2306 30.7662 17.2614 31.4367 17.3058 32.3234C17.3373 32.9508 17.4914 34.8481 16.8831 35.2388C16.6523 35.3983 16.3581 35.0564 16.297 34.9126L16.2233 34.7898C16.0705 34.6268 15.8748 34.1217 15.8366 33.8425C15.7955 33.7759 15.796 33.6873 15.786 33.5899C15.8153 33.5437 15.8383 33.5329 15.7854 33.5021C15.7689 33.4822 15.7659 33.4863 15.7471 33.4456C15.6495 33.2346 15.693 31.905 15.7157 31.7521C15.7689 31.3954 15.918 30.5309 16.0924 30.2878L16.2216 29.9928L16.3993 29.6258C16.4352 29.5204 16.5972 29.231 16.655 29.1698L16.8642 28.8263C16.8906 28.75 17.0254 28.5407 17.0931 28.4831L17.1671 28.3802L17.2971 28.204C17.3204 28.1324 17.3358 28.1046 17.3994 28.054L17.5482 27.8603C17.579 27.7646 17.6334 27.6864 17.7341 27.663C17.7412 27.7271 17.7458 27.8011 17.7147 27.8652C17.6983 27.8991 17.6895 27.9008 17.6762 27.9162ZM18.2078 26.6318L18.056 26.7805L17.8516 26.9957L17.5224 27.3642C17.493 27.4111 17.4632 27.4472 17.4195 27.49L17.3671 27.5551L17.3146 27.6207L17.2644 27.6818L17.2151 27.7496L17.139 27.8547L17.0583 27.9636L17.0076 28.0261L16.9054 28.173C16.8817 28.2237 16.8738 28.2404 16.827 28.283L16.753 28.3911L16.6293 28.5409C16.6023 28.5389 16.5851 28.5038 16.6248 28.5689L16.5525 28.6934C16.53 28.786 16.3244 29.0923 16.2605 29.204C16.1755 29.3526 16.0754 29.5877 15.9882 29.7053L15.9131 29.8526C15.8519 30.047 15.7415 30.2384 15.6772 30.4212C15.6093 30.6143 15.5533 30.8304 15.5043 31.0344C15.2812 31.9648 15.2988 32.913 15.49 33.8294C15.6392 34.5441 15.8443 34.6705 15.9386 34.9711L16.0339 35.1195C16.1142 35.1811 16.1801 35.2854 16.2637 35.3558C16.347 35.4259 16.449 35.4956 16.5799 35.5393C16.9607 35.6666 17.1434 35.3932 17.3007 35.2909L17.3456 35.2279C17.4595 34.9799 17.5181 34.8686 17.5763 34.5594C17.6959 33.9237 17.6817 32.7557 17.6313 32.128C17.5881 31.5909 17.5678 31.0499 17.5774 30.5001L17.6763 29.3217C17.6987 29.1856 17.7015 29.0387 17.7802 28.9773C17.8175 28.9582 17.7961 28.9919 17.8132 28.8969C17.824 28.8374 17.8345 28.8264 17.806 28.762L17.8597 28.5296L17.9082 28.3822C17.9138 28.3479 17.918 28.3005 17.925 28.2683C17.9294 28.2486 17.933 28.2281 17.9422 28.21C17.9658 28.1636 17.9526 28.1941 17.9848 28.1683C18.0155 28.1449 17.9779 28.1916 18.0088 28.1355C18.0121 28.1295 18.0356 28.0766 18.0361 28.0753C18.0598 28.0108 18.0705 27.9999 18.0361 27.9252L18.1385 27.5871C18.2021 27.4061 18.3358 27.1151 18.4503 27.003C18.4907 26.9363 18.5412 26.867 18.599 26.8126C18.6742 26.7038 18.7287 26.6661 18.8075 26.5778C18.897 26.4774 18.8856 26.4114 18.7894 26.3316C18.4761 26.2973 18.347 26.5419 18.2078 26.6318Z" fill="black" stroke="black" stroke-width="0.2"/>
<path fill-rule="evenodd" clip-rule="evenodd" d="M10.7467 31.2491C10.7365 31.2835 10.7297 31.3207 10.7198 31.3545C10.7191 31.3569 10.7033 31.4034 10.7025 31.4047C10.6437 31.5032 10.706 31.4114 10.6446 31.4629L10.6688 31.4656L10.5421 31.718C10.5068 31.78 10.496 31.7967 10.4543 31.8418C10.4363 31.8613 10.4227 31.8808 10.3987 31.9027C10.337 31.9591 10.375 31.9288 10.3121 31.9558L10.3013 31.9591C10.2744 31.9994 10.3002 31.9763 10.2655 32.006C10.2389 32.0287 10.2432 32.0221 10.2059 32.0404C9.99734 32.193 9.70113 32.0467 9.60226 31.9296C9.52994 31.8734 9.45564 31.7883 9.41923 31.6802C9.45435 31.6208 9.44569 31.6575 9.41695 31.6373C9.41695 31.5501 9.42192 31.6241 9.39138 31.6157C9.3127 31.5693 9.31032 31.5273 9.26665 31.4376C8.78184 30.4411 8.86152 28.9876 9.10462 27.9889C9.24357 27.4185 9.45872 26.9354 9.72341 26.4264C9.84227 26.1979 10.4167 25.1649 10.568 25.0499C10.5951 24.9588 10.709 24.8004 10.7759 24.7495L10.8493 24.6476C10.9095 24.5511 11.0196 24.3645 11.1149 24.3543L10.9749 25.1336C10.8452 25.9622 10.8389 26.8625 10.8299 27.7106C10.8225 28.3997 10.9324 30.7898 10.7467 31.2491ZM10.9734 23.9554L10.9236 24.015L10.8746 24.0786C10.8543 24.1324 10.6964 24.3529 10.6044 24.4032L10.5421 24.5359C10.507 24.596 10.4642 24.658 10.4104 24.6954L10.3086 24.8328L10.2588 24.8944L10.1585 25.0441C10.1234 25.1352 9.99585 25.302 9.94383 25.3829C9.50607 26.0631 9.14152 26.7505 8.90419 27.4922L8.77747 27.8821C8.76195 28.0159 8.72793 28.2004 8.69759 28.3289C8.61056 28.6961 8.58689 29.4777 8.59206 29.8563C8.59822 30.3105 8.69262 30.8173 8.84122 31.2466C8.88986 31.3876 8.95561 31.4966 9.00763 31.6439C9.04633 31.718 9.11098 31.8255 9.16141 31.896C9.22487 31.9847 9.31678 32.0644 9.36035 32.1523L9.36572 32.1562C9.45753 32.192 9.43465 32.2002 9.50329 32.2357L9.67258 32.321C9.91449 32.4059 9.95795 32.3938 10.2354 32.3669C10.3078 32.4046 10.2715 32.3918 10.2679 32.3668C10.3012 32.3302 10.2686 32.3545 10.3134 32.3251C10.3175 32.3223 10.3575 32.302 10.3625 32.2993C10.3979 32.2801 10.4301 32.2602 10.4656 32.241C10.5015 32.2034 10.5184 32.1942 10.5559 32.1626C10.5995 32.1258 10.5907 32.117 10.6405 32.1092L10.8378 31.8394C10.9385 31.6951 11.0599 31.4176 11.087 31.25C11.0987 31.1782 11.1025 31.117 11.1187 31.0516C11.1283 31.0129 11.1243 31.0044 11.1309 30.9719L11.1816 30.8649L11.1561 30.8219C11.1922 29.6478 11.1569 28.4768 11.1738 27.3028C11.1823 26.7067 11.2242 26.1872 11.2548 25.6068C11.2711 25.2969 11.3853 24.77 11.4541 24.4464L11.5243 24.1791C11.5468 24.1147 11.5642 24.1084 11.5908 24.0885C11.6406 24.0596 11.6109 24.0851 11.5909 24.0413C11.6286 23.9084 11.7943 23.6007 11.8723 23.5092C11.9318 23.3669 11.9974 23.418 11.9697 23.2262C11.7327 23.0854 11.5453 23.3413 11.4 23.4953C11.2686 23.6347 11.0906 23.8583 10.9734 23.9554Z" fill="black" stroke="black" stroke-width="0.2"/>
<path fill-rule="evenodd" clip-rule="evenodd" d="M42.6902 24.5644L42.7348 24.627L42.8158 24.7317L42.8921 24.8353L43.2529 25.3565C43.2964 25.412 43.3281 25.4635 43.3551 25.5276L43.4032 25.6133L43.5341 25.8223C43.6363 25.8952 43.7283 26.1406 43.8036 26.2589C43.8516 26.3344 44.0079 26.6409 44.0202 26.7236C44.0784 26.7742 44.1288 26.9215 44.1676 27.0054C44.2144 27.1066 44.2479 27.1854 44.2831 27.2996C44.3386 27.4795 44.4561 27.7153 44.4805 27.9308C44.5542 28.1379 44.626 28.5318 44.634 28.7834L44.6085 28.7864C44.6659 28.8625 44.6581 28.9388 44.671 29.0373C44.7008 29.2646 44.7013 29.6923 44.6958 29.9206C44.6865 30.2959 44.6271 30.5125 44.5474 30.8459C44.5268 30.9318 44.5376 30.9157 44.4806 30.9717C44.4793 30.9722 44.4152 30.8975 44.4805 31.0364L44.3526 31.3953C44.3198 31.5094 44.1898 31.7283 44.1224 31.8052C43.9717 32.1103 43.5199 32.2372 43.2328 31.9338C42.7253 31.3973 42.7556 30.6978 42.7579 29.9635C42.7616 28.7817 42.8303 26.3687 42.6532 25.3466C42.6288 25.2063 42.4699 24.3739 42.4858 24.3347C42.5767 24.3609 42.6625 24.4783 42.6902 24.5644ZM41.7695 23.5738L41.817 23.6765C41.7766 23.7405 41.7923 23.7069 41.8208 23.7017C41.8624 23.7296 41.8364 23.705 41.8717 23.7425C41.8736 23.7445 41.8937 23.7832 41.8941 23.7842C42.0594 23.9577 42.1121 24.2917 42.1831 24.5597L42.3171 25.1788C42.3267 25.2653 42.3271 25.3399 42.3427 25.4251C42.4879 26.2208 42.4245 28.4772 42.4372 29.4056C42.4417 29.7369 42.4112 30.0819 42.442 30.4112C42.4564 30.5655 42.4675 30.7424 42.4777 30.9078C42.4892 31.0933 42.5201 31.1894 42.5368 31.3584C42.5799 31.4107 42.8484 32.294 43.4842 32.3706C43.821 32.4111 43.8684 32.3143 44.0775 32.2596C44.1769 32.184 44.2244 32.1481 44.3285 32.0514L44.5341 31.766L44.5831 31.6848C44.6246 31.5147 44.8529 31.1459 44.9259 30.6715C45.0251 30.0271 45.03 30.0918 45.0172 29.4056C45.0045 28.7274 44.9192 28.2614 44.7467 27.6455C44.705 27.4969 44.6061 27.2543 44.5831 27.1096C44.5108 26.9947 44.4477 26.8168 44.3922 26.6937C44.3323 26.5606 44.2568 26.433 44.1994 26.2869L44.124 26.1439C44.0693 26.0851 43.9166 25.8054 43.868 25.7175C43.8004 25.5952 43.6466 25.3892 43.6112 25.2643C43.6555 25.2042 43.6422 25.2335 43.6111 25.2388C43.5618 25.2115 43.592 25.246 43.5434 25.19C43.5238 25.1674 43.5268 25.159 43.5134 25.1284L43.4119 24.977L43.3366 24.87L43.2587 24.7658L43.1778 24.6602L42.9993 24.421L42.8724 24.2508L42.8217 24.1873L42.7701 24.123L42.5415 23.8393L42.4903 23.7803L42.3336 23.6101L42.1844 23.4578C41.9992 23.3376 42.0353 23.2025 41.6956 23.1731C41.6408 23.2555 41.5891 23.2821 41.6666 23.3965C41.7136 23.4659 41.749 23.4705 41.7695 23.5738Z" fill="black" stroke="black" stroke-width="0.2"/>
<path fill-rule="evenodd" clip-rule="evenodd" d="M36.3222 28.2092L36.499 28.4617C36.5226 28.4795 36.5144 28.47 36.5378 28.4978C36.6446 28.6258 37.0834 29.3392 37.1151 29.4531L37.3178 29.8367C37.3958 29.9434 37.6567 30.5631 37.6777 30.7226L37.7289 30.9327C37.8587 31.2113 37.9379 32.1092 37.9385 32.4742C37.939 32.8169 37.8889 33.7644 37.7281 33.9944C37.709 34.0689 37.7241 34.0692 37.6833 34.1337L37.6523 34.1628C37.6454 34.1675 37.5963 34.1091 37.65 34.2337L37.5725 34.4409L37.5243 34.5309C37.4781 34.7018 37.1975 35.1439 37.0675 35.1794C37.0157 35.2557 36.9221 35.3094 36.8339 35.3012C36.5185 35.2022 36.4174 34.9225 36.3636 34.5903C36.0524 32.8624 36.6667 30.4949 36.0809 28.468C36.0311 28.2958 35.8808 27.8665 35.8852 27.7066C35.9856 27.7185 35.9868 27.7435 36.0307 27.8042C36.1091 27.9125 36.2649 28.0919 36.3222 28.2092ZM34.7613 26.5365C34.8331 26.61 34.9328 26.6966 34.9898 26.7951L35.0367 26.8589C35.0883 26.901 35.0428 26.8446 35.0914 26.9202L35.243 27.1324C35.247 27.1365 35.2527 27.1416 35.2549 27.1443C35.3306 27.2343 35.4344 27.4637 35.4527 27.5604C35.4203 27.6237 35.4269 27.5611 35.4385 27.6384C35.4547 27.7457 35.4655 27.6846 35.4783 27.6907C35.521 27.7221 35.4906 27.6908 35.5237 27.7379L35.6403 28.0834C35.6802 28.2405 35.7237 28.3704 35.7551 28.5096C35.8473 28.918 35.869 28.9023 35.9366 29.3823C36.2187 31.3886 35.616 33.7256 36.22 35.1619C36.4207 35.4065 36.6639 35.7187 37.1673 35.48C37.3192 35.3582 37.3502 35.3632 37.4642 35.2336C37.8474 34.7976 38.1309 33.9882 38.1958 33.4584C38.3408 32.2746 38.2675 31.1975 37.7892 30.0805C37.7286 29.9391 37.4971 29.5166 37.4734 29.3843L37.4733 29.3602C37.3737 29.2962 37.2873 29.095 37.2432 28.998C37.1991 28.9496 37.1351 28.8671 37.1406 28.8054L36.834 28.37L36.6586 28.1129L36.6077 28.0516C36.5584 27.999 36.486 27.9041 36.4503 27.8348L36.3242 27.6622L36.0678 27.3444L35.527 26.7685C35.3147 26.5487 35.1264 26.3145 34.8054 26.335C34.7509 26.3997 34.7249 26.4261 34.7613 26.5365Z" fill="black" stroke="black" stroke-width="0.2"/>
</svg>
