<svg width="50" height="39" viewBox="0 0 50 39" fill="none" xmlns="http://www.w3.org/2000/svg">
<path fill-rule="evenodd" clip-rule="evenodd" d="M42.3165 18.0128L42.2287 18.1438L42.1302 18.2901L42.0155 18.459C41.9823 18.5288 41.901 18.652 41.8485 18.7102L41.6823 18.9264L41.5671 19.0689C41.5112 19.1785 41.2289 19.4942 41.1647 19.5372C41.1227 19.6017 40.8722 19.8297 40.8092 19.8622C40.7329 19.9751 40.2094 20.3339 40.039 20.4924C39.8967 20.6249 39.8098 20.7052 39.6673 20.8166C39.5479 20.9099 39.4053 21.0577 39.2623 21.1331L39.1286 21.2461L39.0012 21.3348L38.9133 21.3893L38.7413 21.5102L38.4369 21.7218L38.055 21.9728L37.8175 22.1225L37.7517 22.1635L37.583 22.269L37.3006 22.4396L37.1575 22.5229L37.0823 22.5664C37.0281 22.6216 37.0097 22.6287 36.927 22.6511C36.8674 22.6865 36.9194 22.6634 36.8482 22.6908L36.779 22.7316L36.6621 22.7953L36.3771 22.9466L36.2639 23.0051C36.2222 23.0476 36.2503 23.0263 36.1946 23.0585C36.1758 23.0693 36.1509 23.0789 36.1217 23.0927C36.0503 23.1266 36.0273 23.148 35.9326 23.1722L35.6218 23.3246L35.5278 23.3675C35.3738 23.4693 34.5625 23.8146 34.3225 23.8937C34.1668 24.0062 32.1253 24.7199 31.8604 24.7355C31.7638 24.6944 31.8132 24.7204 31.8086 24.7357C31.7481 24.8016 31.7088 24.7904 31.5952 24.8201C31.4992 24.8451 31.4734 24.8612 31.3564 24.8824L30.957 24.9881C30.7322 25.069 29.9915 25.2336 29.7059 25.2616C29.6037 25.2182 29.6598 25.2478 29.6585 25.2618C29.6179 25.2986 29.6708 25.2719 29.5886 25.3062L28.404 25.5087C28.0997 25.5437 27.3416 25.6616 27.0542 25.6616C26.8463 25.7239 26.5193 25.7021 26.273 25.7071C26.0041 25.7126 25.7502 25.7524 25.4926 25.7562C24.9366 25.7645 23.5968 25.755 23.0383 25.7104C21.6733 25.6015 20.7338 25.4411 19.4211 25.1713C19.0045 25.0857 18.5003 24.9682 18.1063 24.8417C17.5865 24.6748 15.9451 24.2275 15.6437 24.0182C15.5061 23.9745 15.024 23.7876 14.9346 23.7254L14.3359 23.4734L14.2462 23.4347L14.0805 23.3464L13.9446 23.2834C13.8352 23.2568 13.0173 22.8417 12.9441 22.7733L12.7617 22.6702L12.6441 22.6052L12.5 22.5213L12.4311 22.4801C12.3541 22.4487 12.4015 22.474 12.3568 22.4374L12.2888 22.3944L12.2172 22.3557L12.0017 22.2275L11.9357 22.1837L11.8629 22.1429L11.7648 22.082C11.6975 22.0507 11.6684 22.0398 11.6256 21.9786L11.6182 21.9752C11.5036 21.9396 11.2166 21.7444 11.1524 21.6796C10.9378 21.5777 10.1019 20.9397 9.96722 20.7942C9.86004 20.738 9.74577 20.6191 9.66263 20.539C9.56926 20.4489 9.42322 20.348 9.35352 20.2677L9.14082 20.1145C9.07664 20.0845 9.06716 20.0726 9.01845 20.0384C9.00068 20.0259 8.98015 20.0144 8.96634 20.002C8.91081 19.952 8.9389 19.9793 8.91127 19.9259C8.77822 19.8513 8.13773 19.206 8.11406 19.0955C8.05762 19.0649 8.09694 19.0945 8.05918 19.062C8.05854 19.0613 8.01895 19.0159 8.01756 19.0141C7.97226 18.9582 7.98009 18.9771 7.95182 18.9061L7.93921 18.8905C7.87862 18.8583 7.92355 18.9023 7.88663 18.8579C7.86205 18.8283 7.86803 18.8282 7.85238 18.7838L7.83645 18.7586L7.54613 18.3307L7.48296 18.244C7.47688 18.24 7.46758 18.2276 7.46482 18.2319L7.33904 18.0785C7.30212 18.0149 7.26474 17.9571 7.26022 17.8747C7.34853 17.8765 7.36436 17.8826 7.42173 17.9385L7.42725 17.9713L7.49272 18.005L7.56031 18.0465L7.73277 18.1504L7.94224 18.278L8.08524 18.3617L8.15633 18.4043L8.22805 18.4434L8.34416 18.5082L8.44582 18.5701C8.55023 18.6015 8.98724 18.8493 9.13014 18.9307L9.33327 19.045C9.3363 19.0477 9.34137 19.0539 9.34523 19.0584L9.45803 19.1165L11.1255 19.9127C11.3042 19.9946 11.5625 20.0779 11.6891 20.1688C11.7897 20.1933 11.8844 20.2415 11.9714 20.2791C12.0671 20.3205 12.1452 20.355 12.2418 20.392C12.3425 20.4305 12.4379 20.4765 12.517 20.5066C12.5685 20.5261 12.6186 20.5433 12.662 20.5625C12.6689 20.5656 12.7121 20.5829 12.7237 20.5879C12.7304 20.5907 12.752 20.5985 12.7583 20.6019C12.7955 20.6216 12.7796 20.6122 12.8017 20.6343L12.8902 20.6739C12.9782 20.6827 14.2413 21.1599 14.4696 21.2355C14.7351 21.3234 15.003 21.4069 15.2762 21.5041C15.4679 21.5723 15.9815 21.6945 16.0926 21.7683L17.5653 22.1619C17.5989 22.176 17.5896 22.1741 17.6078 22.1892C17.6178 22.1907 19.1554 22.5192 19.2414 22.568C19.2879 22.5738 19.3372 22.5786 19.3835 22.5847C19.478 22.5973 19.4821 22.5915 19.5255 22.6521L19.5493 22.6332C19.6356 22.6419 19.6822 22.654 19.763 22.6653C19.7938 22.6697 19.8473 22.6742 19.8672 22.6804C19.9842 22.7164 19.9174 22.6894 19.9499 22.7363L19.9754 22.7153L21.5371 22.9468C22.0601 23.0228 22.6136 23.0553 23.1399 23.1227C24.0816 23.2435 25.6339 23.2192 26.5804 23.1149C26.9226 23.0771 27.45 23.0432 27.7865 22.994C27.9129 22.9755 28.0366 22.9458 28.1672 22.9352L29.702 22.693C29.9423 22.6345 30.1958 22.597 30.4405 22.5461L31.5104 22.3028C31.7335 22.2449 32.4862 22.0481 32.618 22.0419C32.7146 22.083 32.6652 22.0571 32.6698 22.0418C32.7289 21.9763 32.685 22.011 32.796 21.984C32.8403 21.9732 32.8833 21.9586 32.9187 21.9476C32.9934 21.9242 33.1037 21.8958 33.188 21.8735L34.1645 21.5789L34.3028 21.5393L34.515 21.4737L35.0567 21.2853C35.0617 21.2824 35.0696 21.2727 35.0722 21.277L35.1936 21.2314C35.7079 21.0486 36.3508 20.8265 36.8302 20.6282C36.9454 20.5806 37.3072 20.4194 37.4242 20.4003L39.0815 19.6637L39.8523 19.2769C39.9724 19.2212 40.0922 19.1483 40.2277 19.0842C40.3373 19.0322 40.5071 18.9148 40.6273 18.885L40.7386 18.843L40.7447 18.8429C40.7915 18.7838 40.7915 18.7933 40.8571 18.763C40.9071 18.7144 41.0801 18.6151 41.1647 18.5938C41.2154 18.5582 41.2524 18.5358 41.3112 18.5088L41.3847 18.4672L41.4565 18.425L41.5256 18.3847L41.6712 18.2977L41.8088 18.2168L41.8812 18.1719L42.0191 18.086L42.2401 17.9436C42.2679 17.8882 42.2542 17.8684 42.3877 17.881C42.3822 18.0444 42.3431 17.9948 42.3165 18.0128ZM41.8749 17.8323L41.5598 18.0219L41.3494 18.1459L41.278 18.1881C41.1868 18.2528 41.0237 18.3494 40.928 18.3774C40.8588 18.3435 40.894 18.3553 40.9011 18.3798C40.8971 18.3854 40.8918 18.3875 40.8892 18.3966C40.8789 18.4333 40.7842 18.4686 40.7556 18.4811L40.6359 18.5446L40.5671 18.5841L40.4499 18.6529L40.336 18.7144C40.2641 18.7807 39.8379 18.9903 39.768 19.0072L39.389 19.1988C39.3121 19.2781 38.6497 19.5587 38.5843 19.5754L38.374 19.6737L38.2861 19.739C38.2043 19.7791 38.0445 19.8503 37.9546 19.8428C37.9546 19.8012 37.9434 19.8117 37.9667 19.7687C38.0079 19.693 38.0127 19.7193 38.0471 19.7131C38.0629 19.6558 38.2973 19.3128 38.3557 19.2789L38.5155 19.0558L38.5622 18.9963C38.6812 18.8101 39.0616 18.4814 39.2764 18.401L39.5115 18.2958C39.6055 18.2431 39.7691 18.1928 39.9099 18.1705L39.9101 18.1904C39.9565 18.1154 39.8876 18.1636 40.0967 18.0999C40.2557 18.0514 40.5905 17.9402 40.7386 17.917L40.7388 17.9378C40.7979 17.8795 40.7474 17.9076 40.8994 17.8672C40.9496 17.8539 41.0129 17.8373 41.0681 17.8257C41.1814 17.8018 41.283 17.7705 41.4071 17.7487C41.6171 17.7118 41.9344 17.6024 42.1355 17.6219C42.1205 17.7049 42.0057 17.761 41.8749 17.8323ZM8.49204 17.8117C8.6216 17.8387 8.73071 17.849 8.82269 17.8959L9.27222 18.0222C9.62607 18.0841 10.0075 18.2457 10.3012 18.3557C10.389 18.3784 10.3701 18.364 10.4341 18.4239L10.4517 18.4457L10.5552 18.5054C10.6467 18.5307 10.5944 18.5053 10.6758 18.5654C10.7171 18.5959 10.7384 18.6102 10.7774 18.6431C10.8383 18.6943 10.9012 18.7491 10.9441 18.8258C11.0241 18.9463 11.1633 19.0517 11.2597 19.2282L11.3282 19.3315C11.372 19.372 11.3362 19.3209 11.3772 19.3946L11.476 19.5439L11.5181 19.607L11.5653 19.665C11.6104 19.6977 11.591 19.6728 11.6219 19.7274C11.6699 19.7528 11.6977 19.7439 11.707 19.8486C11.5419 19.864 11.5676 19.8184 11.5567 19.8041L11.4762 19.7698L11.1708 19.6342C11.0773 19.6059 10.4726 19.3445 10.392 19.2507C10.3218 19.2385 10.4088 19.2901 10.3167 19.2216L10.0113 19.0743C9.89816 19.042 9.13659 18.6403 8.94424 18.5273C8.86063 18.4781 8.91173 18.513 8.87601 18.4641L8.78328 18.4195C8.7366 18.4002 8.70944 18.3866 8.66598 18.3565L8.51967 18.2703L8.45392 18.2301L8.37455 18.1873C8.26958 18.1606 7.93313 17.9504 7.88359 17.8963L7.88442 17.8942L7.81205 17.8502L7.71527 17.7875L7.64806 17.7482C7.56169 17.705 7.53185 17.6984 7.51795 17.619C7.67181 17.6086 8.38477 17.7624 8.49204 17.8117ZM40.8607 15.0337C41.0009 15.0512 41.1137 14.9393 41.2364 14.9493C41.2848 14.8967 41.2027 14.9432 41.3131 14.8931L41.9268 14.6127C41.986 14.5689 42.1181 14.4869 42.2103 14.4449C42.3375 14.4002 42.3673 14.4742 42.443 14.5499C42.504 14.6107 42.5548 14.6582 42.6124 14.7148C42.7062 14.807 42.8844 14.9611 42.9615 15.0568C42.9917 15.0771 42.9856 15.0717 43.0081 15.0989C43.038 15.1196 43.0337 15.1159 43.0552 15.1462L43.1652 15.2371C43.243 15.2697 43.2012 15.2489 43.2604 15.2975C43.3167 15.3437 43.3091 15.3178 43.3321 15.3784C43.3974 15.4132 43.4181 15.4333 43.4611 15.4952L43.4881 15.5177L43.5952 15.6096C43.6519 15.6314 43.9946 15.9087 44.0367 15.9917L44.2183 16.1495C44.2905 16.19 44.4205 16.2813 44.4639 16.3594C44.4405 16.4644 44.2729 16.5874 44.1913 16.6121C44.1537 16.6683 44.1792 16.6466 44.1177 16.6902C43.9609 16.8013 43.6403 16.9961 43.4647 17.0384C43.3602 17.0949 43.2063 17.148 43.0588 17.1302C42.9438 17.0647 42.6449 16.7467 42.5043 16.6208C42.3101 16.4469 42.1364 16.2998 41.9331 16.1394C41.5387 15.8282 41.1269 15.5326 40.7092 15.246C40.628 15.2178 40.6159 15.2165 40.5856 15.1388C40.6492 15.0731 40.764 15.0546 40.8607 15.0337ZM8.99405 15.2038C8.9505 15.238 8.99893 15.2085 8.93696 15.2395L8.72012 15.3862L8.51055 15.533C8.43145 15.6154 8.24776 15.7328 8.15191 15.8035C8.04307 15.8838 7.89142 15.9891 7.80634 16.0749C7.76002 16.1399 7.56721 16.2887 7.48563 16.3236L7.45653 16.347C7.41814 16.429 7.2524 16.5528 7.18721 16.6085C7.13509 16.653 7.10719 16.6795 7.05728 16.7247C7.02598 16.7531 7.02045 16.7634 6.99108 16.7909C6.92221 16.8553 6.97598 16.82 6.89099 16.8469L6.80978 16.9218C6.75647 16.9995 6.66301 17.094 6.57535 17.1423C6.39644 17.1516 5.98283 16.9726 5.87031 16.8815L5.77022 16.8226L5.46047 16.6121C5.42585 16.6065 5.44555 16.6164 5.41839 16.5887L5.25827 16.4737C5.04124 16.3629 5.23663 16.2669 5.55273 16.0188L6.79799 14.9303L7.15074 14.5902C7.18583 14.5224 7.29116 14.4322 7.35663 14.3903C7.47191 14.4059 7.50359 14.4554 7.5929 14.508C7.66804 14.5521 7.75744 14.5876 7.82963 14.6564C7.93202 14.7316 8.55567 15.0131 8.72675 15.0226L9.01219 15.0988C9.09009 15.1386 9.04018 15.0905 9.0632 15.1598C9.01827 15.2309 9.05519 15.1779 8.99405 15.2038ZM13.0861 14.9057C13.0744 14.947 13.053 14.9685 13.0104 15.0096L12.9396 15.1096C12.9266 15.1376 12.9276 15.1475 12.9098 15.1695C12.8646 15.2248 12.8946 15.1899 12.8493 15.2178C12.8245 15.2146 12.8092 15.1786 12.8431 15.244C12.822 15.3058 12.81 15.3233 12.7781 15.3659C12.761 15.4492 12.6891 15.5661 12.6454 15.6499C12.5961 15.7441 12.5611 15.8488 12.5177 15.9375C12.2352 16.8264 12.1266 17.2617 12.2104 18.2325C12.2498 18.6891 12.4389 19.3738 12.6804 19.7707L12.9365 20.1849C12.9825 20.214 12.9384 20.1706 12.9938 20.2307C13.0387 20.2793 13.0775 20.335 13.0874 20.4014C12.9937 20.3898 12.5169 20.1414 12.4469 20.0368L12.2419 19.9039C12.1425 19.8618 12.0478 19.7962 12.0022 19.7108L11.9021 19.5761C11.8003 19.5153 11.6064 19.2431 11.5709 19.1374L11.3673 18.8719C11.2511 18.7424 11.1832 18.6641 11.0837 18.5603C10.9881 18.4607 10.8786 18.3793 10.7596 18.2973L10.4114 18.107C10.3669 18.0819 10.3284 18.0679 10.2701 18.0422C10.1846 18.0045 10.1666 18.0167 10.1084 17.9589C10.113 17.9339 10.146 17.922 10.0793 17.9588C10.0657 17.9567 8.87011 17.6298 8.77721 17.578L8.59498 17.5379L7.3953 17.2926C7.41639 17.2243 7.39051 17.2417 7.45957 17.2163C7.47909 17.1925 7.46749 17.1979 7.49401 17.1786L7.87761 16.9909L8.01729 16.9082C8.08524 16.8733 8.13515 16.8428 8.18524 16.8434C8.22014 16.8025 8.19021 16.8196 8.25697 16.7819C8.28837 16.7642 8.30411 16.7604 8.33256 16.7452C8.41516 16.7012 8.42289 16.683 8.51884 16.6752L8.82444 16.5325L8.8284 16.5488C8.86532 16.5016 8.78623 16.5343 8.89562 16.4919C8.95436 16.4338 9.52792 16.1821 9.60268 16.1468C9.91685 15.9989 11.6208 15.2697 11.8609 15.2231L12.0208 15.1606L13.0304 14.7879C13.056 14.7665 13.0344 14.7643 13.0853 14.7501C13.1474 14.7326 13.1347 14.742 13.2 14.7419C13.1826 14.8523 13.1962 14.846 13.0861 14.9057ZM36.6348 14.7845C36.6921 14.8151 36.9037 14.8814 36.9765 14.9068C37.1067 14.9523 37.2118 14.9964 37.3225 15.0359C37.4802 15.092 37.9112 15.2385 38.0158 15.308C38.0502 15.3209 38.0872 15.3321 38.116 15.3419C38.1427 15.351 38.146 15.3477 38.1683 15.3603C38.2449 15.4032 38.1864 15.3643 38.224 15.4124C38.2188 15.4376 38.1861 15.4492 38.2527 15.4125C38.3736 15.4275 38.7195 15.5719 38.7971 15.6229C38.9066 15.6557 39.2029 15.7735 39.294 15.8334L39.4531 15.8966C39.6352 15.9431 39.8596 16.0694 40.0415 16.142C40.0687 16.1529 40.1038 16.1704 40.1312 16.1834L40.2177 16.2372C40.3089 16.2734 40.5113 16.3473 40.5694 16.4226L40.5965 16.4229L40.7221 16.4635L40.8095 16.5059L41.0196 16.6127L41.1412 16.676C41.2617 16.7052 41.3953 16.7865 41.4879 16.8331C41.5774 16.878 41.7634 16.9548 41.809 17.0217C41.8739 17.0277 41.8461 17.0175 41.8959 17.0595L42.01 17.1196C42.0713 17.1443 42.1337 17.1762 42.1755 17.2013C42.2522 17.239 42.2377 17.2258 42.2539 17.2854C42.1456 17.3407 42.0899 17.3365 41.9448 17.3526C41.7607 17.3731 41.2021 17.5358 40.9708 17.559C40.7056 17.6357 40.4331 17.7076 40.1623 17.7878C39.9039 17.8643 39.6201 17.9437 39.3653 18.043C39.2781 18.1 39.1599 18.1385 39.0624 18.1946C38.9601 18.2534 38.8828 18.3048 38.7759 18.3803C38.5819 18.5175 38.4831 18.6621 38.3081 18.8353C38.276 18.9065 38.2776 18.887 38.24 18.9373C38.2187 18.9658 38.2289 18.9641 38.2045 18.9886C38.1682 19.0251 38.1892 19.0067 38.1362 19.0346L38.0136 19.2218C37.9962 19.2701 38 19.273 37.973 19.3137C37.9637 19.3278 37.9732 19.3164 37.954 19.3378C37.9329 19.3615 37.9384 19.3522 37.9182 19.3688L37.8705 19.4278C37.7644 19.6316 37.381 19.9601 37.1591 20.061L36.8853 20.2415C36.8477 20.3011 36.8988 20.2474 36.8496 20.2892C36.8201 20.3143 36.5963 20.4273 36.5351 20.4305C36.5363 20.3854 36.5447 20.3773 36.5576 20.3477C36.5948 20.2624 36.5822 20.2767 36.6438 20.253L36.6936 20.2131L36.7617 20.1146L36.9078 19.8991L37.069 19.6056C37.092 19.5136 37.1631 19.363 37.2047 19.2644C37.2492 19.1593 37.2934 19.0072 37.3206 18.896C37.3917 18.6048 37.4153 18.3779 37.4576 18.0731C37.5044 17.7364 37.4572 17.4953 37.4306 17.1801C37.4193 17.0463 37.4006 16.8908 37.3721 16.7621C37.3454 16.6421 37.2913 16.4651 37.2821 16.3546C37.2459 16.2896 37.1857 16.0648 37.1499 15.9674C37.1091 15.8564 37.0314 15.7225 36.9981 15.6015L36.9793 15.6003L36.9042 15.4257L36.8584 15.3462C36.8255 15.3076 36.788 15.2473 36.7646 15.1962L36.7139 15.1124L36.6731 15.0495L36.6213 14.9847L36.5774 14.9283L36.5353 14.8925L36.4568 14.8181C36.4373 14.7848 36.4332 14.7766 36.4421 14.73C36.4869 14.7278 36.4864 14.7231 36.5334 14.7326L36.6348 14.7845ZM38.446 13.5394L38.5433 13.4803C38.5853 13.4436 38.5406 13.4711 38.6111 13.4355C38.7332 13.3195 38.9918 13.1901 39.0815 13.0714C39.1286 13.0004 39.4261 12.728 39.5247 12.694C39.6709 12.5167 39.8763 12.3762 40.052 12.1587C40.1331 12.1443 40.1067 12.1313 40.1773 12.1714C40.2688 12.2098 40.2592 12.2295 40.3166 12.294C40.3586 12.3411 40.4001 12.3682 40.442 12.4157C40.5233 12.5073 40.6297 12.5964 40.6711 12.6904L40.8674 12.9019C40.9562 12.9388 41.2335 13.2397 41.2676 13.3174L41.4472 13.5209L41.6275 13.6998C41.6987 13.7236 41.653 13.6898 41.711 13.7498C41.7805 13.8218 42.0707 14.1279 42.0654 14.1706C42.0238 14.2419 41.9782 14.2762 41.8856 14.3017L41.6297 14.4423L41.5194 14.5025L41.4927 14.5259C41.2531 14.6834 40.7554 14.8322 40.4552 14.8902C40.2393 14.932 40.2001 14.9442 40.0522 14.8214L39.8443 14.6927L39.8113 14.6756C39.7286 14.6524 39.8001 14.6903 39.7438 14.6568C39.6969 14.6288 39.7179 14.6473 39.6909 14.6004L39.3463 14.3997L39.0868 14.2548C39.004 14.2328 38.928 14.1814 38.8517 14.1403C38.7813 14.1025 38.7001 14.0562 38.636 14.0197C38.5672 13.9804 38.2229 13.8179 38.1859 13.7775L38.1324 13.7558C38.1554 13.6644 38.1649 13.6808 38.2588 13.6298C38.3186 13.5973 38.3708 13.5613 38.446 13.5394ZM10.3313 14.381L10.2612 14.4182L10.1894 14.4602L10.1194 14.5016L9.83573 14.6715L9.81769 14.6759C9.78583 14.7189 9.814 14.6925 9.77929 14.7231C9.76935 14.7318 9.73997 14.7496 9.7245 14.7592C9.6746 14.7899 9.65066 14.8043 9.58215 14.8236L9.55416 14.8421C9.44367 14.9344 9.38013 14.9414 9.23235 14.8861C9.20316 14.8825 9.15896 14.8798 9.13217 14.8751C9.11375 14.8719 9.08309 14.8672 9.06688 14.8601C9.0144 14.8368 9.05049 14.8584 9.02048 14.8231C9.00805 14.8047 9.03502 14.8052 8.97416 14.7956C8.9319 14.7889 8.94635 14.7864 8.89553 14.8016C8.75004 14.7824 8.58587 14.7309 8.49766 14.6756L8.25632 14.5915C8.15642 14.5565 8.06047 14.5107 8.00302 14.4406L7.81149 14.3145L7.74271 14.2741C7.50138 14.1642 7.68434 14.0617 7.93267 13.7992C8.02024 13.7065 8.18726 13.5084 8.2822 13.437L8.52215 13.1856C8.56266 13.1249 8.61708 13.0731 8.68338 13.0157L8.94193 12.7369C8.96753 12.6651 8.94129 12.7039 8.99819 12.6412C9.0051 12.6336 9.02305 12.6144 9.03125 12.6079C9.06854 12.5786 9.04801 12.5914 9.09092 12.5768C9.10832 12.5166 9.31246 12.3079 9.37976 12.2445C9.59274 12.0443 9.52838 12.1014 9.7629 12.306C9.81971 12.3555 9.92855 12.4647 9.97615 12.5362L9.99604 12.565C10.0893 12.5963 10.3713 12.8958 10.5757 13.0551L10.6548 13.1505L10.6598 13.1535C10.7307 13.1818 10.7794 13.2109 10.8367 13.2773C10.9754 13.3827 11.1538 13.5153 11.3172 13.5995L11.4049 13.6438C11.4813 13.6979 11.478 13.659 11.5004 13.7498L11.4515 13.771C11.4076 13.831 11.4302 13.8175 11.3222 13.8676C11.1268 13.9585 10.4397 14.3579 10.3313 14.381ZM31.0275 13.2237C31.1948 13.2261 32.1644 13.4597 32.3897 13.5133L33.6116 13.8301C33.7029 13.8716 33.6552 13.8261 33.6833 13.8971C33.7112 13.9249 33.7294 13.9201 33.7839 13.9338C33.8593 13.9526 33.848 13.9599 33.9202 13.9427L34.1486 14.0034L34.4319 14.0866C34.5817 14.1051 34.7567 14.1727 34.8924 14.2125C35.0506 14.2587 35.1858 14.296 35.3477 14.3538C35.5379 14.4218 35.6154 14.426 35.7607 14.5327C35.8201 14.5762 36.016 14.7287 36.06 14.7972C36.145 14.8329 36.0914 14.7934 36.151 14.8612C36.1861 14.9009 36.1935 14.9113 36.2176 14.9663L36.2875 15.0571L36.427 15.2495L36.4959 15.356L36.5462 15.4335L36.7538 15.8145C37.1731 16.8085 37.2115 17.7617 36.97 18.8102C36.948 18.9058 36.8773 19.2026 36.8084 19.2637C36.7841 19.3842 36.7387 19.4884 36.6896 19.5749C36.6256 19.7057 36.5637 19.8535 36.4754 19.9539C36.4474 20.0122 36.4476 20.0146 36.4016 20.0594C36.3515 20.1501 36.2709 20.2211 36.2284 20.29C36.1771 20.3872 36.0127 20.5484 35.8796 20.6002L35.7604 20.6683C35.6725 20.7542 35.4524 20.845 35.2868 20.9052L35.1512 20.9473C35.1363 20.9592 35.1398 20.9618 35.1144 20.9762C35.0105 21.0353 33.3313 21.553 33.231 21.5576L32.9493 21.6418L32.0941 21.8733L31.6473 21.9785C31.545 21.935 31.6012 21.9647 31.5998 21.9786C31.538 22.0419 31.5297 22.0243 31.43 22.047L30.8852 22.1802C30.6976 22.2134 30.3012 22.3335 30.1066 22.3171C30.1197 22.2086 30.3144 22.0621 30.4312 21.9287C30.5331 21.8122 30.6641 21.6349 30.7741 21.5368L30.8212 21.4794L31.0319 21.1844C31.1389 20.9888 31.2694 20.8251 31.3808 20.6274C31.4401 20.5219 31.4944 20.4199 31.5417 20.3299C31.5791 20.2585 31.648 20.0914 31.6948 20.0231C31.7388 19.8578 31.8341 19.6942 31.889 19.5282C32.3024 18.2811 32.4091 17.1446 32.0549 15.8709C32.0137 15.723 31.8973 15.4537 31.8842 15.3071C31.8967 15.2616 31.9089 15.2442 31.8604 15.1992C31.8124 15.1688 31.8415 15.208 31.8131 15.1577C31.8001 15.1346 31.7995 15.121 31.7952 15.0967L31.8131 15.0966L31.7678 15.0976C31.7175 14.954 31.6461 14.8513 31.5865 14.735C31.5242 14.6137 31.4367 14.492 31.387 14.381L31.1976 14.104L31.1051 13.9772L31.0367 13.8933C30.9639 13.8304 30.8903 13.7296 30.8257 13.6595C30.7535 13.5812 30.6915 13.5117 30.616 13.4421C30.5299 13.4043 30.5321 13.3847 30.4579 13.3128C30.3773 13.2346 30.3615 13.2469 30.3221 13.1614C30.2844 13.1189 30.3078 13.1571 30.2917 13.0917C30.4448 13.086 30.8948 13.1821 31.0275 13.2237ZM18.8863 13.5813L18.7401 13.7439L18.5985 13.9136L18.5267 13.9999L18.4786 14.0583L18.4364 14.1228C18.3744 14.2547 18.254 14.3905 18.1662 14.5382C18.0876 14.6703 17.9981 14.8817 17.9156 14.991C17.8662 15.1416 17.7948 15.2705 17.7424 15.4048C17.6942 15.5281 17.6434 15.767 17.5842 15.8542C17.572 16.0059 17.5048 16.1729 17.4824 16.3327C17.4584 16.5037 17.414 16.6678 17.4017 16.843C17.3402 17.7168 17.3859 18.1471 17.588 18.9857C17.6531 19.2557 17.8717 19.7943 17.8919 19.8961L18.1051 20.3371C18.1742 20.4251 18.2403 20.5712 18.3006 20.6739L18.3452 20.75L18.3891 20.8477L18.5499 21.103L18.6208 21.2068L18.6682 21.2668L18.7168 21.3315L18.7659 21.3942L18.8604 21.5218L18.9266 21.6038C18.989 21.6562 19.317 22.0272 19.3589 22.0878L19.3907 22.1051C19.4658 22.151 19.4409 22.1455 19.4925 22.1976C19.5407 22.2465 19.5599 22.2473 19.5558 22.3388C19.2903 22.3464 19.3288 22.2973 19.3091 22.2751C19.1861 22.2877 17.3718 21.8518 17.2324 21.7885L16.7855 21.6628L16.264 21.5156L15.7148 21.3472C15.5068 21.309 14.6444 21.0213 14.4885 20.946C14.3906 20.9198 14.2147 20.8657 14.1536 20.8207C13.9902 20.7348 13.8096 20.6499 13.7082 20.5434C13.6186 20.492 13.4537 20.3384 13.3975 20.2478L13.326 20.1612L13.2806 20.1009C13.2401 20.0619 13.2695 20.105 13.2331 20.037L13.1345 19.895C13.0085 19.7752 12.8077 19.2274 12.7601 19.0944C12.5151 18.4095 12.4657 17.2595 12.6524 16.5461C12.6763 16.4548 12.6975 16.405 12.7199 16.3164C12.7318 16.2693 12.7362 16.2384 12.7506 16.1922L12.802 16.086C12.8974 15.7452 13.0415 15.5643 13.175 15.297C13.2035 15.2215 13.1881 15.2377 13.2545 15.1823L13.2982 15.1348C13.3249 15.0591 13.2789 15.1266 13.3199 15.0749C13.3716 15.0099 13.3206 15.0567 13.3857 15.0294C13.4382 14.9193 13.7286 14.6518 13.82 14.5925C13.9466 14.4037 14.8138 14.1895 15.0398 14.1217C15.2601 14.0555 15.4941 13.9794 15.696 13.928C15.8581 13.8867 16.2294 13.7594 16.3841 13.7498L16.7167 13.6662L17.2056 13.5394C17.3474 13.4698 19.2051 13.065 19.3758 13.0841C19.3679 13.1883 19.229 13.2589 19.1524 13.334C19.0766 13.4084 18.9704 13.5418 18.8863 13.5813ZM24.5167 12.6L24.6465 12.6241C24.6775 12.8273 24.5919 13.2107 24.678 13.3568C24.741 13.446 24.9369 13.4404 24.9882 13.3482C25.0185 13.2938 24.971 12.7863 24.9991 12.682C25.0006 12.6764 25.0025 12.6707 25.0044 12.6656C25.0137 12.6396 25.0226 12.6318 25.0291 12.6226C25.1477 12.56 26.0518 12.5732 26.23 12.6101C26.2314 12.6981 26.0994 13.0237 26.0599 13.0756C26.0643 13.1225 26.0704 13.0706 26.061 13.1401L26.0218 13.3091C26.0188 13.4494 26.1468 13.4775 26.2435 13.3883L26.3051 13.3386L26.3871 13.0972C26.3975 12.9915 26.5287 12.713 26.5808 12.6371C26.7126 12.5978 27.8006 12.6789 27.9156 12.7185C27.9259 12.8143 27.7346 13.0881 27.6668 13.1604C27.5921 13.2957 27.3983 13.5101 27.4434 13.7077C27.5082 13.7572 27.5354 13.7838 27.6505 13.75C27.7601 13.6432 27.8279 13.4528 27.9308 13.3143C28.0235 13.1356 28.1667 12.9338 28.2855 12.7892C28.3845 12.7693 28.4942 12.7848 28.5803 12.7877C28.6804 12.7837 29.3146 12.8807 29.4106 12.918C29.4148 13.0101 29.2636 13.1552 29.1735 13.1884C29.0841 13.2939 28.9428 13.4201 28.8357 13.5234C28.7776 13.5796 28.7238 13.6308 28.6677 13.6899C28.6204 13.7399 28.5573 13.8193 28.4946 13.8721L28.3774 14.0182C28.3365 14.1166 28.3599 14.2044 28.4585 14.2237C28.582 14.2477 28.6351 14.1559 28.6935 14.1147L28.8369 13.9451L29.209 13.5681C29.28 13.4737 29.6095 13.136 29.7296 13.095C29.8601 13.1297 30.3987 13.6008 30.4871 13.7292C30.5563 13.7904 30.629 13.8423 30.632 13.9392C30.5673 14.0091 30.3233 14.0977 30.2234 14.1506L29.9212 14.3114L29.6037 14.4646L29.3898 14.5862C29.3421 14.6365 29.2937 14.6476 29.2644 14.7097C29.2597 14.9305 29.352 14.8933 29.5355 14.8434C29.6122 14.7984 29.6214 14.7799 29.7129 14.7409L29.8245 14.6801C29.8718 14.6198 29.9805 14.5771 30.061 14.5494C30.0995 14.512 30.4198 14.354 30.4889 14.3213C30.5572 14.2891 30.6409 14.2549 30.7263 14.2161C30.8476 14.1607 30.8903 14.1611 30.9358 14.2758L31.0056 14.3602C31.0809 14.443 31.333 14.8551 31.3631 14.9705L31.4189 15.1139L31.2448 15.1597C31.0724 15.2354 30.3097 15.4172 29.9522 15.5531C29.8128 15.6061 29.6081 15.6542 29.6959 15.8198C29.7033 15.8263 29.699 15.8437 29.7552 15.8604C29.842 15.8864 29.9289 15.8484 30.016 15.8334C30.0815 15.7909 30.1646 15.7732 30.2539 15.7492C30.357 15.695 30.7657 15.5832 30.9149 15.5598C31.0281 15.5093 31.4245 15.3764 31.5622 15.4036C31.6062 15.476 31.7033 15.7929 31.7182 15.8964C31.6631 16.0206 31.7138 15.9616 31.7184 15.9648C31.7819 15.9868 31.8111 16.2057 31.8272 16.2834C31.8404 16.3463 31.9027 16.596 31.8482 16.6436C31.8421 16.6461 31.8331 16.6436 31.8294 16.6504L31.3867 16.6693C31.0602 16.6839 30.7904 16.7376 30.531 16.7583C30.374 16.7707 30.2339 16.7787 30.0764 16.7998L29.9872 16.8408C29.6823 17.2617 30.8893 16.9718 31.2919 16.9488L31.8926 16.962C32.0015 17.0038 31.933 17.9295 31.8974 18.1124C31.8861 18.1708 31.8806 18.216 31.8367 18.2688L30.5114 18.0945C30.3201 18.074 30.0683 17.988 29.848 18.0197C29.7323 18.0363 29.6693 18.1491 29.7555 18.231C29.8037 18.2768 29.9607 18.284 30.0375 18.2937C30.2511 18.3052 31.6263 18.5061 31.8167 18.5646C31.8408 18.8015 31.4913 19.8522 31.3633 19.9728C31.2644 19.9651 31.0156 19.8124 30.982 19.7589C30.9324 19.7526 30.9624 19.7708 30.8953 19.7266C30.7891 19.6964 30.6686 19.6155 30.5679 19.5697C30.4994 19.5385 30.4692 19.5248 30.4123 19.4976C30.3238 19.4552 30.3245 19.4772 30.2506 19.4089L30.1627 19.3688C30.0507 19.3297 29.9503 19.2869 29.8718 19.2164C29.7792 19.174 29.8373 19.1977 29.8084 19.1585C29.8102 19.1344 29.8442 19.1213 29.777 19.1584C29.6616 19.1224 29.5211 19.0365 29.4146 18.9963C29.2454 18.9323 29.1463 19.0225 29.1682 19.1768C29.2639 19.2556 29.4572 19.3076 29.586 19.3901C29.6741 19.4143 29.7624 19.4736 29.8472 19.52C30.0278 19.6189 30.0488 19.5954 30.1083 19.6847C30.1036 19.7107 30.0452 19.7057 30.1321 19.7057C30.1632 19.7388 30.1249 19.7175 30.1795 19.7125L30.3161 19.7689L30.6057 19.8997C30.7085 19.9278 30.7489 19.9579 30.8376 20.0055C30.9476 20.0646 30.9813 20.069 31.0347 20.1454C31.258 20.1951 31.2495 20.3716 31.1028 20.4607L31.1027 20.4844L31.0056 20.6683L30.8405 20.9227C30.8006 20.9968 30.8073 20.9951 30.7477 21.0378C30.638 21.0235 30.5483 20.9402 30.4958 20.878L30.1016 20.634L29.8651 20.5117C29.8595 20.5076 29.8435 20.4961 29.8385 20.4912C29.801 20.454 29.8379 20.4975 29.8024 20.4424L29.6878 20.3746L29.5212 20.2694L29.4535 20.2295L29.1175 20.0171L29.0513 19.9742L28.9791 19.9367L28.8854 19.895C28.7887 19.8563 28.6681 19.8284 28.612 19.9107C28.5321 20.0277 28.6349 20.0695 28.7083 20.1267L28.9703 20.2776L29.0642 20.3371L29.2989 20.486L29.4393 20.5687C29.5303 20.6016 29.5517 20.6315 29.6167 20.6703L29.7459 20.7448C29.7907 20.7794 29.7676 20.7617 29.7968 20.8L29.8885 20.8486L29.9837 20.9073L30.2199 21.0583L30.337 21.144L30.3822 21.171C30.4638 21.199 30.5219 21.243 30.5606 21.3052C30.5456 21.3735 30.5002 21.4369 30.4359 21.4734L30.0699 21.8853C30.0329 21.9588 29.9782 22.0178 29.9071 22.0627L29.9092 22.0599C29.8653 22.1331 29.7112 22.3219 29.634 22.1303C29.5111 21.9737 29.3656 21.8399 29.2284 21.7086C29.1118 21.5969 28.8635 21.3925 28.787 21.2771L28.6642 21.1379C28.6569 21.1345 28.6462 21.1225 28.6426 21.1275C28.6391 21.1322 28.6271 21.1201 28.6226 21.1171L28.5111 21.0204C28.4632 20.9762 28.4309 20.9466 28.3836 20.9022C28.2922 20.8165 28.2415 20.7251 28.0416 20.7356L27.9755 20.7982L28.0012 20.9475C28.181 21.0343 28.4945 21.4419 28.6785 21.5789C28.7494 21.6272 29.0586 21.9177 29.1019 21.9827L29.3507 22.2584C29.3734 22.2816 29.3639 22.263 29.3747 22.2992C29.4366 22.334 29.484 22.3528 29.4794 22.4532C29.3703 22.5082 28.3725 22.6668 28.2272 22.6595C28.1694 22.6045 27.9631 22.3285 27.9337 22.2523L27.8144 22.0975C27.7847 22.0638 27.7622 22.0301 27.741 21.996L27.6974 21.93L27.6513 21.8701L27.602 21.8037L27.5583 21.7414L27.4812 21.6377L27.4368 21.571L27.392 21.5146C27.3447 21.47 27.3151 21.4307 27.2925 21.3684L27.2558 21.3531L27.1266 21.3255L27.0373 21.3871L27.0395 21.5245L27.0739 21.6058L27.1192 21.6687L27.1943 21.7746L27.2398 21.8314L27.5514 22.2573L27.739 22.5094L27.7852 22.5721C27.8453 22.6358 27.8274 22.6202 27.8255 22.7047C27.6915 22.7397 27.4197 22.7694 27.2679 22.7802C27.1231 22.7904 26.8072 22.8853 26.7019 22.7978C26.6167 22.6979 26.3285 21.9783 26.2973 21.8103L26.3204 21.8057C26.2772 21.7778 26.3029 21.81 26.2734 21.7662C26.2645 21.7533 26.2581 21.7325 26.2544 21.7175C26.1884 21.574 26.1426 21.4464 26.0609 21.3051C25.9822 21.2487 25.9811 21.234 25.8506 21.2484C25.7705 21.3208 25.7658 21.3827 25.8139 21.4816C25.8569 21.57 25.8822 21.6288 25.9178 21.7316L26.0351 22.0477L26.2003 22.464C26.2569 22.5334 26.3494 22.7252 26.3369 22.8415C26.1656 22.9295 24.2683 22.9086 24.0475 22.9055C23.9326 22.9038 23.3959 22.8754 23.3236 22.8571C23.2668 22.7575 23.3842 22.6069 23.4426 22.447C23.4906 22.3159 23.5442 22.1946 23.5947 22.055C23.6425 21.9228 23.7061 21.781 23.7494 21.6722C23.8046 21.5334 23.9247 21.3768 23.8103 21.2631C23.5436 21.1492 23.4793 21.6031 23.3844 21.7468L23.2662 22.0591C23.2269 22.2285 23.0256 22.6895 22.9419 22.8241C22.7565 22.8399 21.9589 22.7485 21.8127 22.7024C21.814 22.616 21.7883 22.6532 21.852 22.5902L21.8946 22.5329L21.9461 22.4684L22.2278 22.0909L22.277 22.0263L22.3208 21.9618L22.3957 21.8571L22.4416 21.7961L22.4852 21.7298C22.5225 21.6593 22.7632 21.3785 22.5527 21.323C22.3669 21.2739 22.2851 21.5238 22.2008 21.5994L22.0351 21.8312C21.9981 21.9232 21.9071 22.0463 21.8222 22.1005C21.8119 22.1619 21.7525 22.2273 21.7 22.272L21.6563 22.3313C21.6074 22.4244 21.4758 22.6049 21.4197 22.6499C21.2617 22.6607 20.8592 22.5917 20.7331 22.5468C20.6261 22.5447 20.2408 22.4851 20.1761 22.4537C20.1734 22.3766 20.16 22.4079 20.2159 22.3583L20.2896 22.2769L20.3612 22.1975L20.5087 22.0268C20.552 21.9532 20.7514 21.7479 20.8601 21.696L21.5165 21.0546C21.6126 20.9676 21.6966 20.9403 21.6749 20.7809C21.4781 20.6121 21.2943 20.8693 21.1852 20.9706C21.0458 21.1002 20.9226 21.2283 20.7914 21.3624C20.7412 21.4484 20.53 21.6368 20.4504 21.7061C20.3785 21.7687 20.3303 21.8173 20.2785 21.8692C20.222 21.9259 20.1608 21.9974 20.0995 22.0417L20.0415 22.1131C20.0104 22.1826 20.0055 22.176 19.9518 22.211C19.8156 22.1966 19.707 22.0581 19.6548 21.9758C19.5869 21.8811 19.4425 21.781 19.4019 21.6745C19.3396 21.6563 19.224 21.5011 19.2161 21.4573C19.1389 21.4338 19.1108 21.3763 19.0913 21.3052C19.1454 21.2344 19.2385 21.1653 19.3268 21.1301L19.5295 20.9926L19.7701 20.8443L19.8335 20.8054C19.8802 20.7465 19.971 20.7015 20.0464 20.6779L20.077 20.658L20.3871 20.4667L20.5254 20.3829L20.7176 20.2579L20.7852 20.2158L20.865 20.1715C20.9843 20.0362 21.0631 20.1586 21.0358 19.8992C20.8839 19.785 20.7517 19.915 20.6088 19.9772L20.3697 20.1231L20.3068 20.1764C20.2529 20.2351 20.254 20.2281 20.1706 20.255L20.133 20.2722L20.062 20.3119L19.9902 20.3528L19.9256 20.3968L19.7563 20.5018L19.6852 20.5445L19.5447 20.6293L19.3076 20.7778C19.2559 20.8233 18.9987 21.0096 18.9338 21.0366C18.885 21.0233 18.9021 21.0338 18.8687 21.0044L18.7956 20.9052C18.7225 20.8567 18.7818 20.9074 18.7316 20.8326L18.5787 20.5905C18.5214 20.4923 18.4102 20.3441 18.4271 20.2319L18.6732 20.1076L18.8629 19.9894C18.9116 19.9386 18.9659 19.9211 19.039 19.8843C19.0956 19.8559 19.17 19.814 19.2359 19.7963L19.4619 19.7075L19.5494 19.665C19.5672 19.6489 19.5539 19.6494 19.5829 19.634C19.6429 19.6022 19.5766 19.6235 19.6676 19.605L19.7928 19.5381C19.8342 19.5127 19.897 19.4805 19.9582 19.4552L20.0252 19.4165C20.1209 19.3412 20.2478 19.2899 20.3594 19.247C20.5471 19.1747 20.5185 19.0844 20.4071 18.9889L20.2263 18.9945L20.197 19.0159C20.1937 19.0178 20.1861 19.0227 20.1819 19.0249L19.6915 19.2616L19.401 19.4094L19.2645 19.4739C19.1986 19.5186 19.0819 19.5716 18.9951 19.6112C18.8856 19.6611 18.8217 19.7066 18.7127 19.7477L18.5997 19.8073L18.5312 19.8583C18.4802 19.9082 18.3795 19.9709 18.2946 19.9906C18.2139 19.9361 18.2052 19.9014 18.1762 19.8089L18.1289 19.6214C18.0406 19.5222 17.8199 18.7374 17.8409 18.5647C18.0842 18.4907 18.4177 18.4643 18.6881 18.4187C18.9655 18.3719 19.2858 18.3245 19.555 18.2913C19.694 18.2742 19.9076 18.2958 19.9279 18.1666C19.9783 17.8463 19.0947 18.1479 18.6496 18.1482C18.58 18.1243 18.5752 18.1191 18.4869 18.1299C18.4817 18.1305 18.4378 18.1408 18.432 18.1429C18.362 18.1677 18.4068 18.1423 18.3891 18.1693C18.2821 18.2364 17.8244 18.2783 17.7763 18.271C17.7217 18.1076 17.63 17.0492 17.7446 16.965C17.8345 16.8642 18.6301 16.9735 18.777 16.9965C18.9523 17.0238 19.1604 17.016 19.315 17.04C19.5428 17.0753 19.7193 17.1281 19.6972 16.877C19.5511 16.7771 19.4604 16.7937 19.2315 16.7721C19.1139 16.761 18.7623 16.7123 18.6881 16.7183C18.5527 16.7235 17.8286 16.6851 17.7522 16.6544L17.8166 16.2117C17.851 16.1139 17.8261 16.1784 17.8562 16.1441C17.8746 15.9967 18.0229 15.5182 18.1052 15.4063C18.2414 15.3911 18.7242 15.5412 18.8825 15.5855C19.0189 15.6237 19.5173 15.7935 19.5964 15.7913C19.7323 15.824 19.7875 15.8802 19.9356 15.8394C19.9922 15.6936 19.9378 15.7008 19.8335 15.6052C19.6636 15.5241 19.2768 15.4068 19.0745 15.3549C18.8126 15.2877 18.5082 15.2079 18.2459 15.1194C18.2423 15.0043 18.3601 14.7974 18.4135 14.7407L18.4616 14.6584L18.5077 14.5771L18.6747 14.3206C18.7196 14.2457 18.723 14.2352 18.7917 14.1874C18.8744 14.1945 18.9818 14.2363 19.0286 14.2746C19.119 14.298 19.1967 14.3171 19.2504 14.3862L19.3425 14.4209C19.4293 14.439 19.3795 14.4047 19.426 14.4657L19.5021 14.5132C19.5516 14.5251 19.5639 14.5282 19.5995 14.5463C19.6057 14.5494 19.6222 14.5587 19.6277 14.5624C19.6592 14.5841 19.6463 14.5753 19.6676 14.5982L19.7788 14.6595L19.8964 14.7205L19.9823 14.7583C20.028 14.7736 20.0151 14.7595 20.0458 14.7799C20.1223 14.8309 20.0634 14.78 20.0973 14.838L20.1817 14.8767C20.3841 14.8878 20.4056 14.8586 20.3603 14.6816L20.2651 14.5866L20.1963 14.5494L19.7626 14.3179L19.4816 14.1658C19.4082 14.1359 19.4121 14.1467 19.3639 14.0865C19.3702 14.0617 19.4044 14.0499 19.3362 14.0851L19.0154 13.9536C19.0274 13.8436 19.0735 13.8103 19.1957 13.688L19.6416 13.2844C19.9962 12.9984 19.8826 13.0245 20.5587 13.6733C20.6617 13.7722 20.7575 13.8595 20.855 13.9776C20.9429 14.0843 21.0118 14.2342 21.2113 14.214L21.2805 14.156C21.2967 14.0089 21.2523 14.0201 21.1851 13.912L21.1381 13.8549C21.0965 13.8254 20.8875 13.605 20.8516 13.5559L20.2982 13.0179C20.2334 12.9881 20.2609 13.034 20.2316 12.9501C20.2698 12.8843 20.2443 12.8938 20.3437 12.8943C20.6188 12.9015 21.0376 12.7587 21.3522 12.7816C21.3769 12.8079 21.3933 12.824 21.4195 12.8659C21.4751 12.9074 21.7711 13.3401 21.7983 13.4551C21.7779 13.5209 21.7782 13.4639 21.7994 13.5191C21.8341 13.61 21.8255 13.5552 21.8458 13.5625C21.9166 13.6101 21.9037 13.6119 21.9375 13.6939C22.0389 13.7767 22.0837 13.8033 22.208 13.7077C22.2536 13.4897 22.1219 13.4605 22.0915 13.3141C22.0223 13.2728 21.8207 12.9431 21.7892 12.8546C21.742 12.7995 21.7466 12.821 21.7464 12.7396C21.8555 12.6785 22.8732 12.6056 23.0532 12.6356C23.1164 12.7202 23.2044 12.8808 23.2073 12.9678C23.2439 12.9994 23.2126 12.9502 23.256 13.0215L23.3283 13.2216C23.3617 13.3277 23.3716 13.3569 23.4434 13.4398L23.5926 13.4321C23.7666 13.2179 23.3617 12.8147 23.4202 12.6044C23.613 12.5581 24.3463 12.5557 24.5167 12.6ZM22.8335 12.3187C22.8268 12.3228 22.8179 12.3219 22.8132 12.3307C22.8085 12.3395 22.7986 12.3393 22.7921 12.3412C22.7568 12.3514 22.76 12.3504 22.7227 12.3555L21.8457 12.4238C21.7223 12.4605 21.2722 12.5015 21.1062 12.5225C20.3576 12.6173 19.6449 12.7274 18.9095 12.883L16.8366 13.345C16.6266 13.3952 16.354 13.4905 16.1401 13.5181C16.073 13.4959 15.9927 13.5006 15.9479 13.5393C15.9151 13.5794 15.9556 13.5573 15.901 13.5821C15.871 13.5958 15.8636 13.5942 15.8323 13.5986C15.7672 13.5812 15.7547 13.5866 15.7076 13.597C15.6695 13.6055 15.6801 13.6042 15.6584 13.6146C15.5967 13.6438 15.6345 13.6175 15.6178 13.6446C15.5493 13.7192 15.1688 13.8014 15.0488 13.8364L13.3226 14.381L13.3194 14.3961C13.0408 14.4723 12.7397 14.587 12.4794 14.6861L11.6417 14.9914C11.6118 15.0185 11.6397 15.0037 11.5876 15.0273L10.5291 15.4333C10.4619 15.3964 10.4961 15.4095 10.4957 15.4334L10.3396 15.517L8.29021 16.4647L8.20218 16.5222C8.04187 16.6007 7.54226 16.8714 7.45175 16.8865L7.4523 16.8746C7.40497 16.9553 7.42652 16.8994 7.33858 16.9582C7.30995 16.9907 7.35138 17.0036 7.16382 17.0334C7.1768 16.9195 7.16704 16.949 7.24908 16.9177C7.34659 16.8396 7.47421 16.7149 7.58112 16.6221L8.30089 16.0387C8.38717 15.9682 8.55944 15.833 8.68605 15.7703L9.02038 15.5413L9.30426 15.3527L9.47064 15.2469L9.635 15.1434L9.70452 15.0996L10.0834 14.8653L10.1584 14.8264L10.2277 14.7854L10.2996 14.7436L10.3681 14.7017C10.4116 14.6668 10.4132 14.6636 10.4584 14.6546C10.4971 14.5982 10.4432 14.6457 10.5114 14.5966C10.5137 14.595 10.571 14.5639 10.5837 14.5565C10.6495 14.5177 10.6515 14.5107 10.7408 14.485C10.8175 14.4318 11.1504 14.247 11.263 14.2145C11.3318 14.2494 11.2967 14.237 11.2911 14.2128C11.3377 14.1517 11.3309 14.1659 11.4052 14.1313L11.9551 13.8551L12.0444 13.813C12.1397 13.7484 12.4976 13.5715 12.5936 13.5603C12.6628 13.4805 12.6279 13.5268 12.7335 13.4783C12.7743 13.4596 12.8284 13.4333 12.876 13.4121C12.987 13.3626 13.0498 13.3152 13.1808 13.2869L13.6806 13.0765L14.3173 12.8239L14.6961 12.6765C14.867 12.57 17.0494 11.8512 17.2803 11.8347C17.3647 11.7956 17.6981 11.7074 17.7891 11.684C17.9696 11.6375 18.1566 11.5832 18.3228 11.5469C18.6794 11.4692 19.0686 11.3518 19.4311 11.3086C19.8558 11.1459 22.1151 10.8621 22.6739 10.8229C24.0909 10.7236 26.2166 10.7371 27.6203 10.8777L28.7094 11.0352L29.2476 11.1191L29.6813 11.2243L29.7059 11.2034C30.0863 11.2328 30.6244 11.393 31.0031 11.4659C31.1769 11.4993 31.4279 11.574 31.606 11.6178C31.7039 11.6419 31.8291 11.6704 31.923 11.699L32.2154 11.7932C32.2277 11.7962 32.2727 11.8033 32.285 11.8086C32.3533 11.8376 32.3157 11.8182 32.3513 11.8556C32.3652 11.8703 32.3385 11.87 32.4007 11.882C32.494 11.9 32.4103 11.9034 32.4997 11.8768C32.6884 11.9016 33.5172 12.1514 33.6323 12.2162C33.6639 12.2245 33.693 12.2293 33.7191 12.2403C33.7261 12.2433 33.7472 12.2527 33.7536 12.2567C33.7996 12.2854 33.7666 12.2638 33.7989 12.2976L33.8018 12.2767C33.9176 12.2889 34.0571 12.3401 34.1623 12.3811L34.4882 12.5083L35.0016 12.698L35.8109 13.0158C35.882 13.0386 35.8532 13.0224 35.904 13.0586C35.908 13.0598 35.9545 13.0753 35.9554 13.0759C36.0023 13.1074 35.9648 13.0766 36.0001 13.1184C35.9992 13.1608 35.9698 13.1265 36.0288 13.1404C36.0831 13.1531 36.0332 13.1541 36.0983 13.1396C36.2451 13.1635 37.2567 13.6178 37.3529 13.6898L37.4209 13.7151C37.5422 13.7539 37.7093 13.8443 37.8219 13.9008L38.2053 14.1097L38.6018 14.3213L38.7925 14.4245L39.0265 14.5553L39.0951 14.5959L39.2431 14.6776C39.3087 14.7051 39.3723 14.7406 39.4297 14.7854L39.4997 14.8263L39.6715 14.931C39.738 14.9644 39.6965 14.9392 39.7381 14.9739C39.8089 15.0044 39.7669 14.9814 39.809 15.015L39.9773 15.1222L40.0445 15.1615L40.2129 15.2652L40.5696 15.4992C40.8291 15.6397 41.8821 16.4256 42.0192 16.5913C42.1275 16.6302 42.2144 16.7295 42.2985 16.804L42.3661 16.8906C42.4144 16.9034 42.3792 16.8505 42.4495 16.9446C42.4722 16.9747 42.474 16.9818 42.4785 17.0235C42.3789 17.0256 42.3117 16.9952 42.2609 16.9268L41.9029 16.7373L41.7802 16.6705C41.7114 16.6524 41.6612 16.6254 41.6147 16.5908C41.4874 16.5589 41.3392 16.4608 41.2094 16.4002L40.9033 16.2533C40.8488 16.2284 40.839 16.2177 40.8097 16.191C40.7178 16.1598 40.594 16.1037 40.5317 16.0617L40.4386 16.0226L39.697 15.6859L37.9708 14.9887C37.6749 14.8668 37.3968 14.7734 37.0818 14.6604L36.1931 14.318C36.2013 14.272 36.2258 14.3118 36.1671 14.296C36.117 14.2824 36.1598 14.2839 36.0983 14.2943C35.9939 14.2776 35.9168 14.2575 35.8413 14.2127C35.7344 14.1967 35.5483 14.1273 35.4261 14.0909C35.3054 14.055 35.1186 14.0145 35.033 13.9601C34.7097 13.8854 34.4178 13.7714 34.0901 13.6871C33.9305 13.646 33.7624 13.587 33.6076 13.551C33.4481 13.514 33.2452 13.4736 33.1172 13.4107L32.4573 13.2446C32.3345 13.2379 31.7376 13.0826 31.5091 13.0388C30.915 12.9251 30.1267 12.7284 29.5411 12.6679L28.8215 12.5502C28.6931 12.5335 28.6298 12.5442 28.546 12.487L28.5459 12.508C28.4995 12.5053 28.4486 12.5033 28.4028 12.4987C28.301 12.4882 28.3104 12.5037 28.2659 12.445C28.2205 12.4081 27.0913 12.3235 27.0063 12.3193C26.2528 12.2821 23.9377 12.2403 23.1704 12.2965C23.1103 12.3009 23.0407 12.2968 22.9799 12.2965C22.9598 12.2963 22.9071 12.2962 22.8894 12.2986C22.8196 12.3085 22.8519 12.2915 22.8335 12.3187ZM39.4427 12.3644L39.3538 12.4603C39.3159 12.5332 39.2859 12.5488 39.2328 12.6006C39.1503 12.6808 39.1608 12.6917 39.0661 12.7238L38.6988 13.0296L38.3672 13.2652L38.1991 13.3681C38.1401 13.4143 38.0662 13.4522 37.9923 13.4721C37.902 13.4598 37.9528 13.4759 37.8679 13.4894C37.772 13.5047 37.7787 13.4859 37.6845 13.5181C37.5389 13.4857 37.4058 13.4007 37.2696 13.3409C37.1409 13.2845 36.9679 13.2187 36.8801 13.159L36.695 13.0743L36.0057 12.7815L35.5778 12.6264L35.4606 12.5754C35.4787 12.4711 35.6598 12.386 35.759 12.3572L35.8668 12.3006C35.9097 12.2656 35.8657 12.2904 35.938 12.2578C35.9849 12.2146 36.4125 11.9254 36.4579 11.9021L36.6192 11.7737L37.118 11.3319C37.2076 11.2511 37.2697 11.1779 37.3514 11.0957C37.4238 11.0226 37.4974 10.9276 37.5929 10.8456L37.6636 10.7663L37.7346 10.6806L37.7825 10.6187L37.8025 10.5924C37.8331 10.498 37.9393 10.3407 38.0396 10.305C38.1421 10.3247 38.0624 10.3001 38.0925 10.3558L38.1055 10.3643L38.3888 10.5775L38.8341 10.9218C38.9309 10.9546 38.838 10.9103 38.8937 10.9468L39.4261 11.4389L39.8213 11.8173C39.9872 11.9145 39.7592 12.0838 39.5912 12.2457C39.5138 12.3202 39.5431 12.3259 39.4427 12.3644ZM10.0017 11.6631L10.0921 11.5679C10.1482 11.4554 10.7679 10.9077 10.8985 10.8456L11.1447 10.6499C11.1865 10.5737 11.1865 10.5897 11.2558 10.544C11.3113 10.5075 11.3239 10.4927 11.3948 10.4586L11.4556 10.4281C11.4978 10.3828 11.5398 10.3465 11.6182 10.3221C11.713 10.3677 11.7266 10.4326 11.8061 10.5328C11.8675 10.6103 11.9217 10.6624 11.9721 10.7445C12.0624 10.8309 12.1344 10.9266 12.2131 11.0117C12.2828 11.0871 12.4163 11.2084 12.4704 11.2895L12.6465 11.438C12.7194 11.4761 13.0053 11.7095 13.0434 11.7865C13.201 11.9012 13.3506 11.9831 13.4863 12.1119L13.5514 12.1533L13.6499 12.2136L14.034 12.4426C14.1203 12.4946 14.1216 12.479 14.1607 12.5502C14.1023 12.6368 13.7368 12.7492 13.6258 12.7979L12.5373 13.2668C12.4586 13.3029 12.078 13.5094 12.0039 13.4973C12 13.5036 12.0123 13.5811 11.8312 13.5616C11.7023 13.5477 11.4594 13.4215 11.4007 13.329C11.3137 13.3272 11.0824 13.122 10.9912 13.0762C10.8965 13.0302 10.5156 12.6985 10.4582 12.6226L10.4035 12.5711C10.3212 12.5306 10.2269 12.433 10.1866 12.3545L10.0114 12.1677L9.86989 12.0185L9.85599 12.0212C9.75581 11.9605 9.72082 11.9087 9.80341 11.8218C9.85047 11.7724 9.91658 11.6928 10.0017 11.6631ZM37.5714 10.3425L37.5147 10.4189L37.3976 10.568C37.3409 10.6636 37.075 10.9676 36.9936 11.0303C36.8893 11.1916 36.1614 11.8169 35.9287 11.9359L35.7625 12.0437L35.381 12.2757L35.3164 12.3138L35.2918 12.3366C35.0885 12.485 35.0891 12.4233 34.7791 12.3151C34.5978 12.2518 34.3597 12.1758 34.2075 12.1081L33.6408 11.9187C33.4293 11.8686 33.2387 11.7849 33.0327 11.7349C32.881 11.6981 32.5659 11.572 32.4309 11.5724L32.2325 11.5074C32.2417 11.3968 32.3819 11.304 32.4482 11.2418C32.496 11.1971 32.5257 11.1663 32.571 11.1195L32.6628 11.0312C32.7144 10.9969 32.64 11.0361 32.7196 11.0034C32.7581 10.9813 32.7383 10.9882 32.7864 10.9509L32.9272 10.8063L33.1904 10.5114L33.2626 10.4295L33.308 10.3685L33.4941 10.1125L33.6125 9.94245L34.2531 8.78762C34.3054 8.70429 34.2509 8.76576 34.3226 8.71993C34.3383 8.71878 34.3717 8.76871 34.3227 8.67777L34.4585 8.26884L34.4838 8.1924C34.5271 8.19354 34.5091 8.1847 34.5543 8.1987C34.6202 8.219 34.5668 8.2005 34.6033 8.2361L34.6749 8.27908L34.8378 8.36215L35.2431 8.57431L35.3585 8.63676L36.0473 9.0168L36.1625 9.08285L36.3044 9.16634L36.3751 9.20514L36.5202 9.29084L36.6952 9.39184C36.7439 9.40453 36.7462 9.39921 36.7785 9.4218C36.8284 9.45651 36.7783 9.40993 36.8123 9.47156C36.8467 9.48843 36.8156 9.46698 36.8525 9.49866L37.0553 9.62062C37.132 9.64296 37.112 9.63527 37.1749 9.67807C37.1768 9.67938 37.2267 9.71532 37.2276 9.71622C37.2688 9.75649 37.227 9.70451 37.2617 9.76606L37.5524 9.95711C37.9098 10.0721 37.6328 10.3103 37.5714 10.3425ZM12.138 9.93607C12.1851 9.85152 12.3275 9.77826 12.4121 9.71982C12.5042 9.65622 12.6118 9.56553 12.7206 9.53664L12.7594 9.5233L12.9265 9.41763C12.9963 9.35493 13.5334 9.02957 13.685 8.97276L13.7726 8.93577C13.8456 8.96572 13.8061 8.95328 13.7992 8.93028C13.8264 8.89132 13.7914 8.909 13.8643 8.863C13.887 8.84876 13.9107 8.8418 13.9455 8.82854C14.0008 8.78492 13.9471 8.81127 14.033 8.78737C14.1054 8.81905 14.0663 8.80546 14.0621 8.78295C14.0937 8.73785 14.0511 8.76977 14.1148 8.72655C14.1396 8.70969 14.1473 8.71256 14.1811 8.69995L14.2534 8.66173L14.3676 8.5992L14.7731 8.38319L14.8932 8.3236L15.0511 8.2393L15.1681 8.21892L15.3824 8.78312C15.4585 8.87258 15.6132 9.23894 15.6911 9.37203C15.7441 9.4624 15.7947 9.55014 15.857 9.64648C15.9045 9.72007 15.9894 9.82999 16.0147 9.90742C16.0779 9.95179 16.2429 10.1827 16.2697 10.2632L16.2769 10.2841L16.3237 10.3452L16.5873 10.6603L16.8801 10.9508L17.3849 11.4063C17.4669 11.5334 17.3723 11.5115 17.3671 11.5165L16.6609 11.7082C16.5735 11.6822 16.6542 11.6835 16.5605 11.7036C16.5153 11.7132 16.5327 11.7122 16.5161 11.7226C16.4633 11.7557 16.5095 11.7164 16.4887 11.7505C16.4064 11.8183 15.9619 11.9412 15.856 11.9594C15.7868 11.9239 15.8227 11.9376 15.8252 11.9609C15.7952 11.9867 15.828 11.972 15.7772 11.9979C15.7577 12.0078 15.7493 12.0095 15.7251 12.0171C15.6942 12.0269 15.6519 12.0353 15.6191 12.045L14.6829 12.3897C14.5443 12.4474 14.4576 12.433 14.3646 12.3352L14.301 12.2941C14.2484 12.2708 14.2534 12.2715 14.2121 12.2462C14.177 12.2246 14.1973 12.2439 14.1682 12.2178C14.1289 12.1827 14.1655 12.221 14.131 12.1713L14.1277 12.1713C14.0046 12.1419 13.9593 12.0826 13.8791 12.0508L13.6115 11.8929C13.5706 11.851 13.6118 11.9036 13.578 11.843C13.5043 11.7846 13.4074 11.7168 13.3206 11.6471C13.2442 11.5858 13.1458 11.489 13.0556 11.4346C12.9756 11.3896 12.9596 11.3761 12.9203 11.3142L12.7358 11.1147L12.5194 10.8838C12.4787 10.848 12.4579 10.8256 12.427 10.7783L12.2352 10.5452C12.1996 10.5097 12.2228 10.5397 12.1886 10.486L12.1192 10.3985C12.0799 10.3583 12.0508 10.3093 12.0148 10.2605C11.952 10.175 11.9428 10.1855 11.9385 10.0754L12.138 9.93607ZM34.0598 8.38303L34.0147 8.48436C33.9761 8.69603 33.6186 9.42155 33.4927 9.5616L33.445 9.63862L33.3277 9.82966L33.1668 10.0671C33.1324 10.1684 32.9586 10.4059 32.8786 10.4258C32.8648 10.495 32.618 10.7471 32.5445 10.7998C32.4613 10.9166 32.0344 11.3018 31.9495 11.3475C31.8979 11.442 31.4201 11.2903 31.3439 11.2662C31.1871 11.2515 30.9434 11.1726 30.7763 11.1406L29.6119 10.9077C29.4615 10.8779 29.1394 10.8474 29.0345 10.7823C29.0383 10.68 29.1378 10.5895 29.2114 10.5299L29.2305 10.5056L29.4375 10.2054C29.4751 10.1711 29.4379 10.2014 29.4928 10.1699L30.0453 9.23395C30.0966 9.1386 30.1389 8.9708 30.2267 8.91015C30.2221 8.86513 30.5265 8.13936 30.5738 8.00209C30.6317 7.83405 30.848 7.17531 30.8303 7.01807C30.8301 6.93524 30.8793 6.67054 30.9252 6.60653C31.0449 6.58623 31.4975 6.7442 31.5686 6.80567L32.5386 7.23097C32.6292 7.27083 33.4148 7.61715 33.4938 7.68868C33.5893 7.72462 34.0968 7.95732 34.1556 8.02534C34.1779 8.14697 34.1126 8.2925 34.0598 8.38303ZM15.6949 7.91664C15.7253 7.88603 15.6888 7.90739 15.7518 7.87006L15.8892 7.80409C16.0504 7.72756 16.3342 7.56681 16.4692 7.53718L16.5944 7.48029C16.6524 7.43846 16.737 7.40114 16.8329 7.37306L16.9215 7.33247C16.9672 7.27452 17.0753 7.24415 17.1459 7.21468L17.5856 7.01611C17.6772 6.98411 17.7382 6.94613 17.8324 6.92354C17.903 6.88147 18.3051 6.70131 18.4196 6.69935C18.4653 6.65056 18.461 6.65588 18.5469 6.6319C18.6415 6.60555 18.6259 6.6026 18.7306 6.61856L18.9206 7.46457C19.006 7.76268 19.0823 8.02697 19.1952 8.29455C19.2534 8.4323 19.2982 8.56457 19.3574 8.69938C19.4027 8.8026 19.5095 9.00812 19.5255 9.11969L19.502 9.11985C19.6127 9.17133 19.5606 9.16209 19.6432 9.30991C19.6821 9.3794 19.7111 9.4263 19.7523 9.50701C19.807 9.61407 19.919 9.80445 19.9811 9.87747L20.07 10.0029C20.0876 10.0985 20.2477 10.2586 20.3068 10.3653L20.4214 10.5089C20.48 10.5509 20.493 10.5813 20.5423 10.6372C20.5848 10.6855 20.6222 10.7058 20.632 10.7823C20.5574 10.8252 19.6441 10.989 19.502 10.9927L19.5019 10.9717C19.4695 11.0255 19.5366 11.0014 19.3297 11.0492L18.7401 11.1611L18.1761 11.2874C18.0879 11.2537 18.1661 11.2675 18.0975 11.281C18.0372 11.2927 18.0645 11.2938 18.0516 11.3085C18.0066 11.3472 18.053 11.3336 17.9271 11.3641C17.882 11.375 17.8375 11.3927 17.797 11.3913C17.724 11.3889 17.6433 11.312 17.5992 11.2743C17.5112 11.199 17.3257 11.0528 17.279 10.9507L17.2765 10.9471C17.1612 10.8989 17.0981 10.8045 17.0276 10.73C16.9693 10.6686 16.8865 10.5912 16.8302 10.5052L16.5915 10.2089L16.4995 10.083L16.4006 9.93534L16.3598 9.87591C16.28 9.80282 16.1565 9.60032 16.1165 9.49645L15.9745 9.24475C15.9055 9.15439 15.715 8.76822 15.6904 8.61458C15.7361 8.52962 15.7078 8.57259 15.6902 8.56809C15.6473 8.53773 15.676 8.57227 15.645 8.52708C15.6437 8.52512 15.6263 8.48182 15.6243 8.47617C15.6152 8.45072 15.6067 8.41749 15.5963 8.38033C15.5424 8.30494 15.4885 8.12127 15.4956 8.0192L15.6949 7.91664ZM30.5108 6.90741C30.4822 7.12825 30.4429 7.32207 30.3687 7.4983L30.2731 7.82996L30.1557 8.16727C30.137 8.38114 29.8918 8.87774 29.8084 9.06354C29.7424 9.21087 29.6779 9.32391 29.592 9.47705C29.5258 9.59475 29.4012 9.77278 29.3721 9.86142C29.2874 10.0092 29.164 10.168 29.0611 10.2941L28.7671 10.6413C28.7242 10.676 28.7476 10.6578 28.6919 10.6811C28.6297 10.7644 28.1152 10.6839 27.9968 10.6614C27.8232 10.6285 27.5032 10.604 27.3145 10.5913L25.9076 10.4954C25.8986 10.4277 25.9144 10.4084 25.9458 10.3664L26.1569 10.0458L26.205 9.96791L26.2495 9.88172L26.9281 8.08451C26.9293 8.07559 26.9335 8.07314 26.9364 8.06757L27.0781 7.40024L27.1442 6.93099C27.1596 6.76057 27.1729 6.81476 27.1964 6.78619L27.1729 6.78365C27.1744 6.65269 27.2338 5.76305 27.2644 5.71018C27.3062 5.66663 27.3876 5.68717 27.4431 5.70052L28.4942 5.96408C28.6117 5.98716 28.74 5.9978 28.8284 6.04716L29.9147 6.30008C30.0469 6.32725 30.1301 6.34542 30.2502 6.37644C30.3505 6.40231 30.4857 6.41704 30.5666 6.46795C30.5967 6.61119 30.5529 6.79364 30.5108 6.90741ZM20.4554 6.1313L20.8752 6.02759C20.9542 5.98168 21.0031 5.98667 21.0841 5.96956L22.3217 5.67424C22.4692 5.68333 22.4193 5.77345 22.4274 6.02604C22.4311 6.14309 22.4431 6.23722 22.4549 6.34297C22.4789 6.55955 22.5102 6.77547 22.5133 6.99401C22.559 7.26977 22.6197 7.73108 22.7096 7.9935C22.7359 8.07036 22.7435 8.16195 22.7686 8.2384L22.9821 8.9356L23.0768 9.18697L23.2181 9.50332L23.3135 9.71638L23.3552 9.79733C23.4121 9.86224 23.4995 10.0177 23.5266 10.1299C23.4854 10.1892 23.4983 10.16 23.5268 10.1554C23.5718 10.1838 23.5439 10.1515 23.5878 10.2056C23.605 10.2266 23.6012 10.2304 23.615 10.2607L23.6891 10.3658C23.7408 10.4239 23.7275 10.3995 23.7274 10.4954C23.4433 10.5405 22.595 10.5405 22.1616 10.6035C22.0306 10.6226 21.919 10.6252 21.775 10.6385C21.6643 10.6487 21.558 10.6772 21.4414 10.6902C21.098 10.7288 20.9823 10.7873 20.828 10.5457L20.6663 10.3545L20.6202 10.2953L20.3807 9.97577L20.2856 9.83507C20.2587 9.80707 20.2535 9.80118 20.2267 9.75698C20.137 9.60908 19.9392 9.2978 19.9045 9.15971L19.7151 8.73932C19.6339 8.6258 19.5829 8.42829 19.527 8.27277L19.4311 8.00217L19.3127 7.60126C19.2301 7.44837 19.0442 6.67536 19.0879 6.46795L20.4554 6.1313ZM25.7759 10.0877C25.7467 10.0836 25.7522 10.0316 25.7522 10.1089C25.7142 10.1371 25.738 10.102 25.7474 10.1509C25.7193 10.2248 25.69 10.277 25.6277 10.3344L25.5862 10.3975C25.5491 10.4569 25.552 10.4393 25.5159 10.4856L24.2351 10.4959C24.0967 10.4873 24.0523 10.4166 24.0027 10.3123L23.9327 10.2117C23.8622 10.1423 23.7917 10.0035 23.7399 9.89736C23.6145 9.75657 23.4063 9.20661 23.3124 8.97276C23.1926 8.67425 23.0848 8.28366 23.015 7.9511C22.9716 7.7436 22.9408 7.61485 22.9097 7.39549C22.849 6.96618 22.7097 5.97005 22.7691 5.60303C22.9159 5.53821 23.3947 5.45955 23.5978 5.45791L23.5981 5.47878C23.675 5.37311 23.9933 5.38866 24.1145 5.3655C24.3191 5.32646 25.5137 5.31533 25.7408 5.40094C25.8005 5.42345 25.7643 5.41248 25.7976 5.43671L25.7995 5.41576C26.0167 5.41592 26.7679 5.53002 26.8986 5.61506C26.9385 5.89786 26.8484 6.5769 26.8143 6.88359C26.7038 7.87858 26.5028 8.71575 26.0555 9.64501L25.8749 9.98133C25.8361 10.048 25.8535 10.0439 25.7759 10.0877ZM25.9323 1.24642C25.9595 1.26443 25.9516 1.2578 25.9769 1.27924C26.0646 1.35381 26.0845 1.39162 26.131 1.48084C26.4114 2.01926 26.7455 3.11615 26.7465 3.66897L26.7615 3.71006C26.7633 3.71751 26.7649 3.72291 26.7665 3.7311C26.7711 3.75434 26.7694 3.76932 26.7715 3.79199C26.776 3.84037 26.7749 3.83333 26.7833 3.87859C26.8356 4.1627 26.9326 5.07779 26.8967 5.27702C26.808 5.30092 26.7491 5.30043 26.6757 5.24723C26.3621 5.20254 26.053 5.09498 25.7481 5.07125C25.0776 5.01911 24.3455 4.97613 23.6806 5.10685C23.5106 5.14025 22.8928 5.29159 22.7772 5.28209C22.6555 4.83232 23.078 2.25958 23.3634 1.84058L23.4321 1.6939C23.4506 1.60059 23.498 1.5216 23.5384 1.44868C23.5815 1.37092 23.6714 1.30363 23.6794 1.25305C23.7067 1.0995 23.7091 1.01732 23.5221 1.02018C23.4621 1.04245 23.4475 1.13527 23.3633 1.20509C23.1 1.53134 22.9008 2.33136 22.7706 2.71696C22.7528 2.76983 22.7551 2.7867 22.7416 2.83114C22.7233 2.89147 22.7415 2.84882 22.7214 2.88246L22.6744 2.93215L22.698 2.95335C22.6858 3.12008 22.5385 3.78708 22.5011 4.12398C22.4799 4.3151 22.4711 4.5618 22.4359 4.74466C22.4056 4.90247 22.4463 5.22594 22.394 5.35044C22.3502 5.44514 22.2512 5.42869 22.0925 5.46716C21.9707 5.49663 21.8824 5.52298 21.751 5.54181L20.3751 5.88067C18.9699 6.17583 19.017 6.36703 18.9816 5.90072C18.9032 4.86482 18.9464 3.69525 19.2887 2.70345C19.3911 2.40683 19.4408 2.53705 19.42 2.35166L19.3798 2.33128C19.3733 2.32808 19.352 2.31589 19.3445 2.31311C19.2647 2.28331 19.2401 2.30451 19.1615 2.33029C19.1476 2.35067 19.1342 2.37916 19.1146 2.41517C19.0943 2.4525 19.1043 2.44145 19.0768 2.47173C18.9655 2.59443 19.1667 2.41223 19.0284 2.51127C19.0128 2.51241 18.9794 2.46248 19.0283 2.5535C19.0117 2.67325 18.9432 2.88295 18.9059 3.01187C18.8735 3.12343 18.8527 3.37136 18.768 3.45419L18.7428 3.51951C18.7075 3.68379 18.6736 3.70818 18.7206 3.81622C18.6747 4.49149 18.5797 4.94937 18.6199 5.66671C18.6278 5.80807 18.6724 6.13728 18.6518 6.25956L18.5549 6.29942C18.4869 6.34534 18.3547 6.38447 18.2641 6.42523L16.3703 7.28868L16.282 7.33075C16.2095 7.40049 16.0323 7.46376 15.9096 7.52801C15.83 7.56967 15.6057 7.69384 15.5222 7.70661C15.5019 7.75654 15.5042 7.77364 15.4062 7.76734C15.3319 7.70808 15.3581 7.72445 15.3332 7.63098C15.3157 7.56558 15.2927 7.54045 15.2937 7.47505C15.2917 7.33901 15.2449 7.1817 15.2213 7.05204C15.0868 6.31309 14.9571 5.17462 15.1507 4.47038C15.1971 4.30193 15.2977 4.25101 15.2079 4.1194C14.9217 4.03681 14.8838 4.3963 14.8386 4.63162C14.7817 4.92801 14.7603 5.1815 14.7587 5.49982C14.7569 5.82411 14.7792 6.10044 14.8027 6.40419C14.8223 6.65883 14.9082 7.00989 14.9089 7.25086C14.94 7.32453 15.06 7.85721 15.0507 7.94283L14.3161 8.31984L13.8415 8.57243C13.7875 8.6127 13.7288 8.647 13.6477 8.67769L13.5794 8.71493C13.5055 8.77779 13.053 9.03415 12.9623 9.07442L12.7247 9.22216L12.2085 9.55996C12.1697 9.5959 12.1934 9.58747 12.1356 9.60392L12.049 9.6915C12.0075 9.71949 11.9921 9.72915 11.955 9.75518C11.8884 9.802 11.8496 9.85381 11.7365 9.84726C11.6628 9.75403 11.5316 9.56078 11.5235 9.45028L11.4086 9.21766L11.3342 9.05183L11.2908 8.96728L11.0501 8.38303C11.0472 8.37762 11.0437 8.37058 11.0418 8.36666C10.8768 8.01936 10.733 7.2949 10.6864 6.93148C10.6732 6.82802 10.6792 6.43693 10.6433 6.38954C10.5943 6.31579 10.3596 6.21479 10.3669 6.61496C10.3703 6.80248 10.393 7.00138 10.4135 7.1844C10.4865 7.8361 10.6888 8.50441 10.9604 9.08948L11.3813 9.92257C11.4304 9.97577 11.4471 9.9896 11.4449 10.0945L11.2824 10.2095L11.1124 10.336L11.0972 10.3647C11.0482 10.4404 11.0723 10.4021 11.0066 10.4501C10.9526 10.4894 10.9779 10.4858 10.9076 10.5085C10.8805 10.5743 10.834 10.5924 10.7581 10.6493C10.711 10.6844 10.6655 10.7447 10.5921 10.7737C10.5484 10.8403 10.3704 10.9753 10.2989 11.0407C10.226 11.1072 10.0847 11.2653 9.99899 11.2997C9.95958 11.361 9.86299 11.4368 9.8106 11.4905C9.75599 11.5467 9.68206 11.6486 9.58206 11.667C9.5072 11.631 9.35021 11.4052 9.30527 11.3104C9.22535 11.1208 8.98632 10.8448 8.94295 10.6307L8.89626 10.5451L8.85069 10.4381L8.7784 10.2713L8.70714 10.0834C8.62666 9.94696 8.42519 9.22724 8.43302 9.047C8.35218 8.97064 8.41258 8.94567 8.36387 8.78631L8.20522 8.78295C8.07659 8.97064 8.24923 9.62454 8.32989 9.87476C8.3554 9.95391 8.43541 10.1704 8.43597 10.2325L8.58762 10.656C8.56515 10.7026 8.56874 10.6686 8.57906 10.7087C8.59397 10.7671 8.58348 10.7322 8.61137 10.7403C8.66358 10.7704 8.63937 10.728 8.69443 10.8408C8.71588 10.8847 8.72362 10.8918 8.74783 10.9372C8.78881 11.0139 8.81569 11.0642 8.86532 11.1449C8.94764 11.2788 9.03383 11.4075 9.10832 11.5435L9.22517 11.7142C9.28925 11.7857 9.3282 11.8232 9.33465 11.9188C9.29017 12.0094 9.18741 12.1002 9.10362 12.167C9.06725 12.218 9.10362 12.1771 9.06154 12.2137C9.03595 12.2847 9.06679 12.2461 9.00436 12.3101C9.00427 12.3102 8.97223 12.3395 8.96965 12.3414C8.91026 12.3846 8.96035 12.3533 8.89562 12.3823L8.32363 12.9889L8.0427 13.2844L7.68516 13.6632L7.56648 13.7877L7.54751 13.8168C7.51399 13.8951 7.45939 13.9527 7.38029 13.9998C7.24558 13.9825 7.05894 13.7964 7.00158 13.6952L6.93215 13.5987C6.88114 13.5537 6.83446 13.5001 6.79228 13.4288C6.75168 13.3908 6.78234 13.4329 6.74348 13.3668L6.6492 13.2397L6.60187 13.1815L6.49497 13.0457C6.42867 12.9447 6.26302 12.6498 6.24396 12.5501L6.15326 12.3997C6.03255 12.1068 5.92086 11.7871 5.86957 11.4745C5.86119 11.4234 5.85815 11.3186 5.8228 11.2832C5.74057 11.2008 5.63054 11.2824 5.58109 11.3087C5.60089 11.4021 5.60181 11.5732 5.62409 11.6973C5.64638 11.8216 5.68017 11.949 5.71286 12.0771C5.77961 12.3377 5.89885 12.5578 5.95962 12.7878L6.0529 12.9712L6.2226 13.2264C6.28383 13.2723 6.43935 13.5042 6.45832 13.5578L6.52655 13.6511L6.59432 13.7323C6.68345 13.8014 6.75315 13.916 6.83989 13.9604C6.92101 13.9996 7.09504 14.144 7.13785 14.2338C7.10664 14.323 7.04522 14.3586 6.99265 14.4152C6.93574 14.4764 6.90416 14.5264 6.81604 14.5705L6.81843 14.5582C6.78648 14.6342 6.73022 14.6721 6.64339 14.7572C6.57728 14.822 6.53566 14.8825 6.43843 14.9283C6.40086 14.9459 6.42904 14.9205 6.40952 14.9546C6.35353 15.0403 5.79729 15.5238 5.73845 15.5525L5.66617 15.6144C5.62391 15.6994 5.44215 15.8297 5.36001 15.8644L5.32042 15.9006C5.28469 15.9634 5.28792 15.9513 5.22392 16.0004C5.18387 16.0311 5.16177 16.0461 5.12052 16.0765C5.07015 16.1138 4.95285 16.2446 4.88729 16.1174L4.82605 16.0414C4.73913 15.9735 4.62284 15.8192 4.54282 15.7069C4.47238 15.652 4.4082 15.5409 4.35821 15.4692C4.30931 15.3991 4.23298 15.2986 4.19431 15.1989L4.08952 14.9892C3.97949 14.8435 3.77526 14.2616 3.74064 14.0398C3.66495 13.979 3.69276 13.9241 3.67213 13.8436C3.6481 13.7503 3.58779 13.7602 3.49341 13.7688C3.40971 13.9216 3.47739 13.9226 3.46118 14.0687L3.47371 14.2135C3.54672 14.4123 3.58724 14.6464 3.66956 14.8605C3.755 15.083 3.84837 15.2312 3.94726 15.4353C4.01503 15.5123 4.0584 15.6033 4.127 15.6981C4.17626 15.7663 4.2746 15.8797 4.32395 15.9631L4.48739 16.154L4.63904 16.2964C4.66317 16.3223 4.7 16.243 4.67882 16.3828C4.66685 16.4615 4.69613 16.3909 4.62984 16.4381C4.61437 16.4491 4.54457 16.4889 4.51584 16.5066C4.44227 16.5519 4.33961 16.6277 4.24965 16.6445L4.20048 16.6516L4.113 16.6944C4.01577 16.8188 3.56956 16.9095 3.33301 16.9524C3.02483 17.0083 2.63552 16.96 2.36251 16.898C1.99263 16.814 1.21135 16.4222 1.01329 16.224C0.882268 16.1504 0.946077 16.0627 0.761646 16.1162C0.725827 16.2078 0.766526 16.2469 0.787427 16.3429C0.803449 16.4139 0.892488 16.4639 0.934568 16.51L1.00105 16.5419C1.09662 16.5693 1.19312 16.644 1.27958 16.6898C1.36448 16.7346 1.47101 16.7607 1.55591 16.8446C2.57236 17.4187 3.7004 17.2963 4.6581 16.6962C4.91583 16.5347 4.88683 16.5475 5.04759 16.6693C5.14722 16.7117 5.22549 16.7794 5.30449 16.8361L5.39196 16.9253L5.43487 16.9535L5.50227 16.9952L5.57391 17.0365C5.65844 17.0714 5.92408 17.1968 5.9785 17.2644C5.97353 17.2881 5.93762 17.3011 6.00714 17.2666L6.18881 17.3285L6.25989 17.339L6.34184 17.3643C6.34304 17.4599 6.29359 17.5179 6.20133 17.5609L6.02509 17.766L5.95465 17.8474L5.90769 17.9099L5.85963 17.973L5.8146 18.0357L5.76875 18.1024C5.74886 18.1367 5.72547 18.171 5.69923 18.2046C5.66037 18.2981 5.55955 18.429 5.5043 18.5165C5.18175 19.0271 5.06048 19.5008 5.0127 19.5793C4.8627 20.2428 4.85893 20.6488 5.10597 21.2493L5.1754 21.3925L5.27355 21.5464L5.30219 21.5711C5.30477 21.5741 5.31112 21.5805 5.31425 21.5841C5.3172 21.5875 5.32143 21.5935 5.32447 21.5973C5.34059 21.6175 5.3439 21.6254 5.36075 21.6472C5.4066 21.7067 5.40697 21.7047 5.43533 21.7681L5.45808 21.7949L5.5519 21.8983C5.64518 21.9634 5.6693 22.0482 5.84793 22.0029C5.90033 21.9532 5.925 21.9005 5.88974 21.8074C5.77851 21.7078 5.60853 21.5291 5.53459 21.3854C5.49564 21.3375 5.48837 21.3208 5.46784 21.2631L5.48625 21.263C5.41112 21.2274 5.46323 21.276 5.41388 21.1958C5.41333 21.1949 5.38239 21.1273 5.37999 21.122C5.19335 20.7154 5.16923 20.2018 5.27484 19.7722C5.36149 19.4196 5.62796 18.7807 5.84407 18.5304L5.89333 18.4639C5.91865 18.3849 5.96782 18.3144 6.03402 18.2536L6.12785 18.1327L6.31339 17.8896C6.33005 17.8487 6.32517 17.8461 6.34598 17.819C6.40887 17.7371 6.36523 17.7921 6.42351 17.7646L6.44966 17.7399C6.48088 17.6501 6.6305 17.6339 6.741 17.6492C6.81724 17.7135 6.87285 17.819 6.90628 17.9167L7.14135 18.2812L7.23499 18.4276L7.30424 18.5327L7.44687 18.7442L7.61353 18.9748L7.6615 19.0364L8.2601 19.7228C8.60493 20.0737 8.66929 20.0814 8.95823 20.3397C9.19966 20.4873 9.45398 20.7354 9.64191 20.9167C9.75259 21.0236 9.87238 21.1127 9.98877 21.1963C10.0726 21.2565 10.2825 21.4053 10.3396 21.4752L10.6639 21.71C10.769 21.7617 10.9082 21.8739 11.0156 21.9459C11.1186 22.0149 11.2882 22.1127 11.3767 22.1912L11.612 22.3411L11.7783 22.4448C11.8537 22.4795 11.8053 22.4515 11.8486 22.4893L11.9184 22.5282L12.1327 22.6553L12.4203 22.8217L12.5354 22.8887L12.6045 22.9291L12.7238 22.9905L12.8438 23.055L12.9622 23.1153L14.1512 23.7053L14.952 24.0623C15.1819 24.1348 15.4184 24.2533 15.6419 24.3344C15.8811 24.4211 16.1121 24.5092 16.3622 24.5991C16.8559 24.7768 17.3099 24.8924 17.8234 25.0646L18.7206 25.3249C18.7297 25.3498 18.6917 25.3412 18.7607 25.3524C18.8032 25.3593 18.7878 25.3617 18.8391 25.346C18.9825 25.3547 19.8179 25.5395 19.9044 25.5776C20.0902 25.5805 20.4287 25.6625 20.6242 25.6955L22.107 25.8927C22.3706 25.928 22.671 25.9178 22.9179 25.9576C23.3552 26.0283 24.0576 26.0273 24.5448 26.0293C25.1019 26.0316 25.7137 26.0403 26.2665 26.0006C26.5302 25.9816 26.7879 25.9547 27.0548 25.9414C27.3194 25.9282 27.5432 25.8868 27.8121 25.864C28.3205 25.8208 28.819 25.7151 29.3017 25.6482C29.6339 25.6022 30.3506 25.4262 30.6979 25.3561C31.0577 25.2836 31.8559 25.034 32.0262 25.0093L33.1152 24.6726L33.1153 24.6935C33.1339 24.6272 33.1637 24.6394 33.2432 24.6141C33.2922 24.5986 33.3265 24.5853 33.3793 24.5669C33.4822 24.531 33.5663 24.4971 33.6628 24.4637C33.8419 24.4016 34.0432 24.3174 34.2282 24.2486C34.609 24.1068 34.9295 23.9379 35.3229 23.7886L35.417 23.7491L35.6012 23.6624L35.8672 23.5361L36.122 23.4098C36.1335 23.3996 36.1517 23.3799 36.1835 23.3642C36.2252 23.3435 36.2392 23.3425 36.2876 23.3283L36.5306 23.2014L36.6466 23.1407C36.7146 23.0855 37.1027 22.8743 37.1929 22.8416L37.3374 22.7617L37.4715 22.6778C37.5411 22.6145 37.975 22.3613 38.0395 22.341L38.3755 22.1261C38.4166 22.092 38.4196 22.0891 38.4684 22.0662L38.5884 21.982L39.135 21.6032C39.2739 21.4553 39.9626 21.0303 40.0316 20.8872C40.111 20.7887 40.3444 20.5627 40.4566 20.5133L40.7253 20.3218L40.9016 20.1875C40.9427 20.1022 41.1989 19.8815 41.276 19.832L41.454 19.6705L41.5924 19.5182L41.641 19.459C41.673 19.4064 42.0131 18.9797 42.0677 18.9315L42.1181 18.8684L42.1636 18.8082L42.2303 18.7007L42.306 18.5902C42.3268 18.5275 42.3546 18.4875 42.3989 18.443L42.4681 18.3409L42.6319 18.0811C42.6501 18.0045 42.6132 18.0487 42.6782 18.0047C42.7644 17.9096 42.811 17.7583 42.9167 17.6618C43.0164 17.6514 43.036 17.6514 43.1033 17.6856C43.2271 17.722 43.2559 17.7962 43.321 17.8733C43.3843 17.9483 43.456 18.0249 43.5046 18.1136L43.5497 18.1749L43.5999 18.2361L43.7665 18.4704L43.9095 18.6976C44.1122 18.9495 44.3404 19.5722 44.4038 19.9402C44.4548 20.2369 44.4522 20.4278 44.3962 20.725C44.3608 20.9131 44.2541 21.217 44.1433 21.3431L44.0703 21.4462L44.0266 21.5087L43.9766 21.5722L43.7952 21.7744L43.751 21.8523C43.7355 21.9229 43.7516 21.9382 43.7928 21.989C44.0146 22.0473 44.0309 21.9229 44.1551 21.8314L44.2438 21.7319L44.3847 21.5381C44.4403 21.4308 44.5143 21.3189 44.5609 21.2134C44.6134 21.0947 44.6375 20.953 44.6925 20.8447C44.7483 20.3902 44.7296 20.2145 44.6925 19.7689C44.7255 19.6927 44.7215 19.7409 44.7057 19.652C44.6841 19.5297 44.688 19.5888 44.6687 19.5762C44.6452 19.5556 44.6367 19.5587 44.6155 19.5212C44.6006 19.4948 44.6029 19.485 44.5939 19.4547C44.5773 19.398 44.5666 19.3616 44.5509 19.3002C44.4967 19.2218 44.4614 19.0998 44.4149 18.9997C44.3705 18.9039 44.3178 18.812 44.2699 18.709L44.1735 18.5414L44.1006 18.4211L43.9858 18.2458L43.9402 18.1903C43.8832 18.1391 43.7239 17.9275 43.6981 17.8673L43.6559 17.803L43.6067 17.7467C43.531 17.6769 43.3476 17.4831 43.3349 17.3907C43.3891 17.3374 43.5884 17.2681 43.6744 17.2434C43.6925 17.2284 43.6784 17.2374 43.7113 17.214C43.7157 17.2108 43.766 17.1794 43.7661 17.1792C43.815 17.1549 43.8271 17.1675 43.8668 17.1319L44.2772 16.8999L44.3195 16.8876L44.4321 16.8075C44.4943 16.7349 44.5752 16.6955 44.6319 16.6368L44.7135 16.5528C44.7957 16.5494 44.8444 16.5396 44.9094 16.647C45.2323 16.8288 45.6022 17.0552 46.0268 17.1452C46.268 17.1963 46.5613 17.223 46.8241 17.2046C47.1107 17.1846 47.3126 17.1169 47.5588 17.0751C47.6897 17.0146 47.8733 16.948 48.0088 16.8861C48.1468 16.8233 48.3074 16.7309 48.4382 16.6752C48.5279 16.6159 48.6313 16.5695 48.6849 16.5163C48.7213 16.4281 48.6973 16.4791 48.7763 16.4121C48.8604 16.3408 49.0273 16.0711 48.7529 16.1167L48.7076 16.1239C48.6239 16.2945 48.233 16.5068 47.9654 16.6353C47.2787 16.9645 46.5587 17.1126 45.8006 16.8258C45.5723 16.7395 45.0406 16.4873 44.9789 16.3594L45.5128 15.7026C45.5758 15.6187 45.5986 15.5297 45.6897 15.4546C45.79 15.2717 45.8757 15.0897 45.971 14.9112C46.0043 14.7748 46.1052 14.577 46.1015 14.4493C46.0938 14.1136 46.3941 13.7323 46.012 13.7671C45.9501 13.8681 45.9947 13.8747 45.9267 13.9601C45.9139 14.1507 45.7686 14.5691 45.6842 14.7138L45.5901 14.9233C45.5668 14.987 45.5813 14.9644 45.5445 15.0095C45.5086 15.1125 45.4094 15.2365 45.4025 15.3059L45.3095 15.4333L45.2544 15.4912L45.2096 15.5528L45.1178 15.6822L44.8631 16.0105C44.7185 16.343 44.5355 16.071 44.2937 15.8933C44.2055 15.8285 44.1985 15.8298 44.1648 15.7586L44.1348 15.7359C44.0354 15.6962 43.0481 14.8334 43.0204 14.7528C42.9461 14.7178 42.8924 14.6607 42.8568 14.5862L42.6594 14.3799C42.5922 14.3347 42.5683 14.3156 42.5445 14.2338C42.5765 14.1544 42.6108 14.1371 42.6822 14.0904C42.7195 14.0445 42.7031 14.059 42.7557 14.0257L43.0163 13.7729L43.085 13.6942L43.1569 13.6067L43.3225 13.3959C43.3691 13.3097 43.4688 13.1988 43.4943 13.1189C43.5168 13.056 43.5365 13.0304 43.5641 12.9789C43.5774 12.9543 43.5865 12.9311 43.6031 12.9064L43.6646 12.8446L43.6981 12.7626C43.7184 12.7112 43.7477 12.6458 43.7687 12.5952C43.8105 12.4941 43.7893 12.4802 43.8638 12.4092C43.8781 12.4044 43.9115 12.4517 43.8649 12.3607L43.9348 12.1135C43.9562 11.9188 44.1207 11.4543 44.0416 11.2968C43.9672 11.2729 43.9521 11.2602 43.8585 11.2645C43.7886 11.3649 43.8247 11.4132 43.794 11.5384C43.7708 11.6323 43.7599 11.612 43.7324 11.6319C43.7151 11.8112 43.5932 12.1794 43.5079 12.3175C43.4702 12.4191 43.4447 12.5073 43.3901 12.5697C43.377 12.6815 43.1264 13.1227 43.0624 13.1606C43.0433 13.2385 43.0223 13.2553 42.9638 13.3006C42.9269 13.3886 42.4248 13.9929 42.2775 13.9721C42.2017 13.9388 42.205 13.9366 42.1617 13.8718L41.9244 13.6217L41.0256 12.6722L40.7878 12.4203L40.4827 12.1033C40.414 12.0495 40.3421 11.9882 40.3062 11.8977C40.3273 11.8378 40.3039 11.878 40.3362 11.837C40.3759 11.766 40.5445 11.5179 40.6005 11.4608L40.6914 11.3144C40.739 11.1881 40.9898 10.7978 41.1253 10.4757C41.2233 10.2425 41.3403 9.92608 41.3973 9.66842C41.4183 9.57372 41.4178 9.57093 41.4725 9.54073L41.449 9.51961L41.4595 9.33005C41.4458 9.14302 41.5816 8.93143 41.4252 8.78156C41.253 8.76339 41.2657 8.81397 41.2603 8.95066C41.2566 9.04749 41.2603 9.14473 41.1948 9.19933C41.1877 9.28871 41.0842 9.82246 40.9754 9.93599C40.9601 9.94597 40.9557 9.92281 40.9418 9.97528C40.9206 10.0549 40.921 9.99803 40.9515 10.0668C40.8864 10.3905 40.5029 11.052 40.3416 11.2937C40.3134 11.3903 40.1572 11.6328 40.052 11.6662C39.9691 11.6326 39.7272 11.3985 39.6875 11.3196H39.6799C39.5994 11.281 39.5925 11.2559 39.5283 11.2053C39.4908 11.1756 39.4902 11.1765 39.4564 11.1435C39.3973 11.0859 39.4245 11.1278 39.399 11.0692C39.3213 11.0308 39.2178 10.9359 39.1808 10.8714C39.132 10.8087 38.9113 10.6325 38.8139 10.5577C38.6971 10.468 38.5368 10.3586 38.4252 10.2558L38.2022 10.0878C38.1941 9.98477 38.2908 9.85725 38.3452 9.77057C38.4117 9.66498 38.4527 9.55432 38.5133 9.47942C38.5718 9.34854 38.6204 9.26383 38.683 9.12705C38.7281 9.02867 38.7909 8.84319 38.8463 8.76462L38.9631 8.47093C38.9762 8.40463 38.9881 8.34996 39.0059 8.29749C39.0134 8.27531 39.0257 8.23447 39.0322 8.22137C39.0691 8.14762 39.0554 8.18437 39.0813 8.15679C39.1092 8.13649 39.0896 8.20475 39.114 8.09557C39.1237 8.0521 39.1292 8.04064 39.1052 7.98327C39.1284 7.72421 39.418 6.53777 39.2437 6.37972C38.8357 6.24573 39.1165 6.62805 38.9507 6.97085C38.9426 7.43568 38.6273 8.42755 38.4133 8.88608L38.1336 9.4353L38.005 9.70484C37.9314 9.94827 37.8235 9.85733 37.6803 9.75518C37.5522 9.66383 37.5452 9.68601 37.5235 9.62086C37.4363 9.59778 37.1237 9.39487 37.0703 9.30925L36.7892 9.13737L36.6936 9.07704L36.4086 8.90736L36.223 8.80211C36.0989 8.75439 35.9347 8.66353 35.8431 8.59117C35.7167 8.54141 35.4449 8.39227 35.3712 8.33588L35.3012 8.29847C35.1875 8.25919 34.8072 8.05824 34.7297 8.00299L34.6046 7.94422C34.5953 7.85304 34.7086 7.30971 34.7489 7.24824C34.75 6.96553 34.8341 6.70704 34.8544 6.42605C34.8876 5.96334 34.9432 5.09916 34.8182 4.66256C34.7842 4.54388 34.7667 4.39147 34.7231 4.28523C34.6993 4.22761 34.6765 4.16982 34.6267 4.13438C34.5913 4.10933 34.5849 4.10311 34.5352 4.10352C34.3967 4.10475 34.4888 4.09452 34.4479 4.13765C34.4478 4.13773 34.347 4.1293 34.4315 4.3043C34.7317 4.92702 34.5476 6.28649 34.4344 6.98198C34.4218 7.05974 34.4272 7.09109 34.3935 7.14134L34.3225 7.4915L34.2621 7.74033C34.0989 7.73886 33.6772 7.49658 33.6733 7.48479C33.6709 7.47726 33.6644 7.47644 33.6599 7.47227L33.5932 7.43593L33.4546 7.37282C33.3761 7.35588 33.3225 7.32199 33.2522 7.29015C33.2292 7.27967 33.1673 7.25733 33.158 7.25192C33.0684 7.19954 33.1254 7.23146 33.0868 7.18366C33.0072 7.20003 31.6051 6.51592 31.3395 6.40517C31.2869 6.38324 31.2656 6.37407 31.2126 6.3514L31.103 6.27855L31.0791 6.27847C30.9045 6.22748 31.0192 6.04527 31.0293 5.56301C31.0342 5.33259 31.0334 5.09875 31.0227 4.8685C30.9918 4.21025 30.9502 4.17301 30.8899 3.60578L30.9134 3.60472C30.8836 3.58417 30.8811 3.6057 30.8567 3.52164C30.7834 3.26864 30.7257 2.77286 30.5812 2.48671C30.5751 2.48213 30.5671 2.47705 30.5628 2.47312C30.5589 2.46936 30.5506 2.46445 30.5463 2.45978L30.5115 2.40208C30.4449 2.26481 30.33 2.28339 30.2782 2.32751C30.1742 2.41624 30.3347 2.54024 30.3556 2.66187C30.3639 2.77949 30.4355 2.93771 30.4626 3.05852L30.6259 3.87638C30.6472 4.00972 30.6469 4.18439 30.6653 4.33557C30.7145 4.73786 30.7315 5.80488 30.6231 6.16772C30.4907 6.18524 27.9711 5.58028 27.7281 5.50833C27.6346 5.49278 27.2872 5.4282 27.2544 5.3736C27.2055 5.04734 27.2408 4.67468 27.1786 4.35472L27.0545 3.41204C26.9653 3.18924 26.9311 2.81878 26.8432 2.57257C26.7946 2.43678 26.7657 2.29002 26.72 2.1476C26.682 2.02974 26.625 1.89632 26.5812 1.77469C26.534 1.72648 26.5443 1.70536 26.5145 1.64577L26.3165 1.2348C26.2305 1.12021 26.2328 0.956504 25.9889 1.01069C25.9077 1.11955 25.9513 1.11914 25.9323 1.24642Z" fill="white" stroke="white" stroke-width="0.3"/>
<path fill-rule="evenodd" clip-rule="evenodd" d="M22.4375 15.9374L22.3501 15.8914C22.2492 15.8548 22.3073 15.8717 22.2805 15.8338L22.2717 15.8301C22.1966 15.7966 22.2228 15.8198 22.1799 15.7495C22.1325 15.7136 22.1586 15.7489 22.1259 15.6856C21.909 15.2646 22.4847 14.7775 22.981 15.119C23.226 15.2875 23.2627 15.756 22.8528 15.9302C22.7832 15.9598 22.7277 15.97 22.6515 15.9726C22.5412 15.9763 22.5091 15.9719 22.4375 15.9374ZM23.1951 14.8653C23.1153 14.8776 23.1379 14.8793 23.0804 14.8419C22.9875 14.8008 22.8936 14.7669 22.7981 14.7393C22.2804 14.7215 22.1712 14.8154 21.9127 15.055L21.8454 15.1533C21.7889 15.3291 21.7497 15.4304 21.7865 15.6419C21.7983 15.7097 21.8226 15.7812 21.8611 15.841C22.0305 16.1042 21.9662 15.8921 21.7701 16.3947L21.6088 16.8228L21.6323 16.823C21.581 17.2204 21.5685 17.455 21.632 17.8542L21.6088 17.8543C21.6618 17.906 21.6518 17.8819 21.6809 18.0026C21.7909 18.459 21.9787 18.6412 22.0888 18.8764L22.2424 19.0695L22.3126 19.1652C22.3882 19.2165 22.439 19.2847 22.509 19.3479C22.579 19.4113 22.6534 19.4574 22.7126 19.5237L22.9532 19.6853L23.2872 19.8544C23.9461 20.1771 24.8535 20.2532 25.5869 20.1034C25.7984 20.0603 26.235 19.9359 26.3701 19.8466L26.4565 19.8099L26.5864 19.7489C26.7175 19.6586 26.8709 19.5555 26.9772 19.4879L27.045 19.4022C27.0707 19.3809 27.0804 19.3758 27.1065 19.353C27.1592 19.3068 27.1677 19.2874 27.2394 19.2433L27.2947 19.2067C27.3432 19.1288 27.3994 19.0898 27.4581 19.0149C27.5097 18.9492 27.544 18.8891 27.6022 18.8279L27.6464 18.7615L27.6934 18.6826C27.7567 18.4888 27.8643 18.3784 27.9926 17.9099L28.0012 17.9173C28.0516 17.5824 28.0921 17.1227 28.0018 16.7938C27.8291 16.1651 27.782 16.2809 27.6461 15.9326L27.5054 15.7263L27.4363 15.6411C27.3349 15.5542 27.2618 15.4545 27.1723 15.3709C27.0748 15.2798 26.9913 15.2298 26.8926 15.1357L26.7057 15.0114L26.6751 14.992C26.6105 14.9725 26.356 14.8479 26.3109 14.8027C26.2069 14.7822 25.8772 14.6197 25.5874 14.5815C25.0533 14.511 25.4293 14.5103 24.7339 14.5083C24.4639 14.5075 24.1148 14.5449 23.8854 14.6175L23.1951 14.8653Z" fill="white" stroke="white" stroke-width="0.3"/>
<path fill-rule="evenodd" clip-rule="evenodd" d="M24.7587 27.2754C24.7343 27.4088 24.6581 27.578 24.6225 27.724C24.5949 27.8369 24.5584 28.0692 24.4747 28.1451C24.4561 28.2251 24.439 28.2702 24.4115 28.3393C24.4019 28.3635 24.3861 28.4138 24.3765 28.4327C24.3356 28.5138 24.3718 28.4682 24.3091 28.5028L24.3305 28.5029C24.306 28.6075 24.2019 28.8493 24.1432 28.9223C24.1156 29.0069 24.0855 29.0725 24.0473 29.128L23.9301 29.3634C23.8767 29.5485 23.4647 30.2551 23.3268 30.531L23.1252 30.9231C22.9733 31.2795 22.8343 31.5884 22.7004 31.9538C22.5684 32.3139 22.4702 32.6842 22.3725 33.0695C22.1569 33.9192 22.1581 34.7946 22.1782 35.7217L22.1546 35.7439C22.1599 35.7499 22.1683 35.7504 22.1707 35.7617C22.1817 35.8136 22.2028 35.7123 22.2278 36.0161C22.2583 36.386 22.3476 36.599 22.3913 36.9002C22.3609 36.9501 22.366 36.8867 22.3718 36.9601C22.377 37.0238 22.36 36.9735 22.3914 36.9903C22.4263 37.0174 22.4137 36.9863 22.4438 37.049C22.4486 37.0591 22.4576 37.1036 22.4612 37.1176L22.5546 37.3714L22.6271 37.5341L22.7316 37.7465C22.7365 37.75 22.7446 37.7493 22.7467 37.7569C22.7479 37.7613 22.9085 37.9746 22.9345 38.0576L22.9816 38.1279L23.0259 38.185L23.0495 38.2069C23.2408 38.4105 23.2139 38.4212 23.4867 38.6416C23.5475 38.6907 23.6673 38.8005 23.7643 38.8121C23.8741 38.8251 24.1416 38.8151 24.2598 38.8086C24.1855 38.7363 23.8451 38.5933 23.5474 38.3139C23.4135 38.1882 23.0927 37.8152 23.0307 37.6147L22.915 37.4052C22.7517 37.1988 22.598 36.4416 22.5495 36.1212C22.3864 35.044 22.4754 34.1774 22.6839 33.1208C22.7287 32.8935 22.986 31.9603 23.078 31.8493L23.2911 31.3078L23.5764 30.7128L23.6491 30.5708L23.6937 30.4847C23.7208 30.3864 23.9218 30.0154 23.9777 29.9366C24.0518 29.7398 24.1851 29.5247 24.294 29.3124C24.3998 29.1062 24.4827 28.8801 24.5933 28.6925C24.6188 28.6024 24.6603 28.5055 24.6967 28.4231C24.7655 28.2674 24.7317 28.2209 24.8299 28.1854C24.8887 28.2247 24.9198 28.3303 24.9484 28.4033C24.9842 28.4948 25.0063 28.5429 25.041 28.6264C25.1054 28.7818 25.1595 28.9084 25.2405 29.0701L25.6584 29.9173L25.7021 30.0183C25.6649 30.0816 25.681 30.0476 25.706 30.0467C25.7506 30.076 25.7207 30.0305 25.7701 30.1114C25.7821 30.131 25.7948 30.1637 25.8055 30.184C25.8298 30.2302 25.8481 30.2598 25.8691 30.3151L26.0608 30.6708C26.1345 30.7515 26.2958 31.1133 26.3285 31.2388C26.4339 31.4069 26.7828 32.34 26.8185 32.5878C26.8829 32.6901 27.0669 33.5636 27.0901 33.7471C27.1477 34.2024 27.1734 34.6451 27.1737 35.1113C27.174 35.6958 27.0201 37.0947 26.6745 37.5279L26.629 37.61L26.5575 37.7388L26.4851 37.8473C26.4515 37.945 26.3487 38.0895 26.2506 38.1417L26.2367 38.176C26.1934 38.2574 26.1257 38.3382 26.0195 38.3776C25.9661 38.4519 25.6982 38.6361 25.5826 38.6863L25.469 38.7521L25.3841 38.8047C25.5182 38.8164 25.6651 38.8127 25.8013 38.8121C26.0159 38.8111 26.1822 38.6357 26.3142 38.5143L26.5169 38.3114L26.5858 38.2326L26.8006 37.9365L26.8661 37.8325L26.9617 37.6602C27.0841 37.3314 27.1185 37.3898 27.2268 36.9683C27.2535 36.8643 27.2749 36.878 27.2922 36.8608C27.3178 36.8469 27.2996 36.8789 27.3245 36.8228C27.3448 36.7774 27.3322 36.8068 27.3423 36.7552C27.3555 36.6871 27.3671 36.6712 27.3396 36.6056C27.4073 35.7722 27.5195 35.7698 27.4924 34.7114C27.4841 34.391 27.449 34.0877 27.4063 33.7846C27.3604 33.4602 27.2954 33.2064 27.2449 32.8959L27.2003 32.691C27.2506 32.5856 27.2096 32.6462 27.1974 32.6415C27.1753 32.6147 27.1812 32.6375 27.1545 32.5735C27.153 32.5697 27.1418 32.5259 27.1415 32.5249L27.0575 32.207C27.0919 32.1291 27.0783 32.1973 27.0628 32.137C27.0502 32.0879 27.046 32.1051 27.0318 32.0935C26.973 32.0398 26.9364 31.9041 26.9149 31.8251L26.8441 31.6562L26.6531 31.1968C26.522 30.9804 26.4258 30.7214 26.3002 30.4742C26.244 30.3633 26.1888 30.2574 26.1207 30.134C26.0658 30.0344 25.9866 29.9094 25.9428 29.7859C25.8557 29.6714 25.7064 29.3561 25.6466 29.2255C25.5565 29.0292 25.4559 28.852 25.3749 28.6483C25.2934 28.5379 25.1579 28.1397 25.1052 27.9871C25.0672 27.8766 25.0388 27.7353 25.0075 27.6283C24.9683 27.4939 24.9291 27.4188 24.9011 27.277L24.8299 27.2415C24.7568 27.2596 24.8109 27.2291 24.7587 27.2754Z" fill="white" stroke="white" stroke-width="0.3"/>
<path fill-rule="evenodd" clip-rule="evenodd" d="M16.3758 27.3998L16.2588 27.8042C16.2357 27.9555 16.2059 28.0486 16.1736 28.1959C16.1725 28.201 16.109 28.5879 16.0842 28.5468C16.082 28.5431 16.0745 28.5591 16.0695 28.5652L16.0931 28.5661C16.0744 28.8213 16.0214 29.0819 16.0088 29.323C15.9633 30.1952 15.9917 30.8528 16.0329 31.7225C16.062 32.3378 16.2047 34.1987 15.6415 34.582C15.4279 34.7384 15.1556 34.4031 15.099 34.262L15.0308 34.1416C14.8894 33.9817 14.7081 33.4863 14.6728 33.2124C14.6348 33.1471 14.6352 33.0603 14.6259 32.9647C14.6531 32.9194 14.6744 32.9088 14.6254 32.8786C14.6102 32.8591 14.6073 32.8631 14.5899 32.8231C14.4996 32.6162 14.5398 31.3122 14.5609 31.1622C14.6102 30.8123 14.7482 29.9644 14.9096 29.726L15.0292 29.4366L15.1937 29.0767C15.2269 28.9733 15.3769 28.6894 15.4304 28.6294L15.624 28.2925C15.6485 28.2177 15.7733 28.0124 15.8359 27.9559L15.9044 27.8549L16.0248 27.6822C16.0464 27.6119 16.0606 27.5847 16.1195 27.5351L16.2573 27.3451C16.2857 27.2512 16.3361 27.1745 16.4294 27.1515C16.4359 27.2145 16.4401 27.287 16.4114 27.3498C16.3962 27.3831 16.388 27.3848 16.3758 27.3998ZM16.8678 26.1402L16.7273 26.286L16.5381 26.497L16.2333 26.8585C16.2062 26.9045 16.1785 26.9398 16.1381 26.9819L16.0896 27.0458L16.041 27.1101L15.9946 27.17L15.9489 27.2365L15.8785 27.3395L15.8037 27.4464L15.7568 27.5077L15.6622 27.6518C15.6403 27.7015 15.633 27.7178 15.5896 27.7597L15.5211 27.8657L15.4066 28.0126C15.3816 28.0106 15.3657 27.9762 15.4024 28.0401L15.3355 28.1621C15.3147 28.253 15.1243 28.5535 15.0652 28.663C14.9865 28.8088 14.8939 29.0393 14.8131 29.1547L14.7436 29.2991C14.687 29.4898 14.5848 29.6775 14.5253 29.8568C14.4624 30.0463 14.4106 30.2582 14.3652 30.4583C14.1586 31.3708 14.1749 32.3009 14.352 33.1996C14.4901 33.9006 14.68 34.0246 14.7673 34.3194L14.8555 34.465C14.9298 34.5254 14.9908 34.6277 15.0682 34.6967C15.1452 34.7655 15.2397 34.8338 15.3609 34.8767C15.7134 35.0016 15.8825 34.7334 16.0281 34.633L16.0697 34.5712C16.1751 34.3281 16.2294 34.2189 16.2832 33.9156C16.394 33.2921 16.3808 32.1465 16.3342 31.5309C16.2942 31.0041 16.2754 30.4734 16.2842 29.9342L16.3759 28.7785C16.3966 28.6449 16.3992 28.5008 16.472 28.4406C16.5065 28.4219 16.4867 28.4549 16.5026 28.3618C16.5125 28.3034 16.5223 28.2926 16.4958 28.2295L16.5456 28.0015L16.5905 27.8569C16.5956 27.8233 16.5995 27.7768 16.6061 27.7453C16.6101 27.7259 16.6134 27.7058 16.622 27.688C16.6438 27.6425 16.6316 27.6724 16.6614 27.6472C16.6898 27.6242 16.655 27.67 16.6836 27.615C16.6866 27.6091 16.7084 27.5572 16.7089 27.5559C16.7308 27.4927 16.7408 27.482 16.7089 27.4087L16.8037 27.0771C16.8626 26.8996 16.9863 26.6142 17.0923 26.5042C17.1297 26.4387 17.1765 26.3708 17.23 26.3174C17.2996 26.2108 17.35 26.1738 17.423 26.0872C17.5058 25.9887 17.4953 25.924 17.4062 25.8457C17.1162 25.8121 16.9967 26.0519 16.8678 26.1402Z" fill="white" stroke="white" stroke-width="0.3"/>
<path fill-rule="evenodd" clip-rule="evenodd" d="M9.96111 30.6686C9.95163 30.7023 9.94536 30.7388 9.93616 30.772C9.93551 30.7743 9.92087 30.82 9.92013 30.8212C9.86572 30.9178 9.92336 30.8278 9.86655 30.8783L9.88892 30.8809L9.77171 31.1285C9.73902 31.1893 9.72898 31.2056 9.6904 31.2499C9.67373 31.2691 9.66112 31.2881 9.63893 31.3097C9.58184 31.365 9.61701 31.3352 9.55873 31.3617L9.54878 31.365C9.52383 31.4045 9.54777 31.3819 9.51564 31.4109C9.49096 31.4332 9.49501 31.4267 9.46048 31.4447C9.2674 31.5943 8.99319 31.4509 8.90166 31.336C8.83472 31.2809 8.76594 31.1974 8.73224 31.0914C8.76474 31.0332 8.75673 31.0691 8.73012 31.0493C8.73012 30.9638 8.73472 31.0364 8.70646 31.0281C8.63362 30.9827 8.63141 30.9414 8.59099 30.8535C8.1422 29.876 8.21596 28.4504 8.441 27.4709C8.56963 26.9115 8.76879 26.4376 9.01381 25.9384C9.12385 25.7143 9.65559 24.7012 9.79565 24.5884C9.82078 24.499 9.92621 24.3436 9.98809 24.2937L10.056 24.1938C10.1117 24.0991 10.2137 23.9161 10.3019 23.9061L10.1723 24.6705C10.0523 25.4832 10.0465 26.3662 10.0381 27.198C10.0313 27.8739 10.133 30.2181 9.96111 30.6686ZM10.171 23.5148L10.1248 23.5733L10.0794 23.6356C10.0606 23.6884 9.91452 23.9048 9.82935 23.954L9.77171 24.0842C9.7392 24.1432 9.69961 24.2039 9.64979 24.2407L9.55551 24.3754L9.50947 24.4358L9.41656 24.5826C9.38406 24.672 9.26601 24.8356 9.21786 24.915C8.81262 25.5821 8.47516 26.2563 8.25546 26.9837L8.13815 27.3662C8.12379 27.4974 8.0923 27.6783 8.06421 27.8044C7.98365 28.1646 7.96173 28.9312 7.96652 29.3025C7.97223 29.748 8.05961 30.245 8.19717 30.6662C8.2422 30.8044 8.30306 30.9113 8.35122 31.0558C8.38704 31.1284 8.44689 31.2339 8.49357 31.303C8.55232 31.39 8.6374 31.4682 8.67773 31.5544L8.6827 31.5582C8.76769 31.5934 8.74651 31.6015 8.81004 31.6363L8.96676 31.7199C9.19069 31.8032 9.23093 31.7914 9.48774 31.7649C9.55477 31.8019 9.52116 31.7893 9.51785 31.7648C9.54869 31.7289 9.51849 31.7528 9.55993 31.7239C9.56379 31.7212 9.60081 31.7012 9.60541 31.6986C9.63819 31.6798 9.66803 31.6602 9.7009 31.6414C9.73414 31.6046 9.7497 31.5956 9.78441 31.5645C9.82483 31.5285 9.81664 31.5199 9.86277 31.5122L10.0455 31.2475C10.1386 31.106 10.251 30.8339 10.2761 30.6695C10.2869 30.599 10.2905 30.539 10.3055 30.4749C10.3143 30.4369 10.3106 30.4285 10.3167 30.3967L10.3637 30.2918L10.3401 30.2495C10.3734 29.098 10.3408 27.9495 10.3564 26.798C10.3643 26.2134 10.4031 25.7038 10.4314 25.1346C10.4465 24.8306 10.5522 24.3138 10.6159 23.9964L10.6809 23.7343C10.7017 23.6711 10.7178 23.6649 10.7425 23.6454C10.7885 23.617 10.7611 23.642 10.7426 23.5991C10.7775 23.4687 10.9309 23.1669 11.0031 23.0772C11.0581 22.9377 11.1188 22.9878 11.0932 22.7996C10.8738 22.6615 10.7003 22.9126 10.5659 23.0636C10.4442 23.2003 10.2794 23.4196 10.171 23.5148Z" fill="white" stroke="white" stroke-width="0.3"/>
<path fill-rule="evenodd" clip-rule="evenodd" d="M39.5312 24.1124L39.5725 24.1738L39.6475 24.2765L39.7181 24.3781L40.0521 24.8893C40.0924 24.9437 40.1217 24.9942 40.1468 25.0572L40.1912 25.1412L40.3124 25.3462C40.4071 25.4177 40.4922 25.6583 40.5619 25.7744C40.6063 25.8484 40.7511 26.149 40.7624 26.2302C40.8163 26.2798 40.863 26.4242 40.8989 26.5066C40.9422 26.6059 40.9732 26.6831 41.0058 26.7951C41.0571 26.9716 41.1659 27.2028 41.1885 27.4142C41.2568 27.6173 41.3232 28.0036 41.3306 28.2504L41.307 28.2534C41.3602 28.328 41.3529 28.4029 41.3649 28.4995C41.3925 28.7225 41.393 29.1419 41.3878 29.3658C41.3792 29.734 41.3243 29.9464 41.2504 30.2734C41.2314 30.3576 41.2414 30.3418 41.1886 30.3967C41.1874 30.3972 41.128 30.3239 41.1885 30.4602L41.0701 30.8122C41.0397 30.9242 40.9194 31.1389 40.8571 31.2142C40.7176 31.5135 40.2993 31.638 40.0335 31.3404C39.5637 30.8142 39.5918 30.1281 39.5939 29.4079C39.5973 28.2488 39.661 25.8821 39.497 24.8796C39.4744 24.742 39.3273 23.9256 39.342 23.8871C39.4262 23.9128 39.5056 24.028 39.5312 24.1124ZM38.679 23.1409L38.7229 23.2415C38.6855 23.3043 38.7 23.2714 38.7265 23.2663C38.765 23.2936 38.7408 23.2695 38.7735 23.3063C38.7753 23.3082 38.7939 23.3462 38.7943 23.3472C38.9473 23.5174 38.9961 23.8449 39.0618 24.1078L39.1858 24.715C39.1948 24.7998 39.1951 24.873 39.2095 24.9566C39.3439 25.737 39.2853 27.9501 39.2971 28.8607C39.3012 29.1856 39.273 29.524 39.3015 29.847C39.3148 29.9983 39.3251 30.1719 39.3345 30.3341C39.3451 30.5161 39.3738 30.6103 39.3892 30.776C39.4291 30.8273 39.6777 31.6936 40.2663 31.7688C40.5781 31.8086 40.6219 31.7136 40.8154 31.6599C40.9075 31.5858 40.9514 31.5506 41.0478 31.4558L41.2382 31.1759L41.2835 31.0961C41.3219 30.9293 41.5333 30.5676 41.6009 30.1023C41.6927 29.4702 41.6972 29.5338 41.6853 28.8607C41.6736 28.1955 41.5946 27.7385 41.4349 27.1344C41.3964 26.9887 41.3048 26.7507 41.2835 26.6087C41.2165 26.4961 41.1582 26.3216 41.1068 26.2009C41.0513 26.0703 40.9815 25.9452 40.9283 25.8018L40.8585 25.6616C40.8079 25.6039 40.6665 25.3296 40.6215 25.2434C40.5589 25.1235 40.4166 24.9214 40.3838 24.7989C40.4248 24.7399 40.4125 24.7686 40.3837 24.7739C40.3381 24.7471 40.366 24.7809 40.3211 24.726C40.3029 24.7038 40.3057 24.6956 40.2933 24.6656L40.1993 24.5171L40.1296 24.4122L40.0575 24.3099L39.9826 24.2064L39.8174 23.9718L39.6999 23.8048L39.653 23.7425L39.6052 23.6795L39.3936 23.4012L39.3462 23.3434L39.2011 23.1765L39.063 23.0271C38.8916 22.9091 38.925 22.7766 38.6105 22.7478C38.5598 22.8287 38.5119 22.8547 38.5837 22.9669C38.6272 23.035 38.66 23.0395 38.679 23.1409Z" fill="white" stroke="white" stroke-width="0.3"/>
<path fill-rule="evenodd" clip-rule="evenodd" d="M33.6364 27.6872L33.8 27.9348C33.8219 27.9522 33.8143 27.9429 33.8359 27.9702C33.9348 28.0958 34.341 28.7954 34.3703 28.9072L34.558 29.2834C34.6302 29.388 34.8717 29.9959 34.8911 30.1523L34.9385 30.3584C35.0587 30.6316 35.132 31.5123 35.1325 31.8703C35.133 32.2064 35.0867 33.1358 34.9378 33.3613C34.9201 33.4344 34.9341 33.4347 34.8964 33.498L34.8676 33.5264C34.8613 33.5311 34.8158 33.4738 34.8655 33.596L34.7938 33.7993L34.7491 33.8876C34.7064 34.0551 34.4466 34.4888 34.3263 34.5236C34.2783 34.5984 34.1917 34.6511 34.11 34.6431C33.818 34.546 33.7245 34.2716 33.6747 33.9458C33.3866 32.251 33.9552 29.929 33.413 27.941C33.3669 27.7721 33.2277 27.351 33.2318 27.1942C33.3248 27.2058 33.3259 27.2304 33.3665 27.2899C33.439 27.3961 33.5833 27.5721 33.6364 27.6872ZM32.1914 26.0466C32.2579 26.1186 32.3502 26.2035 32.403 26.3002L32.4463 26.3627C32.4941 26.404 32.452 26.3487 32.497 26.4228L32.6373 26.631C32.641 26.635 32.6463 26.6401 32.6484 26.6427C32.7184 26.7309 32.8145 26.9559 32.8314 27.0508C32.8015 27.1128 32.8076 27.0514 32.8183 27.1273C32.8333 27.2325 32.8433 27.1726 32.8552 27.1786C32.8947 27.2094 32.8665 27.1786 32.8972 27.2249L33.0051 27.5637C33.0421 27.7178 33.0823 27.8452 33.1114 27.9818C33.1967 28.3823 33.2169 28.367 33.2794 28.8378C33.5405 30.8055 32.9826 33.0977 33.5417 34.5064C33.7275 34.7464 33.9527 35.0526 34.4187 34.8184C34.5593 34.699 34.588 34.7039 34.6935 34.5768C35.0482 34.1491 35.3107 33.3552 35.3707 32.8356C35.505 31.6746 35.4371 30.6181 34.9943 29.5225C34.9383 29.3838 34.724 28.9695 34.702 28.8396L34.7019 28.8161C34.6097 28.7533 34.5297 28.5559 34.4889 28.4608C34.4481 28.4133 34.3888 28.3324 34.394 28.2718L34.1101 27.8448L33.9478 27.5927L33.9006 27.5326C33.855 27.481 33.788 27.3878 33.755 27.3199L33.6382 27.1506L33.4008 26.839L32.9002 26.2741C32.7037 26.0585 32.5294 25.8288 32.2323 25.8489C32.1818 25.9123 32.1577 25.9383 32.1914 26.0466Z" fill="white" stroke="white" stroke-width="0.3"/>
</svg>
