<svg width="81" height="68" viewBox="0 0 81 68" fill="none" xmlns="http://www.w3.org/2000/svg">
<path d="M11.663 67.616C10.9483 67.616 10.2113 67.1693 9.452 66.276C8.69267 65.4273 8.22367 64.6233 8.045 63.864C8.00033 63.73 7.978 63.596 7.978 63.462C7.978 63.328 7.978 63.2163 7.978 63.127C7.978 62.5017 8.112 61.9433 8.38 61.452C8.69267 60.9607 9.05 60.6703 9.452 60.581C9.586 59.8663 9.96567 59.241 10.591 58.705C10.8143 58.5263 11.1047 58.37 11.462 58.236C10.0773 58.0573 8.80433 57.499 7.643 56.561C6.52633 55.6677 5.968 54.4617 5.968 52.943C5.968 52.4517 6.035 51.9827 6.169 51.536C6.21367 51.3127 6.236 51.067 6.236 50.799C6.28067 50.531 6.303 50.2853 6.303 50.062C6.303 49.258 6.14667 48.6103 5.834 48.119C5.566 48.2083 5.34267 48.253 5.164 48.253C4.67267 48.253 4.20367 48.0743 3.757 47.717C3.355 47.3597 3.06467 46.9353 2.886 46.444C2.70733 45.9527 2.618 45.4837 2.618 45.037C2.618 44.769 2.64033 44.5233 2.685 44.3C2.72967 44.0767 2.752 43.8757 2.752 43.697C2.752 43.2057 2.64033 42.692 2.417 42.156C2.19367 41.62 1.76933 41.3967 1.144 41.486C1.18867 41.3967 1.25567 41.2627 1.345 41.084C1.479 40.9053 1.814 40.816 2.35 40.816C3.154 40.816 4.025 41.1957 4.963 41.955C5.901 42.6697 6.52633 43.4067 6.839 44.166C6.973 44.434 7.06233 44.702 7.107 44.97C7.15167 45.238 7.174 45.4837 7.174 45.707C7.174 46.6897 6.88367 47.4043 6.303 47.851C6.705 48.521 6.906 49.191 6.906 49.861C7.48667 49.1017 8.22367 48.4987 9.117 48.052C10.055 47.6053 10.9483 47.382 11.797 47.382C12.2883 46.8013 12.8913 46.511 13.606 46.511C14.41 46.511 15.0577 46.8907 15.549 47.65C15.9063 47.7393 16.1967 47.784 16.42 47.784C16.7327 47.784 17.0007 47.7393 17.224 47.65C17.492 47.516 17.6483 47.3597 17.693 47.181C17.7823 46.8683 17.9163 46.712 18.095 46.712C18.3183 46.712 18.4523 46.8013 18.497 46.98C18.5863 47.2927 18.5417 47.6947 18.363 48.186C18.229 48.6327 17.76 48.9007 16.956 48.99C16.7327 48.99 16.3977 48.9007 15.951 48.722C15.9957 48.9007 16.018 49.0793 16.018 49.258C16.018 49.392 16.018 49.5707 16.018 49.794C16.018 49.928 15.9957 50.0843 15.951 50.263C15.951 50.397 15.951 50.5533 15.951 50.732V50.933C15.951 51.335 16.0627 51.67 16.286 51.938C16.554 52.2507 16.822 52.3177 17.09 52.139C17.2687 52.0497 17.4027 52.005 17.492 52.005C17.626 52.005 17.6483 52.1167 17.559 52.34C17.157 52.9207 16.6433 53.211 16.018 53.211C15.3033 53.211 14.745 52.8983 14.343 52.273C13.941 51.6477 13.7177 51.1117 13.673 50.665C13.5837 49.8163 13.338 49.2133 12.936 48.856C12.534 48.454 12.1543 48.2307 11.797 48.186C11.7523 48.186 11.7077 48.186 11.663 48.186C11.663 48.1413 11.6407 48.119 11.596 48.119C10.7473 48.2977 9.89867 48.722 9.05 49.392C8.20133 50.062 7.66533 50.8437 7.442 51.737C7.39733 51.9157 7.35267 52.0943 7.308 52.273C7.308 52.4963 7.308 52.7197 7.308 52.943C7.308 54.3277 7.82167 55.3997 8.849 56.159C9.921 56.9183 11.1493 57.298 12.534 57.298C14.4993 57.298 16.5987 56.5833 18.832 55.154C21.0653 53.7693 23.321 51.938 25.599 49.66C27.9217 47.3373 30.1997 44.769 32.433 41.955C34.6663 39.141 36.788 36.3047 38.798 33.446C40.808 30.5873 42.617 27.952 44.225 25.54C44.9843 24.3787 45.8777 23.1503 46.905 21.855C47.9323 20.515 49.0267 19.175 50.188 17.835C47.8207 17.031 45.4087 16.294 42.952 15.624C40.4953 14.9093 38.0387 14.3733 35.582 14.016C35.6267 15.758 35.3587 17.5223 34.778 19.309C34.242 21.051 33.4603 22.7483 32.433 24.401C32.9243 24.133 33.3933 23.9097 33.84 23.731C34.3313 23.5077 34.8673 23.396 35.448 23.396C35.582 22.8153 35.8947 22.4133 36.386 22.19C36.8773 21.9667 37.391 21.855 37.927 21.855C38.5523 21.855 39.0883 21.9667 39.535 22.19C39.937 22.3687 40.5177 22.726 41.277 23.262C42.0363 23.798 42.4607 24.468 42.55 25.272C42.416 25.1827 42.148 25.071 41.746 24.937C41.344 24.7583 40.875 24.669 40.339 24.669C39.6243 24.669 38.8873 24.9147 38.128 25.406C37.9047 25.5847 37.6143 25.674 37.257 25.674C36.8103 25.674 36.4083 25.4953 36.051 25.138C35.7383 24.736 35.5373 24.3563 35.448 23.999C34.2867 24.0883 33.1253 24.602 31.964 25.54C31.7853 25.6293 31.6737 25.674 31.629 25.674C29.8423 28.3987 27.676 30.833 25.13 32.977C22.584 35.121 20.105 36.6843 17.693 37.667C16.3083 38.2477 14.9907 38.672 13.74 38.94C12.4893 39.1633 11.328 39.275 10.256 39.275C7.26333 39.275 4.963 38.4263 3.355 36.729C1.747 35.0317 0.943 32.9547 0.943 30.498C0.943 28.5773 1.45667 26.5673 2.484 24.468C3.556 22.324 5.20867 20.2917 7.442 18.371C9.452 16.6737 11.7077 15.289 14.209 14.217C16.7103 13.1003 19.2563 12.2963 21.847 11.805C24.4823 11.269 26.939 11.0903 29.217 11.269C30.959 11.3583 32.6563 11.5593 34.309 11.872C34.041 10.398 33.4603 8.94633 32.567 7.517C31.2717 5.59633 29.3957 4.167 26.939 3.229C26.3137 3.18433 25.8 3.34066 25.398 3.698C24.996 4.05533 24.728 4.39033 24.594 4.703C24.3707 5.14966 24.259 5.574 24.259 5.976C24.259 6.512 24.4377 6.847 24.795 6.981C25.0183 7.02567 25.13 7.115 25.13 7.249C25.13 7.42766 24.9067 7.517 24.46 7.517C24.1027 7.517 23.7007 7.40533 23.254 7.182C22.8073 6.914 22.584 6.48966 22.584 5.909C22.584 5.14966 22.9413 4.47966 23.656 3.899C24.4153 3.31833 25.2417 3.00567 26.135 2.961C26.1797 2.961 26.202 2.961 26.202 2.961C24.0133 2.24633 21.378 1.97833 18.296 2.157C17.9387 2.20166 17.5813 2.24633 17.224 2.291C16.9113 2.33566 16.5987 2.40267 16.286 2.492L15.817 2.559C15.7277 2.559 15.6383 2.58133 15.549 2.626C15.4597 2.67066 15.3703 2.71533 15.281 2.76C14.8343 2.894 14.3653 3.162 13.874 3.564C13.472 3.966 13.271 4.502 13.271 5.172C13.271 5.93133 13.5837 6.378 14.209 6.512C14.4323 6.55666 14.544 6.66833 14.544 6.847C14.544 6.981 14.4323 7.07033 14.209 7.115C14.1197 7.15966 13.9857 7.182 13.807 7.182C13.405 7.182 13.07 7.048 12.802 6.78C12.6233 6.60133 12.4893 6.42266 12.4 6.244C12.3107 6.02066 12.2437 5.81966 12.199 5.641L11.998 5.976C11.7747 6.33333 11.3727 6.82466 10.792 7.45C10.2113 8.03066 9.54133 8.54433 8.782 8.991C8.02267 9.43766 7.26333 9.661 6.504 9.661C5.52133 9.661 4.80667 9.23666 4.36 8.388C4.31533 8.34333 4.293 8.27633 4.293 8.187C4.293 8.09766 4.36 8.053 4.494 8.053C4.628 8.053 4.762 8.07533 4.896 8.12C5.03 8.12 5.18633 8.12 5.365 8.12C5.85633 8.12 6.32533 7.89666 6.772 7.45C7.26333 7.00333 7.59833 6.53433 7.777 6.043C8.13433 5.01567 8.60333 4.033 9.184 3.095C9.76467 2.11233 10.4123 1.44233 11.127 1.085C11.7523 0.77233 12.3777 0.615998 13.003 0.615998C14.0303 0.615998 14.879 0.950997 15.549 1.621C15.951 1.487 16.3753 1.39766 16.822 1.353C17.2687 1.26366 17.7153 1.19666 18.162 1.152C18.5193 1.10733 18.8543 1.085 19.167 1.085C19.4797 1.085 19.7923 1.085 20.105 1.085C23.1423 1.085 25.7553 1.57633 27.944 2.559C30.1327 3.497 31.83 4.81466 33.036 6.512C33.706 7.36066 34.2197 8.254 34.577 9.192C34.979 10.13 35.2693 11.0903 35.448 12.073C38.0833 12.609 40.6963 13.3013 43.287 14.15C45.9223 14.9987 48.5353 15.892 51.126 16.83C52.1533 15.7133 53.203 14.6637 54.275 13.681C55.3917 12.6537 56.5083 11.7157 57.625 10.867C58.8757 9.929 60.1263 9.28133 61.377 8.924C62.6277 8.56666 63.7667 8.388 64.794 8.388C65.9553 8.388 66.8933 8.54433 67.608 8.857C68.3673 9.16966 68.814 9.527 68.948 9.929L68.613 10.13C68.3003 9.77266 67.8537 9.48233 67.273 9.259C66.737 9.03567 66.0893 8.924 65.33 8.924C64.4367 8.924 63.387 9.14733 62.181 9.594C60.975 9.996 59.6573 10.733 58.228 11.805C57.4687 12.3857 56.6423 13.1673 55.749 14.15C54.8557 15.1327 53.9177 16.2717 52.935 17.567C54.9897 18.3263 56.9773 19.0857 58.898 19.845C60.8633 20.5597 62.7617 21.2297 64.593 21.855C66.335 22.4357 67.876 22.86 69.216 23.128C70.6007 23.3513 71.7843 23.463 72.767 23.463C74.5983 23.463 76.0053 23.195 76.988 22.659C77.9707 22.0783 78.663 21.453 79.065 20.783C79.5117 20.0683 79.802 19.51 79.936 19.108L80.874 19.376C80.74 19.9567 80.405 20.649 79.869 21.453C79.3777 22.2123 78.5737 22.9047 77.457 23.53C76.3403 24.1107 74.7993 24.401 72.834 24.401C71.7173 24.401 70.4667 24.2893 69.082 24.066C67.6973 23.798 66.1117 23.3737 64.325 22.793C62.4043 22.1677 60.439 21.4753 58.429 20.716C56.419 19.9567 54.3643 19.2197 52.265 18.505C50.791 20.5597 49.2947 22.793 47.776 25.205C46.2573 27.5723 44.828 29.8727 43.488 32.106C42.148 34.2947 40.9643 36.193 39.937 37.801C37.4803 41.7317 34.8003 45.2603 31.897 48.387C29.0383 51.5137 26.0233 53.948 22.852 55.69C19.6807 57.4767 16.3753 58.3477 12.936 58.303C12.6233 58.3477 12.2883 58.437 11.931 58.571C11.6183 58.705 11.328 58.8837 11.06 59.107C10.4347 59.5983 10.055 60.0897 9.921 60.581C10.4123 60.581 10.859 60.782 11.261 61.184C11.7077 61.586 11.931 62.0327 11.931 62.524V62.926C11.931 63.3727 11.8863 63.73 11.797 63.998C11.7523 64.3107 11.6853 64.601 11.596 64.869C11.5067 65.137 11.462 65.405 11.462 65.673C11.462 66.0303 11.529 66.3653 11.663 66.678C11.8417 66.9907 12.1097 67.1693 12.467 67.214C12.4223 67.2587 12.3553 67.3257 12.266 67.415C12.1767 67.549 11.9757 67.616 11.663 67.616ZM11.06 38.136C11.9087 38.136 12.8243 38.0243 13.807 37.801C14.7897 37.5777 15.8393 37.2427 16.956 36.796C17.224 36.7067 17.5143 36.6173 17.827 36.528C18.1397 36.4387 18.4077 36.2823 18.631 36.059L18.698 35.992C19.4573 35.5007 20.239 34.786 21.043 33.848C21.847 32.8653 22.3383 31.9497 22.517 31.101C21.7577 31.1457 21.0653 30.9 20.44 30.364C19.8593 29.7833 19.502 29.1357 19.368 28.421C19.3233 28.153 19.2787 27.9073 19.234 27.684C19.234 27.4607 19.234 27.2373 19.234 27.014C19.234 26.612 19.2563 26.2547 19.301 25.942C19.3903 25.6293 19.4797 25.3167 19.569 25.004C19.6137 24.87 19.636 24.602 19.636 24.2C19.636 23.6193 19.502 23.061 19.234 22.525C18.966 21.9443 18.5193 21.654 17.894 21.654C17.9387 21.5647 18.0503 21.4307 18.229 21.252C18.4077 21.0287 18.7427 20.917 19.234 20.917C19.9487 20.917 20.6857 21.185 21.445 21.721C22.249 22.257 22.9637 22.927 23.589 23.731C24.2143 24.4903 24.6387 25.2497 24.862 26.009C24.996 26.545 25.063 27.0587 25.063 27.55C25.063 28.354 24.8843 29.0687 24.527 29.694C24.1697 30.3193 23.723 30.7437 23.187 30.967H23.12C23.1647 31.4137 23.0083 31.972 22.651 32.642C22.2937 33.2673 21.8917 33.848 21.445 34.384C23.6783 32.8653 25.8 31.0117 27.81 28.823C29.82 26.5897 31.4503 24.2 32.701 21.654C33.9963 19.0633 34.5993 16.4727 34.51 13.882C33.572 13.7927 32.634 13.7257 31.696 13.681C30.8027 13.5917 29.887 13.547 28.949 13.547C26.8497 13.5917 24.594 13.9043 22.182 14.485C19.8147 15.0657 17.492 15.9367 15.214 17.098C12.9807 18.2147 11.0153 19.5993 9.318 21.252C7.71 22.8153 6.504 24.5127 5.7 26.344C4.896 28.1307 4.494 29.828 4.494 31.436C4.494 33.312 5.03 34.8977 6.102 36.193C7.21867 37.4883 8.87133 38.136 11.06 38.136Z" fill="black"/>
</svg>
