<svg width="130" height="130" viewBox="0 0 130 130" fill="none" xmlns="http://www.w3.org/2000/svg">
<path fill-rule="evenodd" clip-rule="evenodd" d="M0 64.7539C0 75.0855 1.18122 81.9836 4.53216 91.2342C5.7446 94.5812 7.27107 97.4337 8.87428 100.281C10.8397 103.771 13.0371 106.975 15.5637 110.041C17.7343 112.675 19.987 114.599 22.1505 116.797C22.7544 117.411 23.2728 117.773 23.9482 118.331C27.796 121.509 31.4351 123.96 35.9726 126.276C37.6017 127.106 38.7044 127.685 40.4825 128.411C43.9325 129.819 49.007 132.011 49.007 125.93C49.007 107.698 50.323 119.125 37.0388 115.337C25.4389 112.029 28.1101 102.328 20.1092 96.8463C18.9726 96.0676 17.397 95.1268 17.2668 93.5275C20.0004 91.6586 24.2729 93.5311 26.4507 95.298C28.4286 96.9028 29.6963 99.319 31.1925 101.345C34.911 106.376 40.8304 107.959 46.691 105.938C47.03 105.822 48.2648 105.481 48.5993 105.294C49.5049 104.788 49.264 104.401 49.4522 103.314C50.1945 99.0157 52.7398 97.1232 53.0699 95.8599C50.8895 95.8599 48.6814 95.4128 46.6205 94.9273C44.5204 94.4328 42.6246 93.8809 40.7698 93.1231C37.5785 91.818 35.1117 90.165 32.5378 88.0475C23.4432 80.5656 21.5358 62.9843 25.6789 52.6044C26.4507 50.669 27.5703 48.6854 28.8871 47.0661C31.0131 44.4494 29.9773 45.2181 29.3796 42.0195C28.6409 38.0659 29.0486 33.5231 30.2468 29.7899C31.0292 27.3527 30.9989 27.686 33.2641 27.686C37.1539 27.686 41.9474 30.3218 45.0557 32.2389C50.4327 35.555 47.4547 34.4766 55.7856 33.0504C62.6553 31.8755 71.1602 31.9957 77.854 33.7499C82.9563 35.0878 80.7161 34.351 88.6179 30.2771C91.1757 28.9593 95.078 27.686 98.5217 27.686C100.177 27.686 101.062 36.6069 101.062 37.7954C101.062 45.2782 98.3032 43.6125 101.004 46.9267C104.869 51.6699 106.394 57.4742 106.394 63.977C106.394 72.8724 104.327 80.7277 98.718 86.9873C97.5493 88.2924 95.8934 89.4564 94.4633 90.42C93.0403 91.3781 91.1775 92.3927 89.4137 93.0421C86.1199 94.2552 80.7535 95.8599 76.9387 95.8599C77.2857 97.1887 79.707 99.0449 80.5992 103.27C81.4726 107.402 81.0016 109.744 81.0016 113.487V125.411C81.0016 134.112 89.9365 128.079 93.8798 126.375C98.2782 124.475 104.28 120.333 107.732 116.927L114.327 110.18C120.005 103.625 124.772 94.849 127.127 86.4381C130.673 73.7813 130.853 63.212 128.126 50.3457C127.31 46.4977 125.419 41.4212 123.918 38.31C121.104 32.4784 117.252 25.8818 112.68 21.2679C106.395 14.9245 100.004 9.44992 91.7396 5.83694C76.3249 -0.901761 60.1421 -1.96462 44.0859 3.4799C35.7442 6.30871 27.7818 11.0838 21.3895 17.1194C12.335 25.6705 4.53483 37.8373 1.88245 50.3457C0.915352 54.9077 0 59.3148 0 64.7539Z" fill="white"/>
</svg>
