<svg width="2615" height="734" viewBox="0 0 2615 734" fill="none" xmlns="http://www.w3.org/2000/svg">
<path d="M128.53 116.947C108.942 128.712 76.9537 130.599 32.4613 122.83C72.3542 152.952 104.572 166.133 129.24 162.484L129.949 554.086C83.9192 568.092 52.2859 594.565 35.1751 633.394C69.4038 601.628 107.641 586.684 150.011 588.564L284.212 588.211L340.151 514.078H200.529L199.819 80.7057L216.819 68.3502C253.407 136.129 296.486 176.726 346.052 190.018V505.843L413.215 434.062L412.86 171.072L450.505 130.01C408.135 153.07 369.543 144.599 334.842 104.945C300.14 65.1729 282.201 35.5224 281.025 15.9867L128.53 116.947ZM217.403 61.4059V308.627L236.762 292.393V63.8825C294.239 19.9896 334.842 0.925662 358.563 6.69064C324.926 -11.3119 277.838 7.04444 217.403 61.4059V61.4059ZM112.01 534.439L112.365 176.962L92.652 193.195V298.63C56.6559 297.922 29.156 314.635 10.0341 348.635C43.1982 338.048 70.698 336.869 92.652 345.228V396.177C58.5416 389.704 28.8011 402.885 3.42357 435.477C43.5531 428.769 73.2936 429.24 92.652 436.892V518.198C76.4805 551.498 45.5571 580.677 0 605.741C43.3165 598.45 80.6139 574.676 112.01 534.439V534.439ZM218.468 281.092V453.362L285.269 413.118V313.809L218.468 281.092V281.092ZM307.342 246.62V517.491L315.956 517.845V246.62C322.449 245.205 326.7 242.264 328.822 237.678C330.827 232.968 331.181 228.146 329.887 223.082C328.468 218.142 325.162 214.493 319.971 212.259C314.78 210.144 309.819 210.144 304.983 212.495C300.14 214.729 296.953 218.142 295.422 222.617C293.884 227.085 294.002 231.677 295.658 236.263C297.189 240.855 301.086 244.269 307.342 246.62ZM251.632 325.221C253.761 344.757 260.957 359.346 273.113 368.996C261.311 377.466 253.991 391.112 251.041 409.94C248.209 391.112 240.659 376.995 228.147 367.581C239.949 359.346 247.742 345.228 251.632 325.221V325.221ZM168.305 734C170.434 714.471 177.511 699.875 189.785 690.232C177.984 681.754 170.67 610.57 167.602 476.893C164.888 610.57 157.331 682.226 144.82 691.64C156.621 699.875 164.415 713.999 168.305 734ZM166.655 147.305C170.079 169.074 176.808 184.843 186.717 194.493C177.274 203.081 171.025 266.149 167.957 383.821C165.236 266.149 158.751 202.61 148.598 193.195C158.041 184.843 164.06 169.546 166.655 147.305V147.305ZM477.894 265.213C465.146 272.268 449.211 271.914 430.089 264.151C451.57 282.743 467.623 290.27 478.249 286.51L478.485 517.845C469.043 518.788 454.757 526.787 435.642 541.966C455.467 537.845 470.692 538.081 481.317 542.674L573.969 595.155L687.038 480.66L688.805 448.186L603.71 533.024L549.065 498.545V228.972C573.023 260.502 597.336 280.863 622.004 290.042V502.43L688.805 437.593V250.387L726.457 209.318C691.401 229.554 661.068 232.031 635.343 216.616C609.611 201.201 596.271 183.664 595.095 164.135L477.894 265.213V265.213ZM558.389 196.609V492.072L577.741 475.839V195.547C607.488 170.018 634.16 160.014 657.645 165.543C624.244 147.894 591.199 158.252 558.389 196.609V196.609ZM462.314 402.767C459.955 396.53 456.531 392.646 451.925 391.001C447.325 389.468 442.719 389.35 438.237 390.883C433.749 392.292 430.326 395.469 428.085 400.291C425.726 405.119 425.726 410.176 427.848 415.359C430.089 420.534 433.749 423.829 438.829 425.119C443.902 426.535 448.738 426.181 453.344 424.065C457.944 422.06 460.894 417.828 462.314 411.356H568.417L568.062 402.767H462.314V402.767ZM462.314 340.636C459.955 334.517 456.531 330.632 451.925 328.988C447.325 327.337 442.719 327.337 438.237 328.752C433.749 330.278 430.326 333.456 428.085 338.284C425.726 343.106 425.726 348.052 427.848 353.227C430.089 358.403 433.749 361.698 438.829 363.113C443.902 364.521 448.738 364.167 453.344 362.052C457.944 360.054 460.894 355.697 462.314 349.342H568.417L568.062 340.636H462.314V340.636ZM1034.27 89.7659V516.201L1053.98 499.96V92.1177C1127.51 36.6949 1176.13 11.9908 1199.86 17.6378C1166.22 -0.246779 1110.98 23.7566 1034.27 89.7659V89.7659ZM920.132 181.784V436.892L986.941 396.53V152.487L920.132 181.784ZM821.941 199.668C806.946 206.848 787.594 206.495 763.866 198.607C789.953 217.317 809.548 227.085 822.644 227.91L822.999 497.254L1001.81 588.211L1132.11 473.716L1131.75 439.244L1034.97 526.197L893.815 457.247V142.129L821.941 199.668V199.668ZM762.099 147.658C808.484 119.652 908.094 125.417 1060.94 165.189C1098 144.245 1131.52 117.536 1161.5 84.9444C1106.62 98.4723 1052.91 98.0006 1000.15 83.6471C947.521 69.2937 911.281 60.4693 891.457 56.9382L750.06 138.009L762.099 147.658ZM808.484 504.782L808.839 240.384L789.125 256.617V293.101C753.129 292.393 725.629 309.099 706.507 343.106C739.671 332.519 767.171 331.34 789.125 339.692V380.29C755.015 373.935 725.274 386.998 699.897 419.59C740.026 413 769.774 413.472 789.125 421.006V488.548C766.705 534.085 741.564 559.851 713.709 565.851C745.106 572.678 776.614 552.324 808.484 504.782ZM1092.69 368.288H890.037L889.682 376.877H1092.69C1094.11 383.349 1097.06 387.588 1101.66 389.586C1106.26 391.702 1111.1 392.056 1116.18 390.648C1121.25 389.35 1124.91 386.055 1127.15 380.88C1129.28 375.704 1129.28 370.64 1126.92 365.819C1124.68 360.99 1121.25 357.813 1116.76 356.405C1112.28 354.871 1107.68 354.989 1103.08 356.523C1098.47 358.167 1095.05 362.052 1092.69 368.288V368.288ZM858.995 215.909C861.006 311.221 868.201 363.814 880.358 373.464C868.675 381.934 861.243 415.123 858.292 473.015C855.46 415.123 847.903 381.469 835.392 372.055C847.194 363.814 854.987 311.686 858.995 215.909ZM819.575 532.67C815.567 603.272 807.774 642.69 795.972 650.925C808.484 660.339 816.034 668.816 818.873 676.107C821.823 668.816 829.255 660.81 840.938 652.34C828.782 642.69 821.586 602.8 819.575 532.67ZM837.514 541.376C835.156 535.14 831.732 531.262 827.132 529.61C822.526 527.966 817.926 527.966 813.438 529.375C808.957 530.908 805.533 534.085 803.293 538.907C800.927 543.735 800.927 548.792 803.056 553.85C805.297 559.032 808.957 562.32 814.03 563.736C819.102 565.151 823.945 564.797 828.545 562.674C833.151 560.676 836.102 556.319 837.514 549.972H929.812L912.228 541.376H837.514ZM1316.82 277.922V519.26L1244.24 486.189L1243.88 378.993L1308.21 327.573V286.51L1213.43 363.467C1191.71 382.76 1160.2 389.586 1118.66 384.175C1139.9 406.645 1158.67 417.71 1175.08 417.239L1174.37 500.668C1161.26 496.547 1143.21 506.904 1120.42 531.726C1141.2 525.261 1162.21 526.787 1183.69 536.437L1292.63 588.211L1334.41 544.436L1408.42 591.27C1441.22 523.256 1468.13 487.487 1489.38 483.72C1460.58 485.607 1438.63 496.665 1423.64 516.901L1388.7 496.547V275.917C1408.76 248.265 1417.85 200.965 1415.73 133.895C1406.05 192.488 1373.12 240.502 1316.82 277.922V277.922ZM1307.85 339.339V503.727L1288.5 494.431V358.992L1307.85 339.339ZM1141.2 255.209L1181.92 235.555C1203.4 261.328 1231.13 275.799 1265.13 279.094C1299.12 282.507 1329.1 270.27 1354.83 242.382C1380.68 214.611 1398.14 183.199 1407.11 148.012C1373.59 204.025 1335 227.91 1291.21 219.558C1247.42 211.08 1219.1 192.96 1206.23 164.842L1141.2 255.209V255.209ZM1186.52 298.63V227.556L1177.79 227.321V298.63C1171.42 300.038 1167.05 302.98 1165.04 307.572C1162.92 312.158 1162.57 316.986 1163.98 322.044C1165.4 327.101 1168.7 330.75 1173.89 332.991C1179.08 335.107 1184.05 335.107 1188.88 332.755C1193.73 330.514 1196.91 327.101 1198.44 322.633C1199.86 318.159 1199.86 313.573 1198.21 308.981C1196.56 304.395 1192.66 300.982 1186.52 298.63V298.63ZM1376.66 91.7639C1359.32 85.1803 1343.14 88.1217 1328.04 100.595C1312.93 113.062 1307.85 128.83 1312.81 147.658C1317.77 166.487 1328.39 176.962 1344.44 178.96C1347.04 185.197 1349.99 188.374 1353.3 188.492C1356.6 188.61 1359.43 187.784 1361.79 185.904C1364.03 184.017 1365.22 182.019 1365.22 179.903C1365.22 177.663 1364.51 175.547 1362.97 173.549C1361.44 171.426 1359.66 169.9 1357.66 168.956C1355.54 168.131 1353.18 168.131 1350.58 168.956C1347.86 169.9 1346.33 171.426 1345.86 173.549C1332.52 170.961 1323.79 162.366 1319.77 147.658C1315.76 132.951 1319.65 119.77 1331.58 108.358C1343.38 96.8282 1356.48 93.6509 1371 98.7082C1385.4 103.773 1395.08 113.769 1400.03 128.83C1404.99 143.891 1397.55 164.724 1377.73 191.433L1396.37 171.78C1408.53 156.837 1412.66 141.422 1408.64 125.535C1404.64 109.773 1393.89 98.4723 1376.66 91.7639V91.7639ZM1353.53 263.09C1355.54 282.625 1362.73 297.215 1374.89 306.865C1363.21 315.453 1355.77 329.106 1352.82 347.934C1349.99 329.106 1342.43 314.981 1329.92 305.567C1341.73 297.215 1349.52 283.097 1353.53 263.09V263.09ZM1468.61 133.187L1509.45 113.533C1525.26 128.948 1537.06 138.716 1544.61 142.837V201.083L1519.12 201.437V173.195L1454.45 257.914C1478.64 294.037 1478.76 332.401 1454.8 373.11C1501.07 340.636 1523.61 305.456 1522.19 267.211L1544.27 267.564V493.723C1534.59 532.788 1504.84 565.851 1455.16 592.685C1521.01 583.736 1558.54 565.033 1567.51 536.437L1663.94 593.032C1714.46 529.846 1750.33 493.134 1771.46 483.012C1749.63 482.193 1724.02 495.25 1694.74 522.319L1611.78 477.837V269.68H1631.13L1631.84 466.896L1651.2 450.656V271.096H1691.91C1665.48 313.573 1668.66 350.993 1701.59 383.467C1691.56 360.872 1715.28 342.398 1772.88 327.927C1703.25 336.161 1680.94 315.099 1705.84 264.505L1741.01 198.607L1651.2 198.96V166.958C1668.9 135.185 1691.67 116.357 1719.65 110.356C1688.26 103.537 1657.92 120.36 1628.65 161.075L1629.36 200.022L1612.12 200.376V141.422C1633.96 133.659 1664.41 104.355 1703.36 53.525C1663 79.7622 1627.82 91.535 1597.85 88.8224C1567.99 86.2348 1546.51 70.8199 1533.64 42.8136L1468.61 133.187V133.187ZM1694.74 701.998C1713.39 681.754 1720.24 659.756 1715.28 636.099C1710.32 612.45 1691.91 592.331 1660.17 575.855L1665.36 591.624C1690.73 608.211 1703.95 625.867 1705.13 644.577C1706.2 663.28 1698.76 680.7 1682.82 696.587C1666.78 712.584 1647.06 716.823 1623.7 709.407C1600.32 701.88 1586.4 687.055 1582.15 664.695C1577.9 642.454 1583.8 625.159 1599.97 613.04C1601.86 615.509 1604.93 616.571 1609.17 615.981C1613.43 615.391 1616.61 613.865 1618.85 611.271C1620.98 608.801 1622.51 605.623 1623.1 601.863C1623.81 598.096 1623.46 594.683 1621.92 591.86C1620.39 588.918 1617.56 587.031 1613.31 586.095C1609.06 585.269 1604.69 585.859 1600.32 588.211C1595.96 590.444 1594.07 596.563 1594.78 606.449C1574.72 619.866 1567.51 640.692 1573.18 669.052C1578.84 697.405 1595.84 715.054 1624.16 721.998C1652.49 728.825 1676.1 722.234 1694.74 701.998V701.998ZM1642.46 448.894C1638.57 563.146 1630.77 624.452 1618.97 632.686C1631.48 642.1 1639.04 666.575 1641.87 706.112C1644.82 666.575 1652.14 642.572 1663.94 634.101C1651.78 624.452 1644.59 562.674 1642.46 448.894V448.894ZM1760.84 133.187L1801.68 113.533C1817.5 128.948 1829.3 138.716 1836.85 142.837V201.083L1811.36 201.437V173.195L1746.68 257.914C1770.87 294.037 1770.99 332.401 1747.04 373.11C1793.3 340.636 1815.84 305.456 1814.43 267.211L1836.5 267.564V493.723C1826.82 532.788 1797.07 565.851 1747.39 592.685C1813.25 583.736 1850.78 565.033 1859.75 536.437L1956.18 593.032C2006.69 529.846 2042.57 493.134 2063.69 483.012C2041.87 482.193 2016.25 495.25 1986.98 522.319L1904.01 477.837V269.68H1923.36L1924.07 466.896L1943.43 450.656V271.096H1984.15C1957.71 313.573 1960.9 350.993 1993.82 383.467C1983.79 360.872 2007.52 342.398 2065.11 327.927C1995.48 336.161 1973.17 315.099 1998.08 264.505L2033.24 198.607L1943.43 198.96V166.958C1961.13 135.185 1983.91 116.357 2011.88 110.356C1980.49 103.537 1950.15 120.36 1920.89 161.075L1921.6 200.022L1904.36 200.376V141.422C1926.19 133.659 1956.65 104.355 1995.6 53.525C1955.23 79.7622 1920.06 91.535 1890.08 88.8224C1860.22 86.2348 1838.74 70.8199 1825.87 42.8136L1760.84 133.187V133.187ZM1986.98 701.998C2005.63 681.754 2012.47 659.756 2007.52 636.099C2002.56 612.45 1984.15 592.331 1952.4 575.855L1957.59 591.624C1982.97 608.211 1996.18 625.867 1997.37 644.577C1998.43 663.28 1990.99 680.7 1975.06 696.587C1959.01 712.584 1939.3 716.823 1915.93 709.407C1892.56 701.88 1878.63 687.055 1874.38 664.695C1870.14 642.454 1876.04 625.159 1892.2 613.04C1894.1 615.509 1897.16 616.571 1901.41 615.981C1905.66 615.391 1908.85 613.865 1911.09 611.271C1913.22 608.801 1914.75 605.623 1915.34 601.863C1916.05 598.096 1915.69 594.683 1914.16 591.86C1912.63 588.918 1909.79 587.031 1905.54 586.095C1901.29 585.269 1896.93 585.859 1892.56 588.211C1888.19 590.444 1886.3 596.563 1887.01 606.449C1866.95 619.866 1859.75 640.692 1865.41 669.052C1871.08 697.405 1888.08 715.054 1916.4 721.998C1944.73 728.825 1968.34 722.234 1986.98 701.998V701.998ZM1934.7 448.894C1930.8 563.146 1923.01 624.452 1911.21 632.686C1923.72 642.1 1931.27 666.575 1934.11 706.112C1937.06 666.575 1944.37 642.572 1956.18 634.101C1944.02 624.452 1936.82 562.674 1934.7 448.894V448.894ZM2078.69 265.213C2065.94 272.268 2050.01 271.914 2030.89 264.151C2052.37 282.743 2068.42 290.27 2079.04 286.51L2079.28 517.845C2069.84 518.788 2055.55 526.787 2036.44 541.966C2056.26 537.845 2071.49 538.081 2082.11 542.674L2174.77 595.155L2287.83 480.66L2289.6 448.186L2204.51 533.024L2149.86 498.545V228.972C2173.82 260.502 2198.13 280.863 2222.8 290.042V502.43L2289.6 437.593V250.387L2327.25 209.318C2292.2 229.554 2261.86 232.031 2236.14 216.616C2210.41 201.201 2197.07 183.664 2195.89 164.135L2078.69 265.213V265.213ZM2159.19 196.609V492.072L2178.54 475.839V195.547C2208.28 170.018 2234.96 160.014 2258.44 165.543C2225.04 147.894 2191.99 158.252 2159.19 196.609V196.609ZM2063.11 402.767C2060.75 396.53 2057.33 392.646 2052.72 391.001C2048.12 389.468 2043.51 389.35 2039.03 390.883C2034.55 392.292 2031.12 395.469 2028.88 400.291C2026.52 405.119 2026.52 410.176 2028.64 415.359C2030.89 420.534 2034.55 423.829 2039.62 425.119C2044.7 426.535 2049.53 426.181 2054.14 424.065C2058.74 422.06 2061.69 417.828 2063.11 411.356H2169.21L2168.86 402.767H2063.11V402.767ZM2063.11 340.636C2060.75 334.517 2057.33 330.632 2052.72 328.988C2048.12 327.337 2043.51 327.337 2039.03 328.752C2034.55 330.278 2031.12 333.456 2028.88 338.284C2026.52 343.106 2026.52 348.052 2028.64 353.227C2030.89 358.403 2034.55 361.698 2039.62 363.113C2044.7 364.521 2049.53 364.167 2054.14 362.052C2058.74 360.054 2061.69 355.697 2063.11 349.342H2169.21L2168.86 340.636H2063.11V340.636ZM2366.44 265.213C2353.69 272.268 2337.75 271.914 2318.63 264.151C2340.11 282.743 2356.17 290.27 2366.79 286.51L2367.03 517.845C2357.59 518.788 2343.3 526.787 2324.18 541.966C2344.01 537.845 2359.23 538.081 2369.86 542.674L2462.51 595.155L2575.58 480.66L2577.35 448.186L2492.25 533.024L2437.61 498.545V228.972C2461.57 260.502 2485.88 280.863 2510.55 290.042V502.43L2577.35 437.593V250.387L2615 209.318C2579.94 229.554 2549.61 232.031 2523.89 216.616C2498.15 201.201 2484.81 183.664 2483.64 164.135L2366.44 265.213V265.213ZM2446.93 196.609V492.072L2466.28 475.839V195.547C2496.03 170.018 2522.7 160.014 2546.19 165.543C2512.79 147.894 2479.74 158.252 2446.93 196.609V196.609ZM2350.86 402.767C2348.5 396.53 2345.07 392.646 2340.47 391.001C2335.87 389.468 2331.26 389.35 2326.78 390.883C2322.29 392.292 2318.87 395.469 2316.63 400.291C2314.27 405.119 2314.27 410.176 2316.39 415.359C2318.63 420.534 2322.29 423.829 2327.37 425.119C2332.44 426.535 2337.28 426.181 2341.89 424.065C2346.49 422.06 2349.44 417.828 2350.86 411.356H2456.96L2456.6 402.767H2350.86V402.767ZM2350.86 340.636C2348.5 334.517 2345.07 330.632 2340.47 328.988C2335.87 327.337 2331.26 327.337 2326.78 328.752C2322.29 330.278 2318.87 333.456 2316.63 338.284C2314.27 343.106 2314.27 348.052 2316.39 353.227C2318.63 358.403 2322.29 361.698 2327.37 363.113C2332.44 364.521 2337.28 364.167 2341.89 362.052C2346.49 360.054 2349.44 355.697 2350.86 349.342H2456.96L2456.6 340.636H2350.86V340.636Z" fill="black"/>
</svg>
