<svg width="481" height="486" viewBox="0 0 481 486" fill="none" xmlns="http://www.w3.org/2000/svg">
<path fill-rule="evenodd" clip-rule="evenodd" d="M-10.9696 280.844C-11.0874 280.345 -10.8689 280.651 -11.2764 280.311C-12.1954 280.215 -11.8401 280.568 -13.1441 279.128L-20.6444 270.472C-22.6349 267.936 -26.0488 264.161 -27.8679 261.471C-28.5397 260.476 -28.7062 260.397 -29.2502 259.601C-31.0295 256.996 -32.836 254.47 -34.5399 251.784C-42.7921 238.786 -44.8223 233.894 -50.2884 221.29C-53.0354 214.953 -56.6464 202.157 -57.941 195.575C-59.9974 185.131 -60.9463 174.312 -60.3186 163.659C-59.9051 156.665 -58.2348 147.133 -55.9653 140.5C-55.5045 139.155 -55.2253 137.134 -53.762 136.67C-52.4396 137.475 -52.4257 138.87 -51.934 140.807C-51.4743 142.615 -50.8559 144.403 -50.2013 146.176L-46.1615 156.24C-46.0813 157.188 -43.983 160.262 -43.2834 161.197C-42.8349 161.797 -40.8742 165.117 -40.0871 165.835C-39.1707 166.673 -38.6794 168.008 -37.8029 168.811C-36.4089 169.087 -34.0429 172.551 -32.1488 174.445L-25.3761 180.395C-24.9333 180.716 -24.8301 180.888 -24.461 181.185C-16.7555 187.406 -21.5194 182.419 -14.9418 190.859L-11.5189 195.426C-9.82744 197.724 -8.92861 199.07 -6.87982 201.289L0.924801 208.749C1.39408 209.142 1.37865 209.206 1.83187 209.557L4.51066 211.46C10.9239 216.432 12.2938 216.483 18.0677 219.95C18.6931 220.326 18.3641 220.203 19.1697 220.529C22.8556 222.023 26.217 224.154 31.8701 226.2C33.4647 226.776 34.6804 227.069 36.4039 227.706C37.1459 227.981 37.9415 228.089 38.7452 228.354C39.4364 228.582 40.4184 228.804 41.1008 229.01C47.6491 230.985 44.7542 228.511 47.5769 235.48C49.8198 241.019 54.1701 246.057 58.9872 250.127C59.6982 250.727 60.0479 251.063 60.7511 251.534C61.194 251.829 61.2141 251.845 61.5979 252.136C61.7071 252.22 61.8895 252.36 62.0176 252.453L72.1475 258.862C72.7224 259.136 73.8663 259.574 73.3619 260.406C72.8693 261.289 72.4646 261.179 69.9845 261.95C68.722 262.342 67.4035 263.069 66.0185 263.165C66.0478 263.758 64.4086 264.088 62.7252 264.871L51.314 271.32C50.7216 271.714 50.7516 271.798 49.9413 272.326C48.99 272.945 47.8832 273.641 47.0117 274.293L41.3641 278.493C36.3682 282.186 30.8384 287.752 27.9969 292.909C26.2529 296.074 23.33 301.309 22.5988 304.333C21.464 309.036 19.2014 306.134 15.6638 303.708C12.1489 301.3 7.43086 297.967 4.29144 295.24L-8.68124 283.496C-9.98696 282.146 -10.7124 282.193 -10.9696 280.844ZM-46.1035 121.963L-43.8015 124.461C-41.9926 126.445 -39.6482 129.907 -37.6351 131.743L-30.9422 139.141C-30.4351 139.651 -30.2486 139.807 -29.719 140.374L-19.8302 150.45C-16.9087 153.479 -13.3045 156.351 -10.6329 158.887L-6.57445 162.412C-5.96322 162.934 -5.94885 163.035 -5.26012 163.542C-4.65374 163.99 -4.50669 164.205 -3.90441 164.622C-3.12825 165.159 -1.84385 166.211 -1.23453 166.811C0.142236 168.172 7.06828 173.256 7.07393 173.262C7.78098 173.987 8.9731 174.946 9.80936 175.436L27.0791 187.59C28.045 188.191 29.0377 188.824 30.0685 189.39L31.5343 190.316C39.4168 195.072 30.8665 193.555 25.0124 193.499L12.5097 192.349C6.94286 191.763 2.12358 190.518 -2.58268 188.898C-6.0412 187.706 -6.5931 187.256 -9.20685 186.134L-12.3064 184.498C-12.7613 184.231 -12.5756 184.326 -13.0853 184.071L-14.5515 183.127C-15.1428 182.779 -14.8902 183.034 -15.5121 182.691L-25.2233 175.203L-39.2976 159.012C-39.6804 158.48 -39.9371 158.031 -40.2989 157.348L-43.7757 151.027C-43.8465 150.884 -44.6137 149.376 -44.6159 149.37C-45.192 148.352 -44.7387 148.898 -45.1725 147.795L-49.1906 135.841C-49.821 133.663 -50.4971 130.022 -50.055 127.745C-49.5124 124.95 -50.1677 127.081 -48.8326 124.492C-48.0779 123.028 -47.4827 122.108 -46.1035 121.963ZM-7.3673 191.6C-6.28471 192.222 -4.98534 192.096 -4.25158 192.986C-2.91352 192.719 -2.68797 193.304 -1.08593 193.666L1.26621 194.35C2.19128 194.676 1.69701 194.485 2.10779 194.892L4.69724 195.342C6.3567 195.3 8.45375 195.881 10.0074 196.095L20.6164 197.156C21.6015 197.173 25.2367 197.262 26.0118 197.815L30.36 197.776C32.0092 197.166 31.9762 197.811 35.7766 197.307C37.2788 197.107 40.2916 196.205 41.3062 196.375L45.5718 198.474C45.8906 198.645 46.0988 198.839 46.4469 199.034L73.3316 211.57L84.9746 215.828C86.0021 216.121 87.7023 216.599 88.8461 217.042C91.192 217.948 95.2888 218.305 89.7111 220.691C78.9812 225.279 67.0127 228.831 55.5134 227.721C46.0198 226.805 37.8622 224.423 29.519 221.049C25.7424 219.52 19.8194 216.438 16.2531 214.432L12.0711 211.943C9.24565 209.867 5.26272 207.527 2.82155 205.237L-2.01419 200.78C-2.73614 200.054 -3.57229 199.278 -4.34127 198.432C-4.6957 198.042 -5.09726 197.603 -5.4131 197.272L-8.49014 193.089C-8.64997 192.822 -9.10456 192.27 -9.06474 191.935C-9.02859 191.643 -9.36404 191.489 -8.50339 191.297C-6.77905 190.913 -7.77136 191.251 -7.3673 191.6ZM57.8262 291.076C57.6195 291.386 48.6753 298.005 47.3354 299.437C45.8548 301.018 44.953 301.462 43.5313 303.077C42.9514 303.737 42.2618 304.286 41.6069 304.978L39.8911 306.798C39.2962 307.35 39.0737 307.918 38.2877 308.677C36.8704 310.046 36.6559 310.704 35.9671 311.565C32.9719 315.305 33.1098 314.4 28.3196 311.645C26.8276 310.786 27.8268 311.035 25.9556 310.467C25.6443 308.958 25.5123 308.61 26.0987 307.253L27.1837 305.898C27.55 305.315 27.9582 303.387 28.2959 302.48C28.5154 301.893 28.8774 301.54 29.1521 301.011C29.4618 300.414 29.7136 299.671 29.8115 299.366C29.7325 298.281 29.8509 298.276 30.3013 297.49C30.4273 297.27 30.6307 296.8 30.6784 296.728C31.262 295.85 30.6149 296.421 31.556 296.014C31.5615 296.005 31.93 295.248 32.0905 295.02C32.334 293.688 33.1863 292.754 33.8913 291.761C34.6568 290.683 35.2833 289.531 36.46 288.922L36.4944 289.058C36.4257 288.084 36.6348 288.293 37.3671 287.93C37.8776 287.467 38.3248 286.681 38.9818 286.522C39.6862 284.45 46.7499 279.541 47.4729 279.251L48.7719 278.395C48.9422 277.743 48.553 278.113 49.5246 277.382L58.4786 271.272C60.1869 270.344 64.2484 267.993 65.7989 267.74C65.9289 267.524 65.8801 267.349 66.5901 266.925C66.7436 266.833 67.8561 266.35 67.9767 266.298C68.4944 266.075 69.8833 265.454 70.4447 265.248C75.0497 263.551 78.7728 262.108 82.8187 262.702C83.7307 262.836 87.2176 263.539 87.3049 264.357C87.2428 264.641 86.5246 265.825 86.222 266.225C85.8715 266.69 85.7593 266.7 85.4311 267.201L80.7512 273.882C80.1945 274.696 79.9947 275.091 79.454 275.942L77.4218 278.972C73.479 285.19 75.2758 284.511 68.9424 286.31C67.9602 286.589 66.8776 286.941 66.0099 287.308L60.4746 289.802C59.4655 290.31 58.9998 290.899 57.8262 291.076ZM14.9225 357.736C15.3989 357.066 15.2652 357.362 15.5939 356.54C15.767 356.107 15.8925 355.706 16.2804 355.248C16.0753 353.782 17.9781 351.074 18.768 349.288C20.0304 346.434 23.0012 341.031 23.9107 338.621L29.967 327.187C31.5271 324.648 35.0033 318.614 36.2736 317.229L48.4744 303.215L55.9646 296.85C58.0422 295.353 67.4808 288.696 69.8116 290.01C70.2728 290.246 69.9683 289.544 70.2083 290.502C70.3575 291.092 70.2234 290.888 70.052 291.293L69.8134 291.772C69.7918 291.821 69.7669 291.885 69.7432 291.935L65.1324 301.032C64.9354 301.441 64.6369 301.922 64.413 302.395L57.136 318.126C56.7272 319.025 56.1459 320.197 55.8645 320.991L48.542 336.865C47.896 338.287 47.5288 340.553 49.5578 341.148C50.8063 341.513 52.2424 341.213 53.829 340.731C54.2422 340.606 55.4955 340.179 55.5973 340.154L74.7131 335.856C79.9171 334.889 86.5238 333.082 92.2804 331.733C94.241 331.273 108.309 327.347 109.164 327.773C110.468 328.422 108.177 330.816 107.002 332.335C105.072 334.829 103.383 336.395 100.757 338.374C99.9233 339.004 99.1988 339.594 98.4025 340.241L95.9844 342.041C95.0012 342.649 94.0963 343.175 93.0766 343.826L84.5933 348.7C83.6271 349.206 82.5198 349.787 81.6412 350.189C79.3865 351.222 77.5024 352.073 75.3123 353.035C74.39 353.441 73.2799 354.218 72.2966 354.62C70.6238 355.306 70.2107 355.159 68.7749 355.594C67.6944 355.92 66.3537 356.533 65.3035 356.872L54.253 360.301C49.06 361.726 43.2439 363.171 38.1856 364.382C29.355 366.496 22.931 368.543 14.827 370.794C12.7531 371.371 8.79996 372.771 6.94649 372.826C6.63346 371.699 7.51107 370.2 8.18662 369.054C8.84475 367.937 9.84534 366.578 10.3733 365.302L13.451 359.716C14.4883 357.903 13.5996 358.395 14.9225 357.736ZM124.072 224.471L110.001 237.819C108.843 239.273 103.653 244.445 102.241 246.4L98.9539 250.324C98.493 250.941 97.8574 251.619 97.368 252.21C96.7502 252.954 96.2896 253.562 95.6846 254.244L90.9298 259.931C89.8832 260.719 89.4234 260.295 88.3701 260.055C86.6996 259.675 82.5176 258.812 81.2197 258.253L75.57 256.147C74.1484 255.732 70.6635 253.566 69.3754 252.881C66.0279 251.099 57.625 244.406 55.5753 241.413C54.6121 240.006 50.0711 233.726 50.3995 232.267C50.8147 230.424 54.8743 231.324 58.739 231.521C65.6977 231.876 72.1521 230.459 78.9475 228.52C83.9248 227.101 86.924 225.733 91.4357 223.939C97.3227 221.596 97.0569 219.887 98.9371 219.879C99.9656 219.875 104.947 221.153 107.352 221.506C108.423 221.664 108.9 221.789 110.066 221.962C113.072 222.408 118.826 223.177 121.805 223.299C123.274 223.359 123.726 223.069 124.072 224.471ZM85.256 114.265C83.9636 114.369 82.774 114.648 81.3522 114.756L57.0477 114.332C49.8154 113.753 42.3501 111.906 35.3664 110.579C32.2317 109.983 28.0186 108.384 25.1688 107.886C23.788 107.644 22.2673 106.99 20.9423 106.577L15.307 104.777C13.257 104.126 11.845 103.512 9.78462 102.851C5.43724 101.458 -4.77388 96.8801 -8.75846 95.1023L-21.2571 88.6251C-21.6996 88.3826 -21.966 88.1731 -22.4658 87.9299C-23.2667 87.5395 -22.9777 87.7764 -23.721 87.2807C-27.4546 84.7967 -31.9522 82.6858 -35.5735 79.9819L-47.8192 70.9774L-57.0211 62.8006C-60.2687 59.5851 -64.0747 55.8527 -66.5595 52.3151L-71.4444 45.0818C-72.202 43.7993 -74.8403 40.2916 -70.8869 41.0056C-68.6286 41.4149 -66.7761 41.647 -64.4171 42.0418C-59.9677 42.7861 -56.0996 43.3735 -51.9216 44.0634L-45.6461 45.0195C-42.9599 45.7901 -30.8599 47.1873 -26.9003 48.0647C-24.3607 48.627 -19.2757 49.1912 -15.9361 49.7861L-8.13778 51.0726C-5.93183 51.3565 -3.91894 51.658 -1.8336 52.0032C1.33606 52.5281 4.64853 53.2889 7.5517 53.5322C9.10821 53.6625 9.32234 53.921 10.6696 54.0419C12.783 54.231 14.7702 54.7104 16.9563 55.0055L35.7133 58.003C37.4307 58.4411 38.0264 61.5698 38.7045 63.0361C40.3043 66.499 42.4286 70.2988 44.74 73.2987C45.3363 74.0714 45.8981 74.7586 46.4859 75.5571L50.1035 79.9142C50.8208 80.6887 51.4025 81.1857 52.0332 81.9147C54.4822 84.7456 57.0829 87.3324 60.0846 89.6068C60.7389 90.1022 60.5417 89.9817 61.1065 90.5249L73.4713 99.4301C76.3497 101.43 80.3693 103.285 83.2534 104.903L94.1355 110.092C96.0907 111.001 97.4199 111.901 93.7386 112.808C91.0087 113.482 87.8376 114.058 85.256 114.265ZM140.055 316.098C142.154 315.452 142.202 318.716 142.419 320.13C142.841 322.883 138.373 329.922 136.407 332.528C134.258 335.379 132.036 337.76 129.454 340.349C127.425 342.383 126.588 342.916 124.798 344.513C124.326 344.934 124.357 344.92 123.813 345.346L120.951 347.741C119.424 348.984 112.593 354.099 110.562 355.262C105.286 358.282 100.316 360.457 93.9436 361.745C91.8121 362.176 83.207 364.198 81.5869 363.59C80.6503 363.239 79.4034 360.708 78.8893 359.826C76.1403 355.105 77.1798 356.575 83.4914 353.399C86.4845 351.894 94.7079 347.355 97.4669 345.259L105.598 339.058L111.84 331.995C112.265 331.411 112.613 330.746 113.012 330.063L114.224 327.976C115.465 325.968 114.274 325.65 117.657 324.577C121.629 323.317 125.329 321.95 129.306 320.44C131.361 319.661 133.007 318.914 134.547 318.383L140.055 316.098ZM185.355 159.36C182.347 159.982 168.884 166.684 166.044 168.101C162.972 169.633 160.275 171.41 157.556 173.15C156.089 174.087 154.806 174.779 153.429 175.682C152.213 176.478 150.91 177.617 149.675 178.317C149.452 178.698 149.552 178.643 149.181 179.037L144.081 182.967C143.765 183.996 141.771 185.196 139.981 186.811C135.962 190.437 135.525 191.189 132.15 194.566C130.014 196.706 126.93 200.694 125.564 203.009C125.058 203.864 124.771 204.219 124.218 205.229C124.019 205.594 123.819 205.924 123.544 206.422C122.623 208.091 120.58 212.236 120.186 213.653C119.984 214.384 119.511 217.269 119.113 217.868C119.14 218.539 119.329 217.881 118.943 218.678C116.68 219.504 116.809 219.002 115.163 218.824C114.439 218.746 114.013 218.857 113.241 218.719C104.679 217.189 99.8712 216.372 91.1895 213.767L80.8801 210.364C80.8315 210.344 80.7637 210.312 80.7149 210.291C80.6663 210.271 80.5985 210.24 80.5497 210.219L72.4943 207.049C71.3212 206.599 67.199 205.036 66.6012 204.015L65.807 203.56C64.6885 203.737 64.023 203.065 62.982 202.644C62.5123 202.454 61.0099 201.735 60.7497 201.561C59.3878 201.43 56.6198 199.894 55.5105 199.281L50.6676 196.747C47.4881 195.313 43.6269 192.687 41.0562 191.353L24.8428 181.227C22.7797 179.534 16.2673 175.492 13.7882 173.468L5.15928 166.833C3.13575 164.957 -0.146196 162.611 -3.19432 159.825L-9.34975 154.513C-10.3604 153.568 -10.7782 153.584 -11.3498 152.233C-11.7124 151.388 -13.6449 149.958 -14.5437 149.104C-15.5484 148.146 -17.0611 146.608 -17.8711 145.728C-18.3333 145.564 -18.1269 145.738 -18.6904 145.386C-19.2489 145.038 -18.7592 145.412 -19.2006 144.924C-19.5966 144.486 -20.0018 144.045 -20.268 143.549C-20.5203 143.075 -22.5732 141.2 -23.1222 140.698C-24.1513 139.755 -25.081 138.438 -26.0574 137.407C-26.9062 136.513 -31.6889 131.6 -31.8748 131.125C-32.8654 130.825 -32.7885 130.742 -33.0756 129.847L-32.9519 129.97C-34.0233 129.75 -32.9766 130.081 -33.6005 129.774C-34.2773 129.442 -37.2969 125.804 -37.8335 125.054L-42.2214 119.706C-43.8242 117.983 -45.1143 115.908 -46.5424 114.032L-57.7903 97.5888C-59.6049 95.0285 -62.6649 89.2511 -64.1823 86.4595C-66.4587 82.2708 -68.8434 76.8392 -70.5509 72.5163C-73.1948 65.8231 -75.8068 56.8958 -76.7216 49.4773C-76.9444 47.6847 -77.2856 47.8156 -76.2732 46.7182C-75.0925 47.186 -72.1104 51.6671 -71.446 52.8059C-70.9073 53.7303 -70.1859 54.2733 -69.6729 55.0319L-64.4266 61.3974C-64.1523 61.7067 -63.6987 62.1723 -63.4842 62.3863C-63.4194 62.4494 -63.248 62.5111 -62.9952 62.8953C-62.6666 63.3964 -62.8813 62.4479 -62.7255 63.5875C-61.8015 63.4823 -62.4533 63.3533 -61.8021 63.9152L-59.6055 66.0966C-55.6717 69.8124 -54.9045 70.6086 -50.2505 74.2934C-50.209 74.3249 -50.1498 74.3661 -50.1105 74.3972L-43.6364 79.3047C-42.9938 79.7793 -42.7277 80.0022 -41.9835 80.5485L-20.7372 93.56L4.4048 104.96C9.37126 106.944 11.9609 107.683 16.7752 109.36L38.4136 115.151L62.0937 118.496C65.3373 118.651 68.7992 118.972 72.284 118.86C83.4961 118.502 90.0431 118.2 100.971 114.456C103.48 113.597 103.532 113.809 105.558 114.602C106.242 114.87 106.879 114.927 107.535 115.162C118.044 118.912 129.489 121.27 140.636 123.455C141.328 123.59 142.063 123.694 142.749 123.844C147.188 124.812 152.438 125.304 157.02 125.818C162.064 126.383 170.543 126.002 175.775 125.593C177.312 125.473 179.904 124.815 180.948 125.618C182.007 126.433 182.04 128.59 182.606 129.906C184.911 135.271 185.275 136.691 188.886 142.027L195.638 150.241C196.857 151.402 199.49 153.29 199.831 154.726C198.046 156.134 195.002 156.314 192.647 157.087C191.405 157.496 186.377 159.297 185.355 159.36ZM194.056 316.514C195.713 317.328 195.724 319.784 196.303 321.938C196.789 323.75 198.044 326.765 198.224 327.582C198.775 330.082 202.348 338.87 203.497 341.574L207.345 349.41C207.661 349.905 207.345 349.587 207.727 350.423L209.829 354.498C210.746 356.177 211.669 357.846 212.673 359.565C216.194 365.6 212.704 363.314 212.244 369.494C211.949 373.419 211.481 377.32 211.316 381.169C211.269 382.272 211.417 383.047 211.367 384.166C211.318 385.299 211.495 386.097 211.475 387.167C211.279 397.268 214.9 403.866 214.961 406.132C213.653 406.533 213.997 406.528 212.9 405.917L212.588 405.743C212.215 405.541 212.205 405.575 211.821 405.334L207.528 402.139C207.164 401.823 207.192 401.877 206.852 401.597L200.122 395.057L195.035 388.677C192.679 385.266 190.841 383.143 188.757 378.834C186.781 374.747 184.503 371.186 183.048 366.413C182.759 365.465 182.326 364.135 182.009 363.113C181.531 361.566 181.485 361.098 181.198 359.671C179.828 352.821 178.621 345.088 181.11 338.02C181.83 335.976 181.577 335.594 183.047 332.995C183.376 332.412 183.217 332.777 183.414 332.186C184.242 329.69 186.493 326.292 188.064 323.915L190.739 320.052C191.506 318.954 192.752 316.928 194.056 316.514ZM172.417 350.059L171.147 349.42C169.99 349.329 169.031 348.687 168.169 348.174C167.674 347.88 167.434 347.638 166.855 347.325C166.045 346.888 166.004 346.944 165.57 346.176L163.726 344.8C162.398 344.847 162.56 344.641 160.785 342.974L156.122 337.769C149.919 330.776 147.501 324.336 145.864 315.243C145.48 313.112 147.336 312.76 149.386 311.842C152.829 310.303 169.261 302.235 171.752 300.748L182.323 294.67C183.008 294.231 182.898 294.224 183.406 293.896C183.756 293.67 184.192 293.484 184.504 293.304C186.135 292.362 186.832 291.47 188.223 291.155C188.521 290.281 190.515 289.027 191.589 288.892C192.756 289.864 192.156 295.428 192.148 297.036C192.134 299.887 192.597 303.902 193.066 306.673C194.073 312.608 194.102 310.474 190.443 314.001C188.953 315.437 184.165 322.221 183.363 323.534L180.947 327.745C177.353 334.506 176.249 338.726 175.477 346.419C175.263 348.558 175.775 346.722 175.084 350.686C172.218 351.419 172.579 350.404 172.417 350.059ZM211.141 263.518C211.403 264.962 209.935 266.112 208.957 267.206C207.891 268.398 207.267 269.334 206.134 270.594C205.134 271.708 204.316 272.741 203.017 273.802L195.987 279.84C192.404 282.852 189.078 286.095 184.869 288.578C183.519 289.374 182.359 290.376 180.812 291.26L176.565 293.875C175.916 294.256 175.075 294.633 174.397 295.073L168.753 298.12C167.995 298.505 168.095 298.572 167.589 298.848C156.382 304.948 140.133 312.162 128.277 316.881C124.669 318.316 121.048 319.47 117.37 320.782C103.247 325.821 83.0155 330.388 68.0066 333.596L58.2862 335.637C57.7691 335.745 57.2142 335.881 56.7067 335.979C56.5206 336.016 56.0748 336.101 55.9006 336.118C54.7218 336.234 54.2346 335.841 54.3986 334.611C54.4567 334.164 54.7595 333.694 54.9204 333.418C55.5367 332.37 55.4452 332.173 55.8908 331.179L60.942 319.766C61.1654 319.167 61.6981 317.99 61.9966 317.386L71.592 297.024C73.265 293.608 75.5232 289.555 77.7453 286.21L83.0652 277.689C83.5205 276.983 83.9708 276.233 84.4121 275.67L85.0882 274.65C86.5642 272.134 88.5695 269.82 90.3093 267.465C93.3696 263.317 96.5637 259.618 99.6806 255.626L106.294 247.806C106.894 247.105 107.521 246.484 108.036 245.798C109.483 243.865 114.708 238.507 116.797 236.397C117.213 235.978 117.394 235.721 117.64 235.478C118.138 234.987 118.3 235.02 118.805 234.517C121.277 232.053 123.81 229.592 126.641 227.385C128.153 226.204 129.669 225.188 131.142 224.12L135.666 220.861C136.605 220.225 136.984 219.848 137.836 219.307L141.452 216.956C143.166 215.974 145.282 214.356 147.652 213.243L153.333 210.582C158.823 208.233 153.203 215.845 152.165 218.382L149.216 224.851C148.41 226.291 147.978 227.861 147.299 229.322L145.283 234.498C144.006 237.402 143.1 239.939 142.003 242.766C140.239 247.322 137.598 252.671 136.065 256.879C135.704 257.873 135.495 257.86 135.104 258.88C133.511 263.031 131.599 266.645 129.728 270.723C129.084 272.13 128.178 273.413 127.584 274.677C127.2 275.496 127.015 275.64 126.505 276.443L124.238 280.108C123.733 280.926 123.864 281.928 124.656 282.45C126.059 283.372 132.266 280.626 135.612 279.677C139.661 278.53 143.998 277.562 148.345 276.619L198.822 266.134C201.604 265.515 209.415 263.184 211.141 263.518ZM205.924 159.017C207.307 159.219 209.413 160.771 211.011 161.483C212.018 161.93 212.07 161.745 212.296 162.872C211.533 163.443 199.295 168.874 198.513 168.97C198.221 169.633 198.109 169.559 197.111 170.007L188.631 175.054C187.849 175.574 186.168 176.978 185.265 177.099C184.898 177.884 184.654 178.069 183.549 178.361L183.697 178.224C183.102 179.436 182.742 179.274 181.646 180.128C180.597 180.947 180.427 181.343 179.076 181.835C178.362 182.116 177.531 183.056 176.852 183.555C176.345 184.461 172.401 187.862 171.255 189.203L167.388 193.597C167.064 193.94 166.994 194.016 166.68 194.39C166.017 195.179 166.718 194.788 165.712 195.053C165.7 195.871 164.576 196.931 163.86 197.976L159.823 203.657C158.964 204.536 149.616 208.126 147.673 209.089L139.92 213.14L140.045 213.005L139.307 213.833C139.005 214.059 138.825 214.094 138.408 214.34C137.919 214.63 137.426 215.007 136.828 215.42C128.894 220.881 132.575 218.772 125.331 219.499L123.536 219.403C122.941 217.149 125.141 212.521 126.103 210.342L129.084 205.091C129.344 204.651 129.53 204.164 129.831 203.731C130.223 203.166 130.454 202.956 130.845 202.306L137.404 194.47C138.851 192.87 142.938 189.346 144.602 187.93C145.508 187.16 146.195 186.546 147.09 185.764C147.572 185.345 148.006 185.076 148.431 184.715C149.828 183.527 154.383 179.956 156.216 179.54L161.228 176.319C163.759 174.595 169.27 171.727 172.457 169.816C175.809 167.803 188.166 162.844 191.849 161.592C194.25 160.775 196.714 159.927 199.259 159.315C202.742 158.478 203.565 157.516 205.924 159.017ZM222.708 450.986L222.773 451.092C221.438 451.464 220.743 451.078 219.602 450.817L217.889 450.546C217.111 450.489 217.822 450.593 217.036 450.451C215.39 450.154 213.172 449.872 211.377 449.424L192.931 444.616C189.539 443.692 183.604 441.583 180.267 440.306C179.559 440.035 178.631 439.681 177.916 439.384L173.082 437.423C170.727 436.264 168.321 435.553 165.886 434.269L161.279 432.023C155.786 429.454 150.641 426.786 145.57 423.738L141.255 421.124C139.496 419.815 137.568 419.151 135.946 417.81C134.4 416.532 132.239 415.507 130.624 414.224C130.173 413.864 130.211 413.76 129.717 413.409L110.985 398.637L104.245 392.129C103.817 391.69 104.159 392.045 103.712 391.668L98.4881 386.336C97.9672 385.698 97.4018 384.993 96.7675 384.297L85.7891 370.627C85.7541 370.575 85.7179 370.523 85.6801 370.473C85.6445 370.423 85.6027 370.375 85.5673 370.326C84.9898 369.552 84.4615 368.873 84.3015 367.99C85.8805 366.491 86.6063 366.963 89.0399 366.52C94.5371 365.519 100.59 363.889 105.481 361.966C110.387 360.037 113.854 357.666 117.827 354.904C121.513 352.342 124.795 349.5 127.987 346.648L134.216 340.766C139.733 335.004 138.799 334.965 141.712 331.068C142.414 330.129 143.035 327.877 144.75 328.418C145.527 328.696 145.91 330.021 146.314 330.851C148.508 335.356 153.807 341.771 157.836 345.347C161.948 348.997 165.337 351.034 170.71 353.585C171.514 353.967 172.573 354.238 173.542 354.493C176.682 355.314 175.9 356.072 176.522 359.001C178.452 368.085 181.98 375.383 186.039 382.684C188.199 386.572 191.364 390.739 194.101 394.29L195.918 396.443C198.585 399.585 201.654 402.483 205.045 404.989L207.307 406.578C207.935 407.012 207.855 407.041 208.379 407.451L214.09 411.395C214.585 411.76 214.681 411.721 215.258 412.128C216.04 412.677 216.71 413.249 217.474 413.794C219.25 415.057 220.399 415.419 221.806 417.23L227.178 423.789C229.52 426.64 235.432 431.763 238.606 433.898C240.553 435.207 242.224 436.735 244.306 437.853C248.806 440.271 250.739 442.026 256.676 444.487C260.895 446.236 265.862 448.368 270.381 449.476C271.561 449.766 272.37 449.92 272.776 451.044C270.298 453.015 249.622 453.738 246.232 453.499C245.076 453.417 244.264 453.556 243.208 453.457L234.431 452.898C231.363 452.559 228.385 452.535 225.552 451.828C224.8 451.641 225.031 451.704 224.288 451.658C222.948 451.575 223.314 451.911 222.708 450.986ZM267.92 427.649C268.132 428.219 268.91 428.813 269.529 429.302C270.039 429.705 270.963 430.561 271.318 430.694C272.282 430.437 272.395 430.858 273.947 432.348C277.212 435.48 282.101 439.057 285.814 442.145C286.329 442.572 286.457 442.49 287.117 442.996C290.926 445.918 292.297 446.456 286.982 448.02C285.065 448.583 283.81 448.76 282.079 448.547C281.285 448.449 280.616 448.411 280.015 448.337C279.122 448.226 278.831 448.005 277.998 447.849C275.579 447.393 272.678 446.667 270.437 445.734L263.219 443.161C261.862 442.613 261.048 442.298 259.695 441.755C258.542 441.291 257.437 440.583 256.376 440.11C255.045 439.518 254.382 439.209 253.018 438.516C252.346 438.175 252.257 438 251.511 437.619C248.694 436.182 242.058 431.444 239.499 429.439C238.993 429.043 238.508 428.806 237.988 428.303L232.638 423.336C226.868 418.046 219.846 407.854 217.964 400.988C216.304 394.926 215.551 389.663 215.595 383.6L216.247 371.966C216.385 370.433 216.082 369.203 217.807 368.778C218.372 369.136 218.856 369.754 219.311 370.381C219.629 370.82 219.7 371.02 219.998 371.458C223.444 376.538 226.795 381.576 230.595 386.51L233.647 390.468C236.519 394.147 241.265 399.938 244.58 403.403C245.068 403.913 245.692 404.616 246.09 405.101C248.531 408.075 250.785 410.178 253.412 413.146C253.679 413.446 253.974 413.659 254.281 413.984L266.27 425.602C267.069 426.4 267.646 426.477 267.92 427.649ZM247.274 97.0516C246.62 97.3965 246.352 97.606 245.494 97.9041C245.437 98.8978 246.033 97.9425 243.283 99.6022C242.49 100.08 241.625 100.521 240.741 100.975L230.025 106.189C228.486 106.868 226.079 108.312 224.263 108.588L223.079 108.741C222.383 109.865 222.015 109.609 220.557 110.173C213.481 112.915 207.171 115.491 199.653 117.361C191.5 119.389 182.986 121.265 174.552 121.85C173.572 121.918 173.508 121.855 172.939 121.552C170.868 121.778 168.003 122.007 166.27 121.629C163.354 122.091 158.836 121.634 156.416 121.348C153.797 121.04 149.072 120.966 147.297 120.006C146.318 120.103 135.487 118.239 133.689 117.708C132.125 117.246 130.771 117.118 129.224 116.669C126.235 115.802 123.487 115.386 120.596 114.515L112.197 112.073C110.972 112.067 112.035 112.128 111.353 112.039C111.292 112.032 110.642 111.892 110.589 111.877C109.778 111.656 109.899 111.716 109.365 111.154L109.253 111.063C108.147 111.261 106.959 110.855 106.125 110.523C105.092 110.112 104.365 109.868 103.642 109.045L102.482 108.636C101.203 108.519 99.9862 108.112 99.2825 107.223L98.9862 107.305C97.6672 107.224 97.8576 107.029 96.8766 106.622C96.3862 106.419 95.4924 106.065 95.1853 105.956C92.9002 105.755 77.5347 97.4317 75.1268 95.6767L71.3861 93.1479C70.1507 92.3282 69.1227 91.4424 67.9315 90.5601C66.5984 89.5744 65.684 88.9315 64.4094 87.7628C63.0052 86.4739 61.4317 85.7327 59.3411 83.5936C58.0509 82.2723 55.7176 80.3818 54.6301 78.9919L48.8209 72.0873C46.6827 69.5377 40.9983 60.808 41.9996 59.5953C42.6793 58.773 46.1971 59.7238 46.8368 59.8144C47.5875 59.9204 48.0565 59.7889 48.7295 59.9439L51.9674 60.5634C53.0552 60.7654 54.2462 60.9595 55.2575 61.1444L65.2378 62.742C65.8864 62.8299 66.2541 62.746 66.9017 62.8599C67.5504 62.9736 67.703 63.1443 68.5672 63.2669C73.0328 63.9001 77.4263 64.6809 81.925 65.2896L198.28 83.8475C199.521 84.0073 200.304 84.1458 201.628 84.3588C204.376 84.8005 210.638 85.9554 213.099 86.1296L234.139 89.5162C236.158 89.7434 238.52 90.2675 240.769 90.5701C243.36 90.9197 252.771 92.4218 253.729 93.0106C253.447 94.4398 252.846 94.472 251.274 95.2701C250.023 95.9038 248.985 96.6345 247.274 97.0516ZM266.157 221.116C266.152 221.891 265.903 221.834 265.333 222.634L263.2 225.42C262.645 226.129 262.6 226.258 261.965 226.898C261.393 227.476 261.316 227.668 260.836 228.259C256.965 233.031 251.687 237.449 246.667 241.291C246.067 241.75 246.704 241.376 245.904 241.872L244.258 243.097C242.665 244.585 236.688 247.995 234.655 249.266C233.625 249.909 231.927 250.689 230.769 251.275C228.241 252.553 225.164 253.864 222.439 254.999C220.786 255.687 219.484 256.105 217.665 256.503C215.892 256.892 214.919 257.755 213.266 258.302C206.947 260.395 200.179 262.252 193.113 263.698L173.311 267.608C169.886 268.07 165.781 269.094 162.3 269.797L134.937 276.063C129.322 277.857 133.398 273.197 135.223 268.747L135.507 268.129C137.164 264.944 138.933 260.068 140.326 257.153C140.871 256.01 140.849 256.859 141.291 255.321C141.533 254.481 141.814 253.924 142.113 253.226L143.781 249.415C144.357 248.15 144.767 246.621 145.372 245.358C145.881 244.295 145.806 244.692 146.171 243.407C146.367 242.721 146.743 242.073 146.97 241.488L149.28 235.465C152.304 227.679 156.78 217.39 160.947 210.548C161.251 210.049 161.217 210.174 161.494 209.646C162.331 208.048 164.124 206.639 164.589 205.218C165.172 203.443 166.718 201.414 167.989 199.827L178.771 187.78L192.452 177.115C196.512 174.31 199.457 173.169 203.444 170.858C204.075 170.492 203.686 170.706 204.549 170.33L208.08 168.672C209.513 167.97 211.635 166.987 213.116 167.443C212.675 169.285 210.888 170.857 209.935 172.604C208.714 174.839 207.251 176.537 206.024 178.75L202.419 185.044C201.933 185.863 201.805 185.861 201.38 186.866C200.993 187.783 200.717 187.961 200.37 188.667C199.973 189.476 199.817 189.777 199.439 190.512L197.733 194.316C197.305 195.148 197.212 195.049 196.799 196.173L190.918 211.84C189.935 214.09 189.316 217.763 188.697 220.096C188.249 221.784 186.234 231.595 186.598 233.259C186.966 234.94 188.857 234.636 190.824 234.614C194.584 234.572 197.923 234.511 201.673 234.253L212.605 233.274C216.972 232.707 220.302 231.966 224.126 231.491C233.201 230.366 249.382 225.337 258.096 222.149C259.199 221.746 265.304 219.257 266.195 219.344C267.039 219.427 267.337 219.793 266.788 220.638C266.256 221.452 266.773 220.806 266.157 221.116ZM242.708 249.223L243.131 249.157L247.767 245.36C248.63 244.692 251.439 242.229 252.613 241.902L254.466 240.292C254.172 239.568 254.42 239.761 256.72 237.633C261.711 233.017 262.182 232.041 265.967 227.707L268.979 223.823C269.798 222.728 270.936 220.483 272.371 220.036C273.636 220.706 277.032 226.831 277.232 228.327L276.985 228.706C276.737 229.254 276.722 229.47 276.512 229.864L267.84 244.237C266.84 245.753 266.119 246.33 265.646 246.989C262.973 250.72 256.867 257.589 253.537 260.667C251.511 262.539 244.233 269.354 242.115 270.794L235.795 275.443C230.922 278.914 228.72 279.952 223.6 282.709C220.813 284.21 219.038 285.136 215.687 286.323C212.227 287.547 198.459 291.902 196.933 289.608C196.47 288.909 197.129 285.701 197.305 284.715C197.652 282.785 199.041 282.087 200.381 280.853C201.596 279.733 203.107 278.688 204.291 277.465L207.106 274.864C210.661 271.059 213.88 266.839 216.836 262.631C218.094 260.839 218.141 260.415 221.011 259.418C225.492 257.861 223.294 258.806 226.775 257.146C232.098 254.606 232.151 254.756 237.451 251.924C239.274 250.948 240.704 249.721 242.708 249.223ZM217.887 160.563C216.63 160.159 216.369 159.565 215.4 158.999L203.631 151.869C201.791 150.719 200.506 149.365 199.033 147.935L190.293 136.989C189.036 134.949 188.348 133.06 187.273 131.05C186.448 129.507 185.067 126.431 185.549 124.73C187.009 124.22 199.069 121.688 203.008 120.531C205.618 119.763 223.611 113.793 226.656 111.992L229.195 110.757C233.853 108.765 240.943 104.967 245.594 102.486L258.307 95.8027C259.772 95.0223 259.825 94.7203 261.256 94.4652C263.787 94.015 272.518 95.4689 274.924 96.0703L288.667 98.2308C290.166 98.4095 290.857 98.5784 292.203 98.7665L299.088 99.7999C301.45 100.278 304.789 100.539 300.352 102.41C297.813 103.481 295.075 104.113 292.716 105.133C290.403 106.133 287.823 107.158 285.491 108.112C283.607 108.883 276.012 112.582 274.23 113.803L260.751 122.026C258.581 123.291 257.168 124.433 255.161 125.896C253.436 127.155 251.628 128.366 250 129.799L238.833 139.077C238.371 139.442 238.147 139.749 237.67 140.219L234.203 143.458C233.628 143.988 233.593 144.138 233.116 144.643C229.878 148.067 227.782 149.979 224.49 153.737C223.771 154.558 223.132 155.307 222.425 156.152L220.537 158.47C219.909 159.149 220.02 159.015 219.505 159.685C218.978 160.372 219.064 160.325 217.887 160.563ZM257.646 410.883C257.582 410.866 257.551 410.825 257.454 410.828C256.855 410.847 255.202 408.992 254.837 408.594C253.063 406.654 247.622 400.985 246.741 399.638L241.451 393.459C240.544 392.359 240.991 393.316 240.18 392.032C239.217 390.509 238.085 389.708 237.826 388.578C237.669 387.823 236.626 386.868 236.071 386.026C235.622 385.348 235.585 385.226 235.099 384.729C234.585 384.205 234.538 384.295 234.274 383.498C233.247 383.326 233.489 383.546 232.884 382.565L225.898 372.759C223.033 368.175 219.733 363.391 217.158 358.677L214.142 353.309C210.487 347.205 205.96 336.485 203.454 329.744C200.573 321.998 197.486 310.289 196.895 302.117C196.576 297.726 195.171 293.704 198.783 293.719C207.194 293.754 217.586 289.751 224.857 286.288C227.648 284.959 228.09 284.465 229.364 283.8C234.406 281.167 237.258 278.84 241.558 275.841C242.319 275.311 242.201 275.295 242.9 274.808L246.505 272.024C250.159 269.134 250.65 268.389 253.488 265.963C255.855 263.94 256.119 263.312 257.747 261.799L258.811 260.777C259.159 260.368 259.376 260.13 259.789 259.753C261.693 258.02 267.089 251.436 268.427 249.664C268.458 249.622 268.506 249.565 268.536 249.522L274.145 241.559C274.588 240.935 274.555 240.778 274.901 240.196L277.031 236.622C278.695 233.165 279.731 230.242 282.203 233.382L288.958 239.641C291.397 241.488 294.031 243.091 296.732 244.596L300.223 246.602C300.229 246.605 300.71 246.8 300.722 246.805L307.126 249.575C313.292 251.379 311.914 250.703 311.164 254.959C310.175 260.582 309.172 262.617 308.823 269.404C308.758 270.661 308.743 272.121 308.708 273.274C308.671 274.489 308.848 275.983 308.879 277.344C309.002 282.817 310.422 293.429 311.471 298.63L315.375 314.898C317.022 320.922 316.762 318.129 314.743 322.132C313.252 325.085 311.341 328.327 310.391 331.571C309.711 333.892 308.933 335.928 308.466 338.424L307.849 341.617C306.454 349.908 306.319 356.378 306.832 364.672C306.924 366.153 307.916 372.551 307.395 372.751C308.19 374.376 308.594 378.736 309.036 380.807C311.589 392.755 315.208 404.89 320.537 415.95C322.696 420.431 324.211 423.455 326.476 427.628C328.993 432.262 330.781 434.767 333.372 439.059L337.068 444.383C337.53 445.025 337.512 444.75 338.058 445.631L342.485 451.214C342.793 451.541 342.6 451.334 342.877 451.805C343.639 453.102 349.736 459.893 351.105 461.243C352.049 462.174 357.412 466.889 357.638 467.789C358.115 467.851 357.795 467.64 358.703 468.369C359.171 468.745 359.196 468.719 359.67 469.092C360.053 469.394 360.194 469.557 360.608 469.861C362.468 471.226 363.075 471.96 365.817 473.868L373.325 478.866C374.017 479.378 373.862 479.295 374.006 480.213C372.374 480.656 370.238 480.146 369.028 479.851L365.721 479.015C358.314 477.33 354.623 475.903 347.561 473.28L321.296 460.808C318.689 459.557 315.688 457.547 313.113 456.118L297.378 445.641C296.667 445.106 296.289 444.752 295.557 444.3L284.055 435.459C282.816 434.307 281.459 433.699 279.113 431.407C277.997 430.317 277.016 429.645 275.955 428.705L260.487 414.255C259.324 413.119 257.793 411.997 257.646 410.883ZM360.17 463.56C359.843 462.997 359.632 463.057 359.018 462.406C358.29 461.634 358.232 461.885 357.738 460.972C357.387 460.598 357.047 460.274 356.755 459.954C355.53 459.771 355.976 459.593 355.18 458.871C354.488 458.244 354.614 458.609 354.041 457.527C353.751 456.929 353.299 456.76 353.109 456.242C352.449 456.093 352.722 456.255 352.196 455.936L350.783 454.396C349.459 453.016 346.085 449.124 345.612 447.816C345.328 447.086 344.602 446.811 344.055 445.954C343.522 445.123 343.05 444.742 342.669 444.006C341.782 443.866 342.351 444.192 341.644 443.602C341.326 443.336 341.329 443.167 341.113 442.814L336.329 435.946C336.096 435.575 335.706 434.795 335.43 434.447C334.915 433.802 334.654 434.179 334.991 433.987L325.015 415.319C324.638 414.433 324.35 414.268 324.277 414.114L322.342 409.29C318.638 400.205 315.106 390.278 313.323 379.923C312.865 377.267 312.08 374.385 311.908 371.867C311.737 369.362 311.357 366.905 311.066 364.27C310.478 358.985 310.896 346.951 312.277 341.612C312.443 340.973 312.394 340.541 312.49 339.942L316.534 327.795C316.958 326.78 317.217 325.818 318.516 325.439C319.92 326.25 319.957 327.619 320.754 329.116L325.827 339.127L332.665 350.028C333.905 351.824 336.425 354.105 336.195 355.315C337.201 355.542 336.18 355.009 337.483 356.546L344.141 363.745C344.773 364.262 344.869 363.978 345.152 364.944C345.846 365.025 346.348 365.296 346.601 365.907C347.331 366.015 347.047 365.733 348.378 366.984L364.184 377.937C369.65 381.074 369.148 380.197 372.44 381.718C373.963 382.422 373.757 385.515 373.89 387.389C374.094 390.233 374.287 392.901 374.59 395.647C374.902 398.457 375.126 401.194 375.386 404L377.376 428.434C377.51 431.008 377.659 434.162 378.106 436.941C378.283 438.028 378.149 437.939 378.138 438.82L379.364 453.445C379.55 456.039 379.732 459.179 380.034 461.67L380.745 469.594C381.057 472.382 381.142 475 381.236 477.64C379.963 478 380.577 478.1 379.751 477.726C379.146 477.453 378.757 477.36 378.265 477.074L368.526 471.016C367.981 470.635 367.971 470.461 367.361 469.978C365.71 468.672 360.688 465.363 360.17 463.56ZM346.464 152.14C346.474 153.413 340.95 160.768 340.014 161.819C339.562 162.327 339.384 162.469 338.96 163.024L330.053 173.137L314.484 187.155C311.188 189.834 311.144 189.385 309.788 190.354C308.936 190.962 309.729 190.988 308.213 191.261C307.442 191.595 304.588 193.618 303.736 194.299C302.932 194.942 302.389 195.234 301.533 195.846C300.694 196.449 299.825 196.844 299.166 197.313C298.938 197.67 299.017 197.665 298.609 198.029C298.591 198.045 298.039 198.392 297.963 198.441C296.607 199.316 295.445 200.146 293.864 200.671L278.345 209.205C277.632 209.579 276.59 209.957 275.746 210.376C272.376 212.054 262.322 215.807 260.584 216.909C259.818 217.395 256.132 218.547 254.922 218.959C239.306 224.283 234.042 225.478 218.438 228.285C216.01 228.722 214.593 228.753 212.293 229.131C210.275 229.462 208.075 229.387 206.168 229.912C201.846 230.48 199.367 230.39 195.455 230.524C192.242 230.634 190.754 231.577 192.603 223.788L193.572 219.2C193.747 218.203 193.607 218.234 194.384 217.645L194.737 215.508C194.256 214.045 194.662 214.609 194.961 213.525L197.783 204.723C198.929 201.635 202.17 193.955 203.579 191.546L209.694 180.508C210.086 179.841 210.162 179.626 210.572 179.032L212.47 176.111C212.896 175.325 212.393 175.946 212.969 175.226C213.211 174.924 213.269 174.95 213.555 174.553L215.1 172.243C219.437 166.172 222.883 161.434 227.958 155.818L229.709 153.823C233.857 149.467 239.038 144.098 243.688 139.959L246.592 137.417C246.975 137.114 247.174 137.026 247.528 136.719C247.946 136.358 247.741 136.475 248.175 136.105C248.712 135.647 249.198 135.267 249.634 134.912L272.441 118.99C274.93 117.616 277.346 116.239 279.896 114.956C285.27 112.251 290.229 109.897 296.504 107.643C300.206 106.312 312.302 102.133 315.892 102.525L330.129 104.815C330.999 104.979 331.351 104.908 332.181 105.038L338.428 106.073C339.343 106.134 339.459 106.274 340.279 106.45C341.282 106.666 343.423 106.95 344.416 107.093C348.694 107.707 350.704 107.457 350.999 110.031L352.072 122.804C352.133 125.635 353.594 138.111 353.16 139.664L347.598 150.799C347.037 151.772 347.451 151.699 346.464 152.14ZM355.359 367.159L353.389 365.426C352.187 365.232 352.329 365.075 351.536 364.375C350.839 363.76 350.235 363.76 350.345 362.8C349.124 362.368 349.353 362.09 348.604 361.383L347.02 359.976L342.17 355.068C341.487 354.28 341.258 354.11 340.632 353.413L332.448 342.32C332.121 341.817 331.513 340.643 331.258 340.16L325.623 329.502C324.772 327.798 320.268 317.207 319.989 315.311C319.725 313.52 318.947 311.99 318.544 310.327C317.633 306.583 316.739 303.13 316.05 299.531C315.33 295.765 315.022 292.291 314.315 288.575C312.973 281.528 313.003 274.633 313.185 268.142C313.208 267.333 313.447 266.793 313.499 265.766C313.543 264.911 313.714 264.294 313.813 263.391C314.166 260.197 315.958 252.805 317.021 250.017C317.297 249.294 317.424 248.574 317.702 247.818C317.925 247.206 318.282 246.506 318.573 245.741L327.709 227.893C328.009 227.435 328.179 227.263 328.392 226.877C328.417 226.831 328.448 226.767 328.474 226.719L331.379 222.213C331.803 221.498 333.33 219.2 334.14 218.802C334.163 217.852 334.623 217.66 335.271 216.863L343.455 206.741C344.098 206.037 344.219 205.73 344.807 205.123L353.854 195.276C354.153 194.961 354.28 194.892 354.607 194.502C355.087 193.927 355.279 193.358 356.139 192.953C357.752 192.194 357.798 193.544 357.892 193.985C357.993 194.458 358.068 194.979 358.075 195.453C358.119 197.891 359.075 203.403 358.835 204.843L359.65 214.962C360.113 222.827 360.977 230.58 361.6 238.45C361.911 242.391 362.418 246.14 362.562 250.163L363.008 255.715C363.194 257.733 363.4 259.511 363.564 261.543C364.115 268.336 364.584 277.581 365.336 284.288L367.318 307.769C367.342 311.473 368.103 315.65 368.312 319.505C368.525 323.467 368.927 327.425 369.276 331.227C369.848 337.471 370.367 348.391 371.221 354.36C371.61 357.081 373.169 375.989 372.754 377.289C370.451 377.874 369.418 376.635 367.692 375.732L361.054 371.869C360.788 371.723 360.698 371.688 360.444 371.482C360.142 371.235 360.361 371.39 360.054 371.096C359.524 370.59 359.772 370.817 359.127 370.373C357.968 369.575 355.892 368.324 355.359 367.159ZM355.327 187.408C355.278 188.35 354.807 188.438 354.143 189.131L347.67 196.448C343.389 201.066 341.231 203.191 337.182 208.256C335.98 209.758 335.418 210.808 334.489 211.115C334.408 212.053 332.63 213.738 331.604 215.068L326.026 223.063C325.521 223.992 323.876 226.591 323.135 226.996C323.32 227.995 323.105 227.615 322.545 228.45L313.341 247.086C313.062 247.309 313.044 247.375 312.581 247.402C311.193 247.48 312.259 247.637 311.707 247.132C311.011 247.108 310.822 246.939 310.221 246.717C308.382 246.663 303.52 244.081 301.715 243.292C300.784 242.885 301.329 243.087 300.534 242.567C300.035 242.241 299.774 242.209 299.274 241.927C298.667 241.582 298.592 241.497 297.909 241.141C297.436 240.894 297.131 240.67 296.758 240.386C295.1 239.121 291.578 236.981 290.047 235.519C285.917 231.575 283.719 229.341 280.431 224.551C278.864 222.266 277.213 218.405 275.842 216.942C273.947 214.922 277.332 214.335 279.454 213.173L288.693 208.39C291.673 206.901 300.988 201.42 302.735 200.046C303.467 199.47 304.834 198.671 305.538 198.233L313.217 192.744C313.882 192.241 314.859 191.482 315.617 190.892C316.381 190.297 317.379 189.403 318.212 189.138C318.36 188.84 318.228 189.066 318.502 188.696C319.29 187.631 319.324 188.012 320.766 186.793L328.581 180.009L342.103 165.508C345.393 161.906 348.846 156.358 351.395 152.251C351.837 151.541 352.471 150.275 353.491 150.041C354.773 150.889 354.537 153.137 354.718 154.715C355.597 162.342 355.805 171.027 356.75 179.228C356.914 180.637 357.951 186.484 355.327 187.408ZM335.929 101.625C335.35 101.628 333.81 101.309 333.286 101.018L333.084 100.058C333.619 99.5296 332.938 100.097 333.847 99.5173C334.669 98.9247 335.01 98.3407 335.822 97.6202C337.932 95.7462 340.891 93.9586 343.583 92.7364C350.883 89.4201 356.517 89.7331 358.081 89.3168C360.531 88.4064 372.954 89.2124 373.952 90.4907C375.365 92.3004 373.861 102.732 373.592 104.937C373.469 105.945 373.061 107.177 372.735 108.199C371.351 112.556 368.222 116.46 364.876 119.847C364.672 120.053 364.377 120.359 364.243 120.468C357.051 126.263 356.014 123.791 356.576 124.055C356.095 122.063 356.25 121.052 356.025 119.169L355.26 110.276C355.124 108.871 354.643 106.764 354.33 105.333C350.439 104.277 344.835 103.151 340.623 102.642C339.124 102.461 336.671 102.352 335.929 101.625ZM366.232 42.8255L367.524 40.0945C367.54 39.2158 367.837 38.0238 368.937 37.7114L369.136 37.4184C369.073 36.3549 369.564 35.7719 370.472 35.2036L370.42 35.3826C370.46 34.4332 370.341 34.7997 370.9 34.0494C371.454 33.3092 371.073 33.6088 371.96 33.051L371.944 33.283C372.007 32.3369 372.015 32.5535 372.609 31.8299C373.926 30.2244 376.768 26.3607 378.006 25.3218L382.216 20.3264C382.722 19.8124 383.233 19.3348 383.762 18.8179C384.322 18.2687 384.762 17.8361 385.377 17.3352L396.118 8.99458C396.545 8.68373 396.754 8.60328 397.118 8.3581C401.29 5.53599 400.519 6.14819 404.444 4.08561C405.941 3.29877 405.321 3.30999 406.256 2.69416C406.021 0.00744075 403.234 0.726693 400.889 1.9202C400.308 2.80835 396.476 4.7066 395.383 5.41118C393.714 6.48555 391.727 7.85519 390.226 8.91379L380.937 16.4804L372.941 24.7338C370.35 27.5931 368.898 29.6573 366.81 32.4351C366.561 32.7641 366.559 32.7121 366.379 32.994L360.871 43.3804C359.22 46.6387 358.669 50.6289 357.877 54.368C356.99 58.5558 357.231 62.3348 357.106 66.5488C356.96 71.4321 357.35 74.7021 357.49 79.3467C357.719 86.9457 356.431 84.935 348.742 86.7304C340.483 88.6596 336.301 91.6824 331.115 96.0432C328.671 98.1003 328.72 99.7783 327.142 100.204C326.063 100.495 315.481 98.7184 314.409 98.4872L305.038 96.9545C303.872 96.6698 303.189 96.7964 301.883 96.4924L292.446 95.04C291.459 94.8554 290.371 94.6587 289.338 94.497L270.577 91.497C269.615 91.3142 268.472 91.193 267.564 90.9708L266.088 90.6298C265.125 90.4758 265.218 90.601 264.55 90.0444C263.467 89.6295 255.489 88.7253 253.29 88.3163C252.506 88.1709 252.461 88.051 251.684 87.9166L228.624 84.4241C224.975 83.5797 221.475 83.2975 218.706 82.7691L212.064 81.7C210.787 81.951 210.322 81.672 209.375 81.504C208.343 81.3216 207.42 81.6137 207.039 80.8064L177.045 76.1394C176.09 75.9571 175.693 75.8145 174.778 75.7166C173.148 75.5419 171.766 75.0774 170.148 75.1021C169.471 75.0905 169.128 75.0597 168.483 74.9906C168.247 74.9664 167.936 74.9505 167.7 74.8781C166.924 74.6382 167.395 74.7931 166.961 74.4891L143.386 70.7994C142.569 70.634 141.02 70.1844 140.065 70.2041C138.727 70.2381 137.363 69.9407 136.37 69.7119C135.2 69.4424 133.973 69.4292 132.766 69.1894C130.856 68.8098 126.44 68.533 125.869 67.8985C124.827 68.4074 118.554 66.969 116.064 66.6868C114.934 66.5576 115.036 66.5347 114.52 66.1035C112.472 65.8902 110.546 65.294 108.496 65.197C106.967 65.4973 104.144 64.826 102.536 64.5506C101.406 64.3572 100.666 64.3381 99.6132 64.0442C97.5682 63.4743 97.8119 64.3785 96.721 63.2751C96.1811 63.1808 95.9624 63.3613 93.8802 62.9388C91.5339 62.4622 90.5574 62.5078 87.9072 61.8962L72.7417 59.5921L66.9304 58.9276C66.3243 58.7125 66.6108 58.7834 66.1866 58.3937L63.7903 58.2434C62.0082 58.758 55.0388 57.1874 53.0256 56.9198L42.6374 55.3137C41.0573 55.0486 39.1097 54.2377 37.7558 54.2437L23.2896 52.2423C22.0146 51.8464 22.6767 52.3019 22.1447 51.508C19.6299 51.173 16.415 50.4544 13.6853 50.17L9.27478 49.5886C8.52612 49.4875 7.87129 49.2771 7.17645 49.1908C5.95279 49.0381 5.9977 49.2969 5.19352 48.7113C4.22243 48.9677 1.22897 48.5739 0.265041 48.2394C-0.329974 48.0319 -0.0918805 48.0834 -0.494069 47.7799C-1.6526 47.6815 -2.97933 47.4548 -3.98328 47.3931C-5.58778 47.4045 -5.83838 47.2665 -7.11901 47.0428C-8.69498 46.767 -9.30234 46.9867 -9.96982 46.3818C-10.7616 46.5434 -11.246 46.4261 -12.0844 46.3204C-12.4212 46.2777 -12.692 46.2623 -13.0794 46.174C-14.1115 45.9399 -13.5702 46.1639 -14.1514 45.649C-15.3329 45.5723 -16.0977 45.2697 -17.1535 45.2285C-18.421 45.4837 -18.476 45.2636 -19.498 45.0987C-20.3384 44.9631 -20.6664 45.0807 -21.2595 44.7338L-21.6485 44.3965C-23.3045 44.6046 -43.9258 40.6517 -45.6527 40.7623C-48.571 40.9023 -59.1984 38.562 -63.6905 38.0518C-63.905 38.0275 -64.0773 38.0283 -64.2854 37.968C-65.0742 37.7389 -64.659 37.818 -64.9648 37.6131C-65.8618 38.0385 -65.8922 37.8605 -66.9021 37.7804L-76.8538 36.249L-81.2031 36.58C-82.0634 36.8911 -81.7616 44.0451 -81.6068 45.4111C-81.4203 47.0536 -80.9682 47.7937 -81.7018 48.7294C-82.2034 52.3845 -76.8148 71.1963 -74.6405 75.3829C-73.396 77.774 -72.5147 80.6257 -71.153 83.2313L-67.4396 90.5041C-66.8217 91.8582 -66.0852 92.772 -65.426 94.0909L-54.739 111.014C-53.3718 111.088 -53.6317 111.885 -52.426 113.396C-48.5716 118.224 -49.3569 117.371 -50.7574 120.063C-51.3614 121.223 -50.3842 119.719 -51.0147 120.463C-54.6982 124.805 -56.0924 131.45 -57.8076 131.868C-57.8135 131.937 -61.5657 142.458 -62.1406 145.009C-62.3293 145.843 -63.01 149.055 -63.5069 149.703C-63.2369 150.488 -64.0728 154.02 -64.2671 155.437C-64.5439 157.474 -64.7236 159.454 -65.0344 161.48C-65.5238 164.661 -65.3615 167.934 -65.3185 170.999C-65.2989 172.437 -65.6871 172.484 -65.2544 174.334C-64.8763 175.414 -64.6933 180.09 -64.5773 181.816L-64.419 183.711C-64.5855 184.37 -64.3581 183.853 -64.7512 184.275C-64.1243 186.083 -64.0085 189.126 -63.6262 191.21C-61.3502 203.662 -58.3372 214.487 -53.6543 226.228C-53.272 227.184 -52.8056 228.198 -52.2675 229.022C-51.6707 229.941 -51.4271 231.004 -50.9335 232.13C-50.5774 232.943 -49.7995 234.022 -49.3933 234.801C-48.9011 235.746 -48.5557 236.974 -48.0662 237.988C-47.5974 238.958 -47.1 239.826 -46.587 240.876L-43.4547 246.352C-41.2243 249.621 -40.5557 251.241 -38.5679 254.442C-36.9073 257.112 -35.3722 258.866 -33.3695 262.149C-32.8512 263 -32.1919 263.447 -31.5228 264.424C-30.1379 266.445 -21.248 277.514 -20.1494 278.281C-18.3265 278.877 -15.1067 283.06 -13.6959 284.504C-13.1209 285.092 -12.8862 285.326 -12.3296 285.845C-7.91267 289.965 -5.20932 292.741 -0.21837 296.736C0.274469 297.13 0.624796 297.608 1.16795 298.046C2.21831 298.892 3.16352 299.433 4.05291 300.257C4.85189 300.997 6.02225 301.876 6.95912 302.448C8.56374 303.427 12.8735 307.084 15.8719 308.747C17.1204 309.441 21.1466 312.358 22.7827 313.12L24.9437 314.484C25.5067 314.623 29.9334 316.77 30.4245 317.709C31.079 318.964 29.9454 319.551 29.4326 320.434L22.4364 332.357C22.1709 332.89 22.1487 333.177 21.8126 333.783L18.4099 340.594C18.0987 341.121 17.9701 341.411 17.7229 342.002L10.9397 355.818C9.30039 358.963 3.1091 370.393 0.948054 372.998L-1.92472 376.763C-3.80563 379.285 -2.48992 381.089 1.36547 379.58C2.80433 379.017 3.42866 378.695 4.53003 378.147C7.6645 376.589 22.9866 371.848 24.8535 372.026L49.3662 365.405C52.1873 364.778 64.0939 361.418 66.9664 360.282C74.5328 357.291 72.2435 357.358 76.8033 364.595L80.7328 370.807C83.7867 374.704 85.9892 378.226 89.5917 382.434C91.2143 384.33 92.6694 386.215 94.4645 388.014C95.3492 388.903 96.1363 389.749 96.9704 390.69C97.418 391.193 97.8351 391.559 98.1689 391.936C98.4651 392.275 98.4547 392.306 98.7517 392.613L107.375 400.956C108.301 401.804 109.389 402.584 110.163 403.271L112.897 405.679C113.994 406.563 114.622 407.313 115.675 408.037L134.75 421.833C135.416 422.228 135.672 422.306 136.372 422.818L137.845 423.757C141.961 426.464 147.819 429.589 152.268 431.993L162.379 437.037C163.244 437.52 164.852 438.188 165.807 438.574C166.829 438.988 168.125 439.508 169.25 440.056C170.438 440.633 171.481 441.008 172.78 441.474C175.018 442.274 177.435 443.715 179.862 444.227L181.11 444.543C181.148 444.564 181.204 444.609 181.243 444.632C181.284 444.655 181.34 444.702 181.381 444.727C182.624 445.455 185.429 446.216 187.061 446.795C188.285 447.228 189.523 447.534 190.752 447.975C192.076 448.451 193.025 448.64 194.538 449.058L202.117 451.185C203.293 451.433 204.771 451.791 205.975 452.121C206.927 452.383 206.986 452.324 207.911 452.492C208.829 452.659 208.85 452.881 209.88 453.043C216.053 454.018 221.945 455.394 228.229 456.041C228.96 456.116 229.733 456.095 230.502 456.221C234.739 456.923 239.369 456.888 243.669 457.12C249.795 457.451 256.564 457.046 262.634 456.543L270.204 455.617C271.358 455.479 271.522 455.371 272.575 455.192C276.142 454.583 279.569 453.747 283.134 452.947C285.468 452.425 291.97 450.009 293.436 449.966C293.438 449.953 293.157 449.136 295.167 449.266C295.886 449.312 295.925 449.587 296.388 449.96L310.805 459.319C311.566 459.835 312.333 460.259 313.173 460.781L323.233 466.464C324.226 466.96 324.987 467.367 325.909 467.82L336.29 472.807C337.17 473.13 338.044 473.55 338.917 473.925L339.254 474.063C339.302 474.084 339.372 474.112 339.419 474.134C339.465 474.156 339.533 474.186 339.577 474.209L349.989 478.333C351.188 478.653 351.693 479.012 352.945 479.329L361.659 481.956C362.474 482.207 362.616 482.111 363.387 482.299C366.777 483.123 370.644 484.391 374.106 484.632C375.159 484.706 379.563 485.193 380.296 485.91L381.06 485.923C382.967 485.679 383.957 486.303 385.857 485.765C386.733 482.726 386.294 478.248 385.815 475.017C385.603 473.598 385.932 473.903 386.227 473.621C385.876 473.141 384.79 457.378 384.553 455.197C384.207 451.991 383.797 448.625 383.587 445.666C383.363 442.552 383.326 439.56 383.105 436.73C382.677 431.264 382.097 423.206 381.401 418.013C380.554 411.694 380.49 405.382 379.73 399.164L379.893 399.182C379.481 395.883 379.224 393.131 378.831 389.95C378.492 387.202 378.789 387.132 378.769 385.756C378.756 384.996 378.513 384.189 378.493 383.391C378.471 382.549 378.664 382.152 378.704 381.567L377.571 372.45C376.927 364.166 375.666 354.005 375.328 346.053C374.959 337.335 373.631 328.252 373.131 319.683C372.641 311.244 371.554 301.815 370.93 293.332C370.505 287.579 370.013 281.486 369.589 275.759C369.02 268.089 368.335 256.883 367.28 249.272C366.923 246.696 366.759 243.24 366.59 240.492C366.243 234.853 365.748 228.826 365.27 223.153C364.572 214.876 363.914 204.364 362.929 196.424C362.587 193.653 362.514 190.595 362.221 187.792C361.59 181.783 361.176 176.151 360.805 170.134C360.718 168.721 360.394 167.016 360.327 165.501C360.255 163.897 360.209 162.881 360.118 161.331C359.942 158.366 359.187 155.299 359.279 152.568C359.323 151.248 359.104 149.406 358.96 148.086L357.357 130.459C357.188 128.113 360.204 128.351 364.047 125.858C364.773 125.388 366.589 123.795 367.176 123.69C367.465 122.941 367.149 123.551 367.494 123.028C367.54 122.959 367.821 122.665 367.868 122.612C368.144 122.291 368.207 122.161 368.429 121.913C368.644 121.466 368.488 121.763 368.741 121.372L373.123 116.048C379.579 105.575 374.061 104.332 385.991 105.723C386.766 105.814 387.219 105.976 387.939 106.056C391.65 106.474 396.304 107.182 400.538 107.431C405.319 107.713 405.842 107.987 411.354 107.966C424.498 107.917 431.638 106.2 443.798 101.096C447.827 99.4048 450.366 97.8374 453.583 96.1552C454.363 95.7476 454.722 95.5613 455.419 95.1656L462.354 90.8544C463.288 90.2915 464.673 89.3156 465.539 88.6445C469.7 85.424 469.306 85.946 472.999 82.4498C475.267 80.3026 477.641 78.4106 479.475 75.9291C480.536 74.495 480.587 74.0643 479.467 72.6089C476.136 73.1645 478.145 72.8168 474.848 75.9668L466.159 83.8272C462.709 86.2315 462.745 86.4245 458.191 89.3326L453.384 92.2439C451.6 93.2718 450.158 93.912 448.156 94.942L442.832 97.5478C430.204 102.951 423.347 104.181 409.839 104.396L381.117 101.492C379.717 101.594 378.838 101.885 378.25 101.043C377.661 100.2 379.392 88.8287 376.878 87.3834C376.664 87.2592 371.932 86.3276 371.583 86.2846C369.188 85.9872 368.333 85.9036 366.219 85.7799C360.488 85.4433 361.358 85.4533 361.716 83.1047L361.799 79.055C361.551 73.384 361.278 70.7897 361.442 64.8769C361.46 64.2142 361.369 63.5395 361.395 62.4789C361.482 59.1294 362.177 52.7624 363.269 49.5704C363.644 48.4709 363.4 48.2523 363.895 47.1558C364.282 46.2968 364.414 45.6829 364.716 44.9021C364.799 44.6863 365.028 44.1048 365.186 43.7927C365.527 43.1152 365.165 42.9549 366.232 42.8255Z" fill="white"/>
</svg>
