<svg width="27" height="27" viewBox="0 0 27 27" fill="none" xmlns="http://www.w3.org/2000/svg">
<circle cx="13.5" cy="13.5" r="13.5" fill="#454545"/>
<path d="M21 20.8125V18.9375C21 17.9429 20.6049 16.9891 19.9017 16.2859C19.1984 15.5826 18.2446 15.1875 17.25 15.1875H9.75C8.75544 15.1875 7.80161 15.5826 7.09835 16.2859C6.39509 16.9891 6 17.9429 6 18.9375V20.8125" stroke="white" stroke-width="2" stroke-linecap="round" stroke-linejoin="round"/>
<path d="M13.5 11.4375C15.5711 11.4375 17.25 9.75857 17.25 7.6875C17.25 5.61643 15.5711 3.9375 13.5 3.9375C11.4289 3.9375 9.75 5.61643 9.75 7.6875C9.75 9.75857 11.4289 11.4375 13.5 11.4375Z" stroke="white" stroke-width="2" stroke-linecap="round" stroke-linejoin="round"/>
</svg>
